<svg width="136" height="230" viewBox="0 0 136 230" fill="none" xmlns="http://www.w3.org/2000/svg">
<path d="M6.15955 117.709V144.548C6.15955 156.352 15.848 166.04 27.6523 166.04H51.3724C63.1767 166.04 72.8652 156.352 72.8652 144.548V117.709H6.15955Z" fill="#ECC742"/>
<path d="M70.1925 134.525C67.9653 134.525 66.7403 133.746 65.7381 133.189C64.8472 132.632 64.0676 132.186 62.5085 132.186C60.9495 132.186 60.17 132.632 59.2791 133.189C58.2768 133.857 57.0518 134.525 54.8246 134.525C52.5974 134.525 51.3724 133.746 50.3701 133.189C49.4792 132.632 48.6997 132.186 47.1406 132.186C45.5816 132.186 44.8021 132.632 43.9112 133.189C42.9089 133.857 41.6839 134.525 39.4567 134.525C37.2295 134.525 36.0045 133.746 35.0022 133.189C34.1113 132.632 33.3318 132.186 31.7728 132.186C30.2137 132.186 29.4341 132.632 28.5432 133.189C27.541 133.857 26.316 134.525 24.0888 134.525C21.8615 134.525 20.6366 133.746 19.6343 133.189C18.7434 132.632 17.9639 132.186 16.4048 132.186C14.8458 132.186 14.0662 132.632 13.1753 133.189C12.1731 133.857 10.9481 134.525 8.72087 134.525C6.49364 134.525 5.26866 133.746 4.26641 133.189C3.37551 132.632 2.59599 132.186 1.03693 132.186V129.848C3.26416 129.848 4.48914 130.627 5.49139 131.184C6.38229 131.741 7.16181 132.186 8.72087 132.186C10.2799 132.186 11.0595 131.741 11.9504 131.184C12.9526 130.516 14.1776 129.848 16.4048 129.848C18.6321 129.848 19.857 130.627 20.8593 131.184C21.7502 131.741 22.5297 132.186 24.0888 132.186C25.6478 132.186 26.4274 131.741 27.3183 131.184C28.3205 130.516 29.5455 129.848 31.7728 129.848C34 129.848 35.225 130.627 36.2272 131.184C37.1181 131.741 37.8976 132.186 39.4567 132.186C41.0158 132.186 41.7953 131.741 42.6862 131.184C43.6884 130.516 44.9134 129.848 47.1406 129.848C49.3679 129.848 50.5929 130.627 51.5951 131.184C52.486 131.741 53.2655 132.186 54.8246 132.186C56.3837 132.186 57.1632 131.741 58.0541 131.184C59.0563 130.516 60.2813 129.848 62.5085 129.848C64.7358 129.848 65.9608 130.627 66.963 131.184C67.8539 131.741 68.6335 132.186 70.1925 132.186C71.7516 132.186 72.5311 131.741 73.422 131.184C74.4243 130.516 75.6492 129.848 77.8765 129.848V132.186C76.3174 132.186 75.5379 132.632 74.647 133.189C73.6447 133.746 72.4198 134.525 70.1925 134.525Z" fill="white"/>
<path d="M70.1925 146.441C67.9652 146.441 66.7402 145.661 65.738 145.104C64.8471 144.547 64.0675 144.102 62.5085 144.102C60.9494 144.102 60.1699 144.547 59.279 145.104C58.2767 145.772 57.0518 146.441 54.8245 146.441C52.5973 146.441 51.3723 145.661 50.3701 145.104C49.4792 144.547 48.6996 144.102 47.1406 144.102C45.5815 144.102 44.802 144.547 43.9111 145.104C42.9088 145.772 41.6839 146.441 39.4566 146.441C37.2294 146.441 36.0044 145.661 35.0022 145.104C34.1113 144.547 33.3318 144.102 31.7727 144.102C30.2136 144.102 29.4341 144.547 28.5432 145.104C27.5409 145.772 26.3159 146.441 24.0887 146.441C21.8615 146.441 20.6365 145.661 19.6342 145.104C18.7433 144.547 17.9638 144.102 16.4048 144.102C14.8457 144.102 14.0662 144.547 13.1753 145.104C12.173 145.772 10.948 146.441 8.72081 146.441C6.49358 146.441 5.2686 145.661 4.26635 145.104C3.37545 144.547 2.59593 144.102 1.03687 144.102V141.763C3.2641 141.763 4.48908 142.543 5.49133 143.1C6.38223 143.657 7.16175 144.102 8.72081 144.102C10.2799 144.102 11.0594 143.657 11.9503 143.1C12.9525 142.432 14.1775 141.763 16.4048 141.763C18.632 141.763 19.857 142.543 20.8592 143.1C21.7501 143.657 22.5296 144.102 24.0887 144.102C25.6478 144.102 26.4273 143.657 27.3182 143.1C28.3205 142.432 29.5455 141.763 31.7727 141.763C33.9999 141.763 35.2249 142.543 36.2272 143.1C37.118 143.657 37.8976 144.102 39.4566 144.102C41.0157 144.102 41.7952 143.657 42.6861 143.1C43.6884 142.432 44.9134 141.763 47.1406 141.763C49.3678 141.763 50.5928 142.543 51.5951 143.1C52.4859 143.657 53.2655 144.102 54.8245 144.102C56.3836 144.102 57.1631 143.657 58.054 143.1C59.0563 142.432 60.2812 141.763 62.5085 141.763C64.7357 141.763 65.9607 142.543 66.9629 143.1C67.8538 143.657 68.6334 144.102 70.1925 144.102C71.7515 144.102 72.5311 143.657 73.4219 143.1C74.4242 142.432 75.6492 141.763 77.8764 141.763V144.102C76.3173 144.102 75.5378 144.547 74.6469 145.104C73.6447 145.661 72.4197 146.441 70.1925 146.441Z" fill="white"/>
<path opacity="0.1" d="M57.4973 117.709V144.548C57.4973 156.352 47.8089 166.04 36.0045 166.04H51.2611C63.0654 166.04 72.7539 156.352 72.7539 144.548V117.709H57.4973Z" fill="#482C80"/>
<path d="M77.8765 113.7H0.925598V121.718H77.8765V113.7Z" fill="#D4A000"/>
<path d="M73.756 130.739C72.6424 127.064 71.6402 123.834 70.5266 120.159C67.9652 111.362 65.4039 102.564 62.8426 93.7666C59.7245 83.0758 56.6064 72.3851 53.4882 61.6944C50.8156 52.4514 48.1429 43.3197 45.4702 34.0767C44.5793 31.0699 43.6884 27.9518 42.7975 24.9451C42.3521 23.4974 42.018 21.9383 41.5725 20.6019C41.5725 20.4906 41.5725 20.4906 41.4612 20.3792C41.4612 20.2679 41.4612 20.2679 41.3498 20.1565C41.3498 20.1565 41.3498 20.1565 41.3498 20.0451L41.2385 19.9338C41.0157 19.7111 40.793 19.7111 40.5703 19.8224C40.3476 19.9338 40.2362 20.0451 40.1248 20.2679C38.8999 23.9428 37.7862 27.6177 36.5613 31.2927C33.6659 40.0902 30.8818 48.8878 27.9864 57.6854C24.5342 68.2647 21.082 78.8441 17.6298 89.4235C14.623 98.6665 11.6162 107.798 8.60948 117.041C7.60722 120.048 6.60499 123.055 5.60273 126.173C5.15728 127.509 4.48909 129.068 4.15501 130.516C4.15501 130.627 4.155 130.627 4.04364 130.739C4.04364 130.85 4.04364 130.961 4.04364 131.073C4.04364 131.073 4.04364 131.073 4.04364 131.184C4.04364 131.295 4.15501 131.407 4.15501 131.518C9.94581 141.652 15.7366 151.675 21.5274 161.809C22.307 163.256 23.0865 164.593 23.9774 166.04C24.2001 166.486 24.9796 166.486 25.2024 166.04C29.8795 155.906 34.5567 145.772 39.3453 135.639C39.7907 134.636 40.2362 133.745 40.6817 132.743C44.5793 142.32 48.477 151.897 52.3746 161.586C52.9314 163.034 53.4882 164.481 54.1564 165.929C54.3791 166.486 55.1586 166.708 55.3814 166.04C60.6154 155.906 65.8494 145.884 71.0834 135.75C71.7515 134.414 72.5311 132.966 73.1992 131.63C73.6447 131.518 73.9788 131.184 73.756 130.739ZM43.4657 31.8495C46.027 40.647 48.5883 49.4446 51.1496 58.2422C54.2678 68.9329 57.3859 79.6236 60.504 90.3143C63.1767 99.5574 65.8494 108.689 68.5221 117.932C69.413 120.939 70.3038 124.057 71.1947 127.064C71.4175 127.843 71.9743 129.291 72.3084 130.293C64.9585 130.293 57.4973 130.293 50.1474 130.293C47.3634 130.293 44.5793 130.293 41.6839 130.293C41.6839 126.841 41.6839 123.389 41.6839 120.048C41.6839 111.25 41.6839 102.453 41.6839 93.6552C41.6839 83.0758 41.6839 72.4965 41.6839 61.9171C41.6839 52.6741 41.6839 43.5424 41.6839 34.2994C41.6839 31.404 41.6839 28.5086 41.6839 25.6132C42.2407 27.6177 42.7975 29.7336 43.4657 31.8495ZM9.27765 120.159C12.1731 111.362 14.9571 102.564 17.8525 93.7666C21.3047 83.1872 24.7569 72.6078 28.2091 62.0285C31.2159 52.7855 34.2227 43.6538 37.2294 34.4108C38.2317 31.404 39.2339 28.3973 40.2362 25.2791C40.2362 25.1678 40.3475 25.0564 40.3475 24.9451C40.3475 27.0609 40.3475 29.2882 40.3475 31.404C40.3475 40.2016 40.3475 48.9992 40.3475 57.7967C40.3475 68.3761 40.3475 78.9555 40.3475 89.5348C40.3475 98.7778 40.3475 107.909 40.3475 117.153C40.3475 120.159 40.3475 123.166 40.3475 126.173C40.3475 127.398 40.2362 128.845 40.3475 130.07C31.4386 130.07 22.5297 130.07 13.5094 130.07C11.0594 130.07 8.49813 130.07 6.04817 130.07C7.05043 126.952 8.16404 123.5 9.27765 120.159ZM26.2046 161.029C25.7592 162.031 25.2024 163.034 24.7569 164.147C19.1888 154.459 13.6207 144.77 8.05267 134.97C7.3845 133.857 6.82771 132.743 6.15954 131.63C13.398 131.63 20.7479 131.63 27.9864 131.63C31.8841 131.63 35.8931 131.63 39.7907 131.63C35.2249 141.541 30.7705 151.341 26.2046 161.029ZM56.6064 161.029C56.0495 162.031 55.6041 163.034 55.0473 163.924C51.1496 154.347 47.252 144.659 43.3543 135.082C42.9089 133.968 42.4634 132.854 42.018 131.63C49.5906 131.63 57.1632 131.63 64.7357 131.63C67.0743 131.63 69.5243 131.63 71.8629 131.63C66.7403 141.541 61.6176 151.341 56.6064 161.029Z" fill="#6D3E1D"/>
<path d="M7.27319 130.961C7.27319 132.075 6.38227 132.966 5.26866 132.966C4.15504 132.966 3.26416 132.075 3.26416 130.961C3.26416 129.848 4.15504 128.957 5.26866 128.957C6.38227 128.845 7.27319 129.736 7.27319 130.961Z" fill="#6D3E1D"/>
<path d="M42.9089 130.961C42.9089 132.075 42.018 132.966 40.9044 132.966C39.7908 132.966 38.8999 132.075 38.8999 130.961C38.8999 129.848 39.7908 128.957 40.9044 128.957C42.018 128.845 42.9089 129.736 42.9089 130.961Z" fill="#6D3E1D"/>
<path d="M74.9811 130.961C74.9811 132.075 74.0903 132.966 72.9766 132.966C71.863 132.966 70.9721 132.075 70.9721 130.961C70.9721 129.848 71.863 128.957 72.9766 128.957C74.0903 128.845 74.9811 129.736 74.9811 130.961Z" fill="#6D3E1D"/>
<path d="M26.8728 165.706C26.8728 166.82 25.9819 167.711 24.8683 167.711C23.7546 167.711 22.8638 166.82 22.8638 165.706C22.8638 164.593 23.7546 163.702 24.8683 163.702C25.9819 163.702 26.8728 164.481 26.8728 165.706Z" fill="#6D3E1D"/>
<path d="M56.9405 165.706C56.9405 166.82 56.0496 167.711 54.936 167.711C53.8223 167.711 52.9315 166.82 52.9315 165.706C52.9315 164.593 53.8223 163.702 54.936 163.702C56.0496 163.702 56.9405 164.481 56.9405 165.706Z" fill="#6D3E1D"/>
<path d="M41.0158 23.1632C42.9224 23.1632 44.468 21.6176 44.468 19.711C44.468 17.8044 42.9224 16.2588 41.0158 16.2588C39.1092 16.2588 37.5636 17.8044 37.5636 19.711C37.5636 21.6176 39.1092 23.1632 41.0158 23.1632Z" fill="#6D3E1D"/>
<path d="M41.7954 19.711C41.7954 14.1429 41.7954 8.57485 41.7954 3.00676C41.7954 2.22723 41.7954 1.4477 41.7954 0.66817C41.7954 -0.222723 40.3477 -0.222723 40.3477 0.66817C40.3477 6.23625 40.3477 11.8043 40.3477 17.3724C40.3477 18.152 40.3477 18.9315 40.3477 19.711C40.3477 20.7133 41.7954 20.7133 41.7954 19.711Z" fill="#6D3E1D"/>
<path d="M83.1203 210.443C90.3233 204.978 93.4805 197.013 90.1721 192.652C86.8638 188.291 78.3426 189.186 71.1397 194.65C63.9367 200.114 60.7795 208.079 64.0879 212.44C67.3963 216.801 75.9174 215.907 83.1203 210.443Z" fill="#8AC27C"/>
<path d="M87.2308 219.717C86.8967 214.037 90.7943 209.249 92.6875 209.026C94.8033 208.914 99.1464 213.146 99.5919 218.826C99.926 224.505 97.476 229.294 94.1352 229.516C90.683 229.739 87.5648 225.396 87.2308 219.717Z" fill="#8AC27C"/>
<path d="M102.042 198.335C99.7032 191.876 102.71 184.86 104.937 184.081C107.387 183.19 113.846 186.865 116.185 193.324C118.523 199.783 117.187 206.13 113.289 207.578C109.28 208.914 104.269 204.794 102.042 198.335Z" fill="#8AC27C"/>
<path d="M129.706 182.222C132.735 179.427 131.403 173.058 126.731 167.995C122.059 162.933 115.817 161.095 112.789 163.889C109.76 166.684 111.093 173.053 115.764 178.116C120.436 183.178 126.678 185.016 129.706 182.222Z" fill="#8AC27C"/>
<path d="M90.4603 168.601C94.1352 165.149 99.7033 165.149 100.928 166.485C102.153 167.822 101.708 173.279 97.9215 176.731C94.2466 180.183 89.5694 181.074 87.4536 178.847C85.4491 176.619 86.7854 172.054 90.4603 168.601Z" fill="#8AC27C"/>
<path d="M103.156 72.7191C97.5874 73.3873 92.6875 69.7124 92.3534 67.8192C92.1307 65.7033 96.1397 61.2489 101.708 60.5807C107.276 59.9125 112.064 62.1398 112.51 65.4806C112.844 68.8215 108.612 72.051 103.156 72.7191Z" fill="#8AC27C"/>
<path d="M85.6717 89.9802C86.1171 86.4166 89.2352 83.8553 90.4602 83.9666C91.7965 84.1894 94.0238 87.4188 93.467 90.9824C93.0215 94.546 90.7943 97.2187 88.6784 96.9959C86.5625 96.7732 85.2262 93.5437 85.6717 89.9802Z" fill="#8AC27C"/>
<path d="M125.025 98.4273C126.22 95.461 123.212 91.454 118.306 89.4774C113.4 87.5008 108.454 88.3031 107.259 91.2694C106.064 94.2357 109.072 98.2427 113.978 100.219C118.884 102.196 123.829 101.394 125.025 98.4273Z" fill="#8AC27C"/>
<path d="M110.06 115.927C107.61 113.255 107.61 109.246 108.501 108.466C109.503 107.575 113.401 107.909 115.851 110.582C118.301 113.255 118.969 116.596 117.41 118.043C115.851 119.491 112.51 118.6 110.06 115.927Z" fill="#8AC27C"/>
<path d="M84.8922 114.257C86.7853 111.139 90.683 110.137 91.6852 110.805C92.7989 111.473 93.467 115.371 91.5739 118.489C89.6807 121.607 86.5626 123.054 84.7808 121.941C82.999 120.827 82.999 117.375 84.8922 114.257Z" fill="#8AC27C"/>
<path d="M111.842 140.427C106.942 138.422 104.38 133.188 105.049 131.407C105.828 129.513 111.173 127.62 116.185 129.625C121.085 131.629 124.091 135.638 122.978 138.645C121.753 141.652 116.853 142.431 111.842 140.427Z" fill="#8AC27C"/>
<path d="M88.3443 149.002C89.792 143.879 94.9146 140.761 96.6964 141.318C98.5896 141.875 101.151 147.109 99.5918 152.343C98.1441 157.465 94.3578 160.918 91.2397 160.027C88.233 159.136 86.8966 154.125 88.3443 149.002Z" fill="#8AC27C"/>
<path d="M71.7515 159.359C73.6446 152.788 80.1036 148.891 82.4422 149.559C84.8921 150.227 88.1216 157.02 86.2285 163.59C84.3353 170.161 79.5468 174.615 75.5378 173.39C71.5287 172.165 69.8583 165.929 71.7515 159.359Z" fill="#8AC27C"/>
<path d="M90.8934 143.398C93.1318 141.668 92.5988 137.228 89.7029 133.481C86.807 129.734 82.6448 128.099 80.4064 129.829C78.1679 131.559 78.7009 135.999 81.5969 139.746C84.4928 143.493 88.655 145.128 90.8934 143.398Z" fill="#8AC27C"/>
<path d="M85.0035 107.13C81.44 106.35 79.2127 103.009 79.4355 101.784C79.7695 100.448 83.2218 98.555 86.674 99.3345C90.2375 100.114 92.6875 102.453 92.242 104.68C91.7966 106.796 88.4558 107.909 85.0035 107.13Z" fill="#8AC27C"/>
<path d="M80.4376 87.6417C77.3195 90.5371 72.7536 90.5371 71.7514 89.4235C70.6378 88.3099 71.1946 83.744 74.2013 80.96C77.3194 78.0646 81.2171 77.285 82.8876 79.1782C84.6693 80.96 83.5557 84.7463 80.4376 87.6417Z" fill="#8AC27C"/>
<path d="M63.6221 104.234C59.613 103.9 56.7177 100.56 56.829 99.2232C56.9404 97.7755 60.504 95.2142 64.4016 95.5483C68.4106 95.8824 71.4174 98.1096 71.1947 100.56C70.972 103.01 67.6311 104.569 63.6221 104.234Z" fill="#8AC27C"/>
<path d="M60.1699 85.303C56.6063 87.0848 52.3745 85.8598 51.7064 84.6348C51.0382 83.2985 52.5973 79.2895 56.2722 77.5077C59.8358 75.7259 63.6221 75.9486 64.7357 78.1759C65.7379 80.2917 63.7334 83.5212 60.1699 85.303Z" fill="#8AC27C"/>
<path d="M23.866 88.6439C27.6523 90.8711 29.1 95.4369 28.3205 96.7733C27.5409 98.221 22.8637 99.1119 19.0774 96.996C15.2911 94.7688 13.2866 91.2052 14.623 88.8666C15.9593 86.528 20.0797 86.4167 23.866 88.6439Z" fill="#8AC27C"/>
<path d="M78.6559 56.6829C74.981 60.9147 68.8561 61.5829 67.4084 60.2465C65.8494 58.9102 65.8493 52.7853 69.5243 48.6649C73.1992 44.4332 78.2105 42.8741 80.7718 45.1013C83.2218 47.2172 82.3309 52.4512 78.6559 56.6829Z" fill="#8AC27C"/>
<path d="M18.2979 66.8169C22.4183 69.1555 23.9773 74.1668 23.1978 75.6145C22.3069 77.1735 17.2956 78.1758 13.0639 75.8372C8.94351 73.4986 6.71628 69.4896 8.16398 67.0396C9.61169 64.5897 14.1775 64.4783 18.2979 66.8169Z" fill="#8AC27C"/>
<path d="M46.9179 70.1578C43.1316 73.0532 37.8976 72.4964 36.8953 71.16C35.7817 69.7123 36.8954 64.701 40.6817 61.8056C44.4679 58.9102 49.0338 58.5761 50.7042 60.8034C52.486 63.0306 50.8155 67.2624 46.9179 70.1578Z" fill="#8AC27C"/>
<path d="M40.2362 55.7922C36.784 60.5807 30.4364 62.0284 28.7659 60.8034C26.9842 59.4671 26.316 53.1195 29.7682 48.3309C33.2204 43.5424 38.3431 41.2038 41.2385 43.3197C44.1339 45.4355 43.6884 51.0036 40.2362 55.7922Z" fill="#8AC27C"/>
<path d="M42.9088 65.1466C38.1202 67.8193 34.4453 73.0533 32.7749 78.1759C31.884 81.0713 31.5499 84.0781 31.5499 87.0848C31.5499 88.0871 33.1089 88.0871 32.9976 87.0848C32.7748 79.4009 35.893 71.8283 42.2406 67.2625C42.686 66.9284 43.1315 66.5943 43.5769 66.3716C44.4678 66.0375 43.6883 64.7012 42.9088 65.1466Z" fill="#72A265"/>
<path d="M15.9593 71.9396C21.416 74.6123 26.0932 79.5122 29.0999 84.6348C30.7703 87.4189 31.884 90.4256 32.5521 93.5438C32.7749 94.4347 34.2226 94.1006 33.9999 93.0983C31.9953 84.1894 26.2045 76.5054 18.5206 71.7169C17.9638 71.3828 17.2956 70.9373 16.7388 70.7146C15.8479 70.2692 15.1797 71.4941 15.9593 71.9396Z" fill="#72A265"/>
<path d="M21.0819 92.8754C25.425 93.8777 29.0999 97.7753 30.8817 101.784C31.9954 104.346 32.4408 107.018 32.5522 109.802C32.5522 110.805 34.1112 110.805 33.9999 109.802C33.7772 105.125 32.5522 100.559 29.5454 96.8844C27.7636 94.7686 25.5364 92.9868 22.975 91.9845C22.4182 91.7618 21.9728 91.5391 21.416 91.4277C20.5251 91.3164 20.0797 92.6527 21.0819 92.8754Z" fill="#72A265"/>
<path d="M77.8765 203.903C84.5582 199.226 91.1285 193.992 96.5852 187.978C98.4784 185.863 100.371 183.635 101.819 181.185C102.265 180.406 101.04 179.626 100.483 180.406C97.8102 184.972 93.9125 188.758 90.0149 192.21C86.5627 195.328 82.9991 198.224 79.3241 200.896C78.5446 201.453 77.7651 202.01 77.0969 202.567C76.4287 203.124 77.0969 204.46 77.8765 203.903Z" fill="#72A265"/>
<path d="M110.839 199.783C109.28 196.665 107.944 193.212 107.053 189.76C105.271 183.635 104.158 176.842 106.385 170.717C106.719 169.827 105.271 169.381 104.937 170.272C102.599 176.508 103.712 183.524 105.494 189.76C106.496 193.435 107.833 197.11 109.614 200.451C110.06 201.342 111.285 200.674 110.839 199.783Z" fill="#72A265"/>
<path d="M93.5784 173.613C99.0351 170.049 103.935 164.481 106.274 158.356C107.276 155.684 107.833 152.788 107.721 149.893C107.721 148.891 106.162 148.891 106.274 149.893C106.608 156.018 103.712 161.697 99.7033 166.152C97.6988 168.379 95.3602 170.606 92.9102 172.276C92.1307 172.833 92.7989 174.17 93.5784 173.613Z" fill="#72A265"/>
<path d="M123.535 176.397C121.419 175.061 119.526 173.056 117.855 171.163C113.289 165.818 110.283 159.359 108.501 152.677C108.278 151.786 106.83 152.12 107.053 153.122C109.503 161.92 114.069 170.829 121.307 176.62C121.753 176.954 122.31 177.399 122.755 177.733C123.646 178.179 124.425 176.842 123.535 176.397Z" fill="#72A265"/>
<path d="M93.9124 154.681C97.8101 147.108 99.4805 137.643 97.3646 129.402C97.1419 128.511 95.6942 128.845 95.9169 129.847C97.9214 137.754 96.3623 146.886 92.576 154.013C92.1306 154.792 93.4669 155.572 93.9124 154.681Z" fill="#72A265"/>
<path d="M118.078 136.307C115.739 135.638 113.401 134.636 111.173 133.523C106.83 131.295 102.599 128.4 99.8145 124.391C98.1441 121.941 97.1418 119.046 97.0305 116.039C97.0305 115.037 95.4714 115.037 95.5828 116.039C95.8055 126.618 105.939 133.3 114.848 136.863C115.739 137.198 116.63 137.532 117.632 137.866C118.523 137.977 118.969 136.641 118.078 136.307Z" fill="#72A265"/>
<path d="M87.1194 117.821C89.0125 116.262 90.5716 114.146 91.9079 112.141C95.4715 107.019 98.0328 101.228 99.7033 95.1029C99.926 94.212 98.4783 93.7666 98.2556 94.6575C96.6965 100.56 94.1352 106.239 90.683 111.25C89.3466 113.144 87.8989 115.037 86.1171 116.596C85.3376 117.375 86.4512 118.489 87.1194 117.821Z" fill="#72A265"/>
<path d="M114.514 114.368C112.064 112.364 110.06 109.914 108.167 107.353C103.49 101.005 100.26 93.7666 98.4782 86.194C98.2555 85.3031 96.8078 85.6372 97.0305 86.6394C98.8123 94.3234 102.153 101.785 106.83 108.132C108.723 110.694 110.839 113.366 113.401 115.371C114.18 115.928 115.183 114.925 114.514 114.368Z" fill="#72A265"/>
<path d="M90.5716 91.2051C90.9057 88.3097 90.7943 85.3029 90.4602 82.4075C89.7921 76.8394 87.8989 71.3827 84.0013 67.2623C83.3331 66.5942 82.3309 67.5964 82.999 68.2646C88.4558 74.1668 90.1262 83.4098 89.1239 91.2051C89.0126 92.2074 90.4603 92.2074 90.5716 91.2051Z" fill="#72A265"/>
<path d="M116.407 94.2119C110.394 91.9846 104.38 88.5324 99.7032 84.078C97.6987 82.1848 95.8056 80.0689 94.4692 77.619C94.0238 76.8395 92.6874 77.5076 93.1329 78.3985C97.476 86.0825 105.828 91.3165 113.735 94.7687C114.514 95.1028 115.182 95.4369 115.962 95.6596C116.964 95.9937 117.298 94.546 116.407 94.2119Z" fill="#72A265"/>
<path d="M76.54 65.3691C80.3263 66.7054 84.224 67.8191 88.1216 68.4872C93.467 69.4895 100.483 70.4917 105.383 67.2623C106.162 66.7054 105.383 65.4805 104.603 65.9259C99.8146 69.044 92.7988 67.9304 87.5648 66.8168C84.0012 66.0373 80.3263 65.1464 76.8741 63.81C75.9832 63.5873 75.6491 65.035 76.54 65.3691Z" fill="#72A265"/>
<path d="M72.9765 51.8945C72.8651 52.8968 72.4196 53.5649 71.8628 54.4558C70.4151 56.9058 68.1879 59.0217 65.8493 60.6921C63.622 62.3625 61.1721 63.6989 58.7221 64.9238C57.8312 65.3693 58.6108 66.5943 59.5017 66.2602C63.5107 64.367 67.4083 61.9171 70.4151 58.7989C71.8628 57.2399 73.3105 55.4581 74.0901 53.4536C74.2014 53.1195 74.3128 52.7854 74.4241 52.4513C74.5355 51.3377 73.0878 50.8923 72.9765 51.8945Z" fill="#72A265"/>
<path d="M58.8335 79.9576C56.6063 80.9599 54.6018 82.1849 52.5973 83.5212C48.4769 86.4166 44.6906 89.9802 42.0179 94.2119C40.2361 96.996 39.0111 100.114 38.343 103.344C38.1203 104.234 39.5679 104.68 39.7907 103.789C41.5725 94.2119 49.1451 86.8621 57.3858 82.2962C58.054 81.9621 58.8335 81.5167 59.5017 81.1826C60.3926 80.8485 59.613 79.5122 58.8335 79.9576Z" fill="#72A265"/>
<path d="M87.3421 137.754C85.3376 135.861 83.5558 133.745 81.9967 131.629C79.1013 127.732 76.3173 123.055 75.7605 118.043C75.6491 117.152 74.2014 117.041 74.3127 118.043C74.7582 123.277 77.5422 127.954 80.549 132.186C82.3308 134.525 84.224 136.863 86.3398 138.868C86.8966 139.536 88.0102 138.422 87.3421 137.754Z" fill="#72A265"/>
<path d="M48.811 105.682C49.7019 104.235 51.0382 102.898 52.3746 101.896C55.7154 99.446 59.7244 98.7778 63.7334 99.6687C64.6243 99.8914 65.0698 98.4437 64.1789 98.221C60.6153 97.4415 57.0517 97.6642 53.8222 99.3346C51.7064 100.337 49.9246 101.896 48.4769 103.789C48.1428 104.235 47.8087 104.569 47.586 105.014C47.0292 105.682 48.3655 106.462 48.811 105.682Z" fill="#72A265"/>
<path d="M62.6198 92.3189C64.0675 92.2076 65.5152 91.9848 66.9629 91.6508C69.5242 91.0939 72.1969 90.3144 74.4242 88.8667C75.6492 88.0872 76.6514 87.0849 77.3196 85.8599C77.765 84.969 76.4287 84.3009 75.9832 85.0804C74.8696 87.1963 72.531 88.3099 70.4151 89.0894C68.2993 89.869 66.0721 90.3144 63.9562 90.6485C63.5107 90.7599 63.1766 90.7599 62.6198 90.7599C61.7289 90.8712 61.7289 92.4303 62.6198 92.3189Z" fill="#72A265"/>
<path d="M73.0878 96.1051C73.756 97.1074 74.5355 98.1096 75.3151 99.0005C76.8741 100.782 78.7673 102.453 80.9945 103.344C82.3309 103.9 83.7786 104.235 85.2263 104.235C86.2286 104.235 86.2286 102.675 85.2263 102.787C80.9946 103.01 77.3196 99.446 75.0924 96.3278C74.8697 95.9937 74.6469 95.6597 74.4242 95.3256C73.8674 94.546 72.531 95.3256 73.0878 96.1051Z" fill="#72A265"/>
<path d="M31.4387 86.4166C32.775 92.0961 33.1091 98.1096 32.9977 104.012C32.8864 107.241 32.6636 110.471 32.1068 113.7H33.5545C35.0022 106.016 34.7795 97.7755 33.6659 90.0915C32.4409 82.4076 28.2092 74.9464 28.766 66.9283C29.2114 61.0261 32.4409 55.7922 36.2272 51.449C36.8954 50.6695 35.7818 49.6673 35.2249 50.4468C31.8841 54.3445 28.8774 58.7989 27.7637 63.9216C26.9842 67.7079 27.3183 71.4941 28.2092 75.1691C29.1001 78.844 30.4364 82.6303 31.4387 86.4166Z" fill="#72A265"/>
<path d="M109.169 157.354C108.946 152.677 107.387 148.222 105.271 143.991C103.267 139.982 100.706 136.195 98.7011 132.186C97.8102 130.516 97.0307 128.734 96.6966 126.841C96.3625 124.836 96.3625 122.832 96.5852 120.939C97.3648 111.25 100.594 101.784 99.7033 91.8733C98.8125 83.0757 93.9125 74.835 87.0081 69.3783C79.5469 63.3647 69.8584 61.1375 60.7268 64.1443C53.1542 66.7056 47.5861 72.0509 44.0225 79.1781C39.1226 89.2006 37.7863 102.453 38.2317 113.477C38.2317 113.589 38.2317 113.7 38.2317 113.7H39.6794C39.1226 104.569 40.1248 93.6551 43.1316 84.9689C45.3588 78.2872 49.1451 71.8282 55.3814 68.1533C64.0676 62.9193 74.647 63.0306 83.2218 68.4874C90.683 73.2759 96.5852 81.5167 97.9215 90.3142C99.3692 99.8913 96.3625 109.468 95.2489 118.934C94.8034 122.386 94.5807 126.284 95.917 129.625C97.4761 133.411 99.8147 136.975 101.819 140.538C104.046 144.547 106.162 148.668 107.165 153.234C108.167 157.799 107.721 162.477 106.274 166.931C103.601 175.172 99.3692 182.744 96.2511 190.762C92.9102 199.449 90.349 208.803 91.7967 218.157C92.1307 220.496 92.6876 222.723 93.5785 224.839C93.9125 225.73 95.3602 225.396 95.0261 224.394C87.899 205.462 100.372 186.753 106.942 169.604C108.278 165.817 109.392 161.697 109.169 157.354Z" fill="#72A265"/>
<path d="M82.5536 147.22C81.5513 143.211 79.2127 139.647 77.2082 136.084C75.4264 132.966 75.3151 129.291 75.3151 125.727C75.3151 121.495 75.6492 117.264 76.0946 113.032C76.7628 106.462 78.0991 99.0003 72.9765 93.7663C67.0743 87.7528 57.2745 91.3163 52.4859 96.8844C49.0337 100.893 45.5815 108.132 44.0225 113.811H45.5815C46.9179 109.468 49.3678 104.012 51.4837 100.782C53.3768 97.7753 56.0495 94.9913 59.3904 93.5436C63.1767 91.8731 67.9652 91.5391 71.3061 94.3231C76.7628 98.7776 75.3151 106.462 74.7583 112.586C74.3128 116.484 73.9787 120.382 73.9787 124.391C73.8674 127.732 73.8674 131.295 74.8696 134.636C75.9832 138.311 78.7673 141.54 80.215 145.104C82.4422 150.561 81.9968 156.129 79.4355 161.474C78.99 162.365 80.3264 163.033 80.7718 162.254C82.8877 157.242 83.8899 152.231 82.5536 147.22Z" fill="#72A265"/>
</svg>
