<svg width="292" height="344" viewBox="0 0 292 344" fill="none" xmlns="http://www.w3.org/2000/svg">
<g filter="url(#filter0_d_2_330)">
<rect x="39.7299" y="60.6147" width="168.875" height="187.662" rx="35" fill="white"/>
</g>
<path d="M162.428 207.421C162.428 209.195 145.679 210.615 124.955 210.615C104.231 210.615 87.4816 209.195 87.4816 207.421C87.4816 205.646 104.231 204.227 124.955 204.227C145.679 204.227 162.428 205.646 162.428 207.421Z" fill="#F4F2ED"/>
<path d="M84.8608 78.1662C84.8608 78.1662 71.1421 76.2955 73.7611 73.3023C76.3801 70.3091 83.2395 75.2978 83.2395 75.2978C83.2395 75.2978 75.7565 68.189 78.1261 65.9441C80.4957 63.6992 85.4844 73.1776 85.4844 73.1776C85.4844 73.1776 84.1125 64.1981 87.3551 64.6969C90.5977 65.0711 90.2236 76.5449 88.3528 77.2932C86.3574 78.1662 84.8608 78.1662 84.8608 78.1662Z" fill="#E8A0A2"/>
<path d="M104.815 104.856L100.45 106.976C100.45 106.976 89.5999 105.978 82.8652 98.6199C77.5025 92.6336 76.1306 82.4069 85.7337 77.0441C95.3368 71.6813 103.443 72.8038 107.684 84.4023C111.55 95.0032 108.432 103.11 108.432 103.11L104.815 104.856Z" fill="#399648"/>
<path d="M86.981 76.4197C95.5864 72.4288 102.695 74.1748 106.686 85.0251C110.552 95.626 107.434 103.732 107.434 103.732L108.682 103.109C108.682 103.109 111.799 95.0024 107.933 84.4015C103.693 73.1771 96.0852 71.6805 86.981 76.4197Z" fill="#497E44"/>
<path d="M84.3618 82.6567C84.7359 83.5298 84.7359 84.4028 84.3618 84.6522C83.9876 84.9016 83.2393 84.2781 82.8652 83.405C82.491 82.532 82.491 81.659 82.8652 81.4096C83.2393 81.2849 83.8629 81.7837 84.3618 82.6567Z" fill="#B1D8B0"/>
<path d="M82.2417 88.3933C82.6159 89.2663 82.6159 90.1393 82.2417 90.3888C81.8676 90.6382 81.1193 90.0146 80.7451 89.1416C80.371 88.2686 80.371 87.3956 80.7451 87.1462C81.244 87.0214 81.8676 87.5203 82.2417 88.3933Z" fill="#B1D8B0"/>
<path d="M87.854 87.6453C88.2281 88.5183 88.2281 89.3913 87.854 89.6407C87.4798 89.8902 86.7315 89.2666 86.3574 88.3936C85.9832 87.5206 85.9832 86.6475 86.3574 86.3981C86.7315 86.2734 87.4798 86.7723 87.854 87.6453Z" fill="#B1D8B0"/>
<path d="M91.0965 81.1599C91.4706 82.0329 91.4706 82.906 91.0965 83.1554C90.7223 83.4048 89.974 82.7812 89.5999 81.9082C89.2257 81.0352 89.2257 80.1622 89.5999 79.9128C89.974 79.788 90.7223 80.2869 91.0965 81.1599Z" fill="#B1D8B0"/>
<path d="M94.0898 87.2709C94.4639 88.1439 94.4639 89.0169 94.0898 89.2663C93.7156 89.5158 92.9673 88.8922 92.5932 88.0192C92.219 87.1462 92.219 86.2732 92.5932 86.0237C92.9673 85.899 93.5909 86.3979 94.0898 87.2709Z" fill="#B1D8B0"/>
<path d="M95.4616 77.5432C95.8357 78.4162 95.8357 79.2892 95.4616 79.5386C95.0874 79.7881 94.3391 79.1645 93.965 78.2915C93.5908 77.4185 93.5908 76.5455 93.965 76.296C94.3391 76.0466 95.0874 76.6702 95.4616 77.5432Z" fill="#B1D8B0"/>
<path d="M98.5795 83.1554C98.9537 84.0284 98.9537 84.9014 98.5795 85.1508C98.2054 85.4002 97.4571 84.7767 97.0829 83.9037C96.7088 83.0306 96.7088 82.1576 97.0829 81.9082C97.5818 81.6588 98.2054 82.2824 98.5795 83.1554Z" fill="#B1D8B0"/>
<path d="M101.074 77.9176C101.448 78.7906 101.448 79.6636 101.074 79.9131C100.7 80.1625 99.9513 79.5389 99.5772 78.6659C99.203 77.7929 99.203 76.9199 99.5772 76.6705C99.9513 76.5457 100.7 77.0446 101.074 77.9176Z" fill="#B1D8B0"/>
<path d="M104.192 83.0304C104.566 83.9034 104.566 84.7764 104.192 85.0258C103.818 85.2753 103.069 84.6517 102.695 83.7787C102.321 82.9057 102.321 82.0326 102.695 81.7832C103.069 81.5338 103.818 82.1574 104.192 83.0304Z" fill="#B1D8B0"/>
<path d="M107.684 95.2523C108.058 96.1253 108.058 96.9983 107.684 97.2478C107.31 97.4972 106.561 96.8736 106.187 96.0006C105.813 95.1276 105.813 94.2546 106.187 94.0052C106.561 93.8805 107.31 94.3793 107.684 95.2523Z" fill="#B1D8B0"/>
<path d="M83.9877 95.1286C84.3619 96.0016 84.3619 96.8746 83.9877 97.1241C83.6136 97.3735 82.8653 96.7499 82.4912 95.8769C82.117 95.0039 82.117 94.1309 82.4912 93.8815C82.8653 93.632 83.6136 94.2556 83.9877 95.1286Z" fill="#B1D8B0"/>
<path d="M89.7246 93.3818C90.0988 94.2549 90.0988 95.1279 89.7246 95.3773C89.3505 95.6267 88.6022 95.0031 88.2281 94.1301C87.8539 93.2571 87.8539 92.3841 88.2281 92.1347C88.6022 92.01 89.2258 92.5088 89.7246 93.3818Z" fill="#B1D8B0"/>
<path d="M89.3504 100.491C89.7246 101.364 89.7246 102.237 89.3504 102.486C88.9763 102.736 88.228 102.112 87.8539 101.239C87.4797 100.366 87.4797 99.4931 87.8539 99.2437C88.228 98.9942 88.9763 99.6178 89.3504 100.491Z" fill="#B1D8B0"/>
<path d="M93.3415 97.1235C93.7157 97.9966 93.7157 98.8696 93.3415 99.119C92.9674 99.3684 92.2191 98.7448 91.8449 97.8718C91.4708 96.9988 91.4708 96.1258 91.8449 95.8764C92.3438 95.7517 92.9674 96.2505 93.3415 97.1235Z" fill="#B1D8B0"/>
<path d="M97.3324 91.3869C97.7066 92.2599 97.7066 93.133 97.3324 93.3824C96.9583 93.6318 96.21 93.0082 95.8358 92.1352C95.4617 91.2622 95.4617 90.3892 95.8358 90.1398C96.21 89.8903 96.8335 90.5139 97.3324 91.3869Z" fill="#B1D8B0"/>
<path d="M101.947 89.8901C102.321 90.7632 102.321 91.6362 101.947 91.8856C101.573 92.135 100.824 91.5115 100.45 90.6384C100.076 89.7654 100.076 88.8924 100.45 88.643C100.824 88.5183 101.448 89.0171 101.947 89.8901Z" fill="#B1D8B0"/>
<path d="M98.8291 98.9946C99.2032 99.8676 99.2032 100.741 98.8291 100.99C98.4549 101.239 97.7066 100.616 97.3325 99.7429C96.9583 98.8699 96.9583 97.9969 97.3325 97.7474C97.7066 97.498 98.3302 98.1216 98.8291 98.9946Z" fill="#B1D8B0"/>
<path d="M107.434 89.7651C107.808 90.6381 107.808 91.5111 107.434 91.7606C107.06 92.01 106.312 91.3864 105.938 90.5134C105.564 89.6404 105.564 88.7674 105.938 88.5179C106.312 88.2685 107.06 88.8921 107.434 89.7651Z" fill="#B1D8B0"/>
<path d="M103.693 97.3728C104.067 98.2458 104.067 99.1188 103.693 99.3683C103.319 99.6177 102.57 98.9941 102.196 98.1211C101.822 97.2481 101.822 96.3751 102.196 96.1257C102.57 96.0009 103.319 96.4998 103.693 97.3728Z" fill="#B1D8B0"/>
<path d="M103.319 102.486C103.693 103.359 103.693 104.232 103.319 104.482C102.945 104.731 102.196 104.108 101.822 103.235C101.448 102.362 101.448 101.489 101.822 101.239C102.196 100.99 102.82 101.613 103.319 102.486Z" fill="#B1D8B0"/>
<path d="M96.0851 102.611C96.4593 103.484 96.4593 104.357 96.0851 104.607C95.711 104.856 94.9627 104.233 94.5885 103.36C94.2144 102.487 94.2144 101.614 94.5885 101.364C94.9627 101.239 95.5863 101.738 96.0851 102.611Z" fill="#B1D8B0"/>
<path d="M106.312 17.8036C106.312 17.8036 88.4775 16.9306 91.4707 12.815C94.3391 8.69936 103.942 14.3116 103.942 14.3116C103.942 14.3116 93.5909 5.95562 96.4593 2.83772C99.3278 -0.280171 106.811 11.4431 106.811 11.4431C106.811 11.4431 104.067 0.093976 108.183 0.343408C112.298 0.468123 113.171 15.1846 110.802 16.5565C108.307 17.6789 106.312 17.8036 106.312 17.8036Z" fill="#E8A0A2"/>
<path d="M134.872 49.9802L129.509 53.0981C129.509 53.0981 115.416 52.9734 106.062 44.2433C98.4548 37.1345 95.5864 24.0393 107.434 16.1822C119.282 8.20042 129.634 8.69928 136.493 23.291C142.729 36.5109 139.486 47.2365 139.486 47.2365L134.872 49.9802Z" fill="#399648"/>
<path d="M108.806 15.3097C119.407 9.32329 128.761 10.8199 134.996 24.1645C141.232 37.3843 137.99 48.1099 137.99 48.1099L139.486 47.2369C139.486 47.2369 142.604 36.3866 136.493 23.2915C130.008 9.32329 120.03 8.32557 108.806 15.3097Z" fill="#497E44"/>
<path d="M106.187 23.665C106.811 24.7874 106.935 25.9099 106.437 26.1593C105.938 26.4087 104.94 25.9099 104.316 24.7874C103.693 23.665 103.568 22.5425 104.067 22.2931C104.566 21.919 105.564 22.5425 106.187 23.665Z" fill="#B1D8B0"/>
<path d="M104.192 31.2725C104.815 32.3949 104.94 33.5173 104.441 33.7668C103.942 34.0162 102.945 33.5173 102.321 32.3949C101.697 31.2725 101.573 30.15 102.071 29.9006C102.57 29.6512 103.568 30.2747 104.192 31.2725Z" fill="#B1D8B0"/>
<path d="M111.3 29.6512C111.924 30.7737 112.049 31.8961 111.55 32.1456C111.051 32.395 110.053 31.8961 109.43 30.7737C108.806 29.6512 108.681 28.5288 109.18 28.2794C109.679 28.0299 110.677 28.6535 111.3 29.6512Z" fill="#B1D8B0"/>
<path d="M114.668 20.921C115.291 22.0435 115.416 23.1659 114.917 23.4153C114.418 23.6648 113.421 23.1659 112.797 22.0435C112.174 20.921 112.049 19.7986 112.548 19.5491C113.171 19.2997 114.044 19.9233 114.668 20.921Z" fill="#B1D8B0"/>
<path d="M119.158 28.5292C119.781 29.6517 119.906 30.7741 119.407 31.0235C118.908 31.273 117.91 30.7741 117.287 29.6517C116.663 28.5292 116.539 27.4068 117.037 27.1574C117.661 26.7832 118.534 27.4068 119.158 28.5292Z" fill="#B1D8B0"/>
<path d="M119.906 15.8079C120.529 16.9304 120.654 18.0528 120.155 18.3022C119.656 18.5517 118.659 18.0528 118.035 16.9304C117.412 15.8079 117.287 14.6855 117.786 14.436C118.409 14.0619 119.282 14.6855 119.906 15.8079Z" fill="#B1D8B0"/>
<path d="M124.645 22.6669C125.269 23.7894 125.393 24.9118 124.895 25.1612C124.396 25.4107 123.398 24.9118 122.774 23.7894C122.151 22.6669 122.026 21.5445 122.525 21.2951C123.024 20.9209 124.022 21.5445 124.645 22.6669Z" fill="#B1D8B0"/>
<path d="M127.264 15.8079C127.888 16.9304 128.012 18.0528 127.514 18.3022C127.015 18.5517 126.017 18.0528 125.393 16.9304C124.77 15.8079 124.645 14.6855 125.144 14.436C125.643 14.0619 126.516 14.6855 127.264 15.8079Z" fill="#B1D8B0"/>
<path d="M131.754 21.919C132.377 23.0414 132.502 24.1638 132.003 24.4133C131.504 24.6627 130.507 24.1638 129.883 23.0414C129.26 21.919 129.135 20.7965 129.634 20.5471C130.133 20.2976 131.13 20.7965 131.754 21.919Z" fill="#B1D8B0"/>
<path d="M137.616 37.2593C138.239 38.3818 138.364 39.5042 137.865 39.7536C137.366 40.0031 136.368 39.5042 135.745 38.3818C135.121 37.2593 134.997 36.1369 135.495 35.8875C135.994 35.5133 136.992 36.1369 137.616 37.2593Z" fill="#B1D8B0"/>
<path d="M107.185 39.6283C107.809 40.7507 107.933 41.8732 107.434 42.1226C106.936 42.372 105.938 41.8732 105.314 40.7507C104.691 39.6283 104.566 38.5058 105.065 38.2564C105.564 38.007 106.437 38.6306 107.185 39.6283Z" fill="#B1D8B0"/>
<path d="M114.294 36.8851C114.917 38.0075 115.042 39.1299 114.543 39.3794C114.044 39.6288 113.047 39.13 112.423 38.0075C111.799 36.8851 111.675 35.7626 112.173 35.5132C112.672 35.139 113.545 35.7626 114.294 36.8851Z" fill="#B1D8B0"/>
<path d="M114.543 45.9896C115.167 47.112 115.291 48.2344 114.793 48.4839C114.294 48.7333 113.296 48.2344 112.672 47.112C112.049 45.9896 111.924 44.8671 112.423 44.6177C113.047 44.2435 113.92 44.8671 114.543 45.9896Z" fill="#B1D8B0"/>
<path d="M119.407 41.2498C120.031 42.3723 120.155 43.4947 119.656 43.7441C119.158 43.9936 118.16 43.4947 117.536 42.3723C116.913 41.2498 116.788 40.1274 117.287 39.8779C117.786 39.5038 118.783 40.1274 119.407 41.2498Z" fill="#B1D8B0"/>
<path d="M123.772 33.3928C124.396 34.5153 124.52 35.6377 124.022 35.8871C123.523 36.1366 122.525 35.6377 121.901 34.5153C121.278 33.3928 121.153 32.2704 121.652 32.021C122.276 31.7715 123.149 32.2704 123.772 33.3928Z" fill="#B1D8B0"/>
<path d="M129.634 31.0235C130.257 32.1459 130.382 33.2684 129.883 33.5178C129.384 33.7672 128.387 33.2684 127.763 32.1459C127.139 31.0235 127.015 29.9011 127.514 29.6516C128.012 29.2775 128.885 29.901 129.634 31.0235Z" fill="#B1D8B0"/>
<path d="M126.516 42.9962C127.139 44.1187 127.264 45.2411 126.765 45.4905C126.266 45.74 125.269 45.2411 124.645 44.1187C124.022 42.9962 123.897 41.8738 124.396 41.6243C124.895 41.3749 125.892 41.9985 126.516 42.9962Z" fill="#B1D8B0"/>
<path d="M136.743 30.15C137.366 31.2725 137.491 32.3949 136.992 32.6443C136.493 32.8938 135.495 32.3949 134.872 31.2725C134.248 30.15 134.124 29.0276 134.622 28.7781C135.121 28.5287 136.119 29.1523 136.743 30.15Z" fill="#B1D8B0"/>
<path d="M132.752 40.3769C133.375 41.4994 133.5 42.6218 133.001 42.8713C132.502 43.1207 131.505 42.6218 130.881 41.4994C130.257 40.3769 130.133 39.2545 130.632 39.0051C131.13 38.7556 132.003 39.3792 132.752 40.3769Z" fill="#B1D8B0"/>
<path d="M132.752 46.9867C133.375 48.1091 133.5 49.2316 133.001 49.481C132.502 49.7304 131.505 49.2316 130.881 48.1091C130.257 46.9867 130.133 45.8642 130.632 45.6148C131.13 45.3654 132.003 45.989 132.752 46.9867Z" fill="#B1D8B0"/>
<path d="M123.398 47.9846C124.022 49.1071 124.146 50.2295 123.648 50.4789C123.149 50.7284 122.151 50.2295 121.527 49.1071C120.904 47.9846 120.779 46.8622 121.278 46.6128C121.777 46.3633 122.774 46.8622 123.398 47.9846Z" fill="#B1D8B0"/>
<path d="M132.502 102.111L125.144 97.6212C125.144 97.6212 116.04 80.161 120.654 62.7008C124.396 48.6079 138.613 36.5105 156.323 45.8642C173.908 55.3426 180.144 68.5625 166.55 86.5215C154.328 102.859 138.863 105.977 138.863 105.977L132.502 102.111Z" fill="#399648"/>
<path d="M158.194 47.1108C172.661 56.3398 176.901 68.8114 164.554 85.3986C152.332 101.736 136.867 104.854 136.867 104.854L138.863 106.101C138.863 106.101 154.327 102.859 166.55 86.6457C179.52 69.1855 174.282 56.3398 158.194 47.1108Z" fill="#497E44"/>
<path d="M140.484 48.8577C139.86 49.9802 138.863 50.6037 138.364 50.2296C137.865 49.8555 137.99 48.733 138.613 47.7353C139.237 46.6128 140.234 45.9893 140.733 46.3634C141.232 46.6128 141.107 47.7353 140.484 48.8577Z" fill="#B1D8B0"/>
<path d="M145.473 53.9706C144.849 55.0931 143.851 55.7167 143.352 55.3425C142.854 54.9684 142.978 53.8459 143.602 52.8482C144.225 51.7258 145.223 51.1022 145.722 51.4763C146.221 51.7258 146.096 52.8482 145.473 53.9706Z" fill="#B1D8B0"/>
<path d="M132.128 53.2226C131.504 54.345 130.507 54.9686 130.008 54.5945C129.509 54.2203 129.634 53.0979 130.257 52.1002C130.881 50.9777 131.879 50.3541 132.378 50.7283C132.876 50.9777 132.752 52.1002 132.128 53.2226Z" fill="#B1D8B0"/>
<path d="M137.74 57.5873C137.117 58.7098 136.119 59.3334 135.62 58.9592C135.121 58.5851 135.246 57.4626 135.87 56.4649C136.493 55.3425 137.491 54.7189 137.99 55.093C138.489 55.3425 138.489 56.4649 137.74 57.5873Z" fill="#B1D8B0"/>
<path d="M150.337 48.1091C149.713 49.2315 148.715 49.8551 148.216 49.481C147.718 49.1068 147.842 47.9844 148.466 46.9866C149.089 45.9889 150.087 45.2406 150.586 45.6148C151.085 45.9889 150.96 47.1113 150.337 48.1091Z" fill="#B1D8B0"/>
<path d="M142.604 63.0753C141.981 64.1977 140.983 64.8213 140.484 64.4471C139.985 64.073 140.11 62.9505 140.734 61.9528C141.357 60.8304 142.355 60.2068 142.854 60.5809C143.353 60.8304 143.228 61.9528 142.604 63.0753Z" fill="#B1D8B0"/>
<path d="M154.078 53.8463C153.454 54.9687 152.457 55.5923 151.958 55.2181C151.459 54.844 151.584 53.7215 152.207 52.7238C152.831 51.6014 153.829 50.9778 154.327 51.3519C154.826 51.7261 154.826 52.8485 154.078 53.8463Z" fill="#B1D8B0"/>
<path d="M160.813 54.5943C160.189 55.7167 159.191 56.3403 158.693 55.9662C158.194 55.592 158.318 54.4696 158.942 53.4719C159.566 52.3494 160.563 51.7258 161.062 52.1C161.561 52.3494 161.561 53.4719 160.813 54.5943Z" fill="#B1D8B0"/>
<path d="M151.958 61.9527C151.334 63.0751 150.337 63.6987 149.838 63.3246C149.339 62.9504 149.464 61.828 150.087 60.8303C150.711 59.7078 151.708 59.0842 152.207 59.4584C152.706 59.8325 152.706 60.955 151.958 61.9527Z" fill="#B1D8B0"/>
<path d="M166.3 60.4559C165.677 61.5783 164.679 62.2019 164.18 61.8277C163.681 61.4536 163.806 60.3312 164.43 59.3334C165.053 58.211 166.051 57.5874 166.55 57.9616C167.049 58.3357 166.924 59.4581 166.3 60.4559Z" fill="#B1D8B0"/>
<path d="M147.343 69.5605C146.72 70.6829 145.722 71.3065 145.223 70.9324C144.724 70.5582 144.849 69.4358 145.473 68.438C146.096 67.3156 147.094 66.692 147.593 67.0662C148.092 67.4403 148.092 68.5628 147.343 69.5605Z" fill="#B1D8B0"/>
<path d="M159.067 64.197C158.443 65.3194 157.445 65.943 156.947 65.5688C156.448 65.1947 156.572 64.0722 157.196 63.0745C157.82 61.9521 158.817 61.3285 159.316 61.7026C159.815 62.0768 159.815 63.1992 159.067 64.197Z" fill="#B1D8B0"/>
<path d="M155.201 71.6804C154.577 72.8028 153.579 73.4264 153.08 73.0522C152.582 72.6781 152.706 71.5556 153.33 70.5579C153.953 69.4355 154.951 68.8119 155.45 69.186C155.949 69.4355 155.824 70.5579 155.201 71.6804Z" fill="#B1D8B0"/>
<path d="M164.928 69.8091C164.305 70.9316 163.307 71.5552 162.808 71.181C162.309 70.8069 162.434 69.6844 163.058 68.6867C163.681 67.5643 164.679 66.9407 165.178 67.3148C165.677 67.689 165.552 68.8114 164.928 69.8091Z" fill="#B1D8B0"/>
<path d="M171.538 69.8091C170.915 70.9316 169.917 71.5552 169.418 71.181C168.919 70.8069 169.044 69.6844 169.667 68.6867C170.291 67.5643 171.289 66.9407 171.788 67.3148C172.286 67.5643 172.286 68.6867 171.538 69.8091Z" fill="#B1D8B0"/>
<path d="M159.316 77.6669C158.693 78.7894 157.695 79.413 157.196 79.0388C156.697 78.6647 156.822 77.5422 157.446 76.5445C158.069 75.422 159.067 74.7985 159.566 75.1726C160.065 75.5468 159.94 76.6692 159.316 77.6669Z" fill="#B1D8B0"/>
<path d="M168.046 77.6669C167.423 78.7894 166.425 79.413 165.926 79.0388C165.427 78.6647 165.552 77.5422 166.176 76.5445C166.799 75.422 167.797 74.7985 168.296 75.1726C168.795 75.422 168.795 76.5445 168.046 77.6669Z" fill="#B1D8B0"/>
<path d="M163.681 85.0247C163.058 86.1472 162.06 86.7707 161.561 86.3966C161.062 86.0224 161.187 84.9 161.81 83.9023C162.434 82.7798 163.432 82.1563 163.931 82.5304C164.43 82.7798 164.305 83.9023 163.681 85.0247Z" fill="#B1D8B0"/>
<path d="M127.264 59.0842C126.641 60.2066 125.643 60.8302 125.144 60.456C124.645 60.0819 124.77 58.9595 125.393 57.9617C126.017 56.8393 127.015 56.2157 127.514 56.5899C128.012 56.964 127.888 58.0864 127.264 59.0842Z" fill="#B1D8B0"/>
<path d="M131.754 64.197C131.13 65.3194 130.133 65.943 129.634 65.5688C129.135 65.1947 129.26 64.0722 129.883 63.0745C130.507 61.9521 131.504 61.3285 132.003 61.7026C132.502 61.9521 132.377 63.0745 131.754 64.197Z" fill="#B1D8B0"/>
<path d="M125.019 68.3131C124.396 69.4355 123.398 70.0591 122.899 69.6849C122.4 69.3108 122.525 68.1883 123.149 67.1906C123.772 66.0682 124.77 65.4446 125.269 65.8187C125.768 66.0682 125.643 67.1906 125.019 68.3131Z" fill="#B1D8B0"/>
<path d="M137.616 69.1861C136.992 70.3085 135.994 70.9321 135.495 70.558C134.997 70.1838 135.121 69.0614 135.745 68.0637C136.368 66.9412 137.366 66.3176 137.865 66.6918C138.364 67.0659 138.239 68.0637 137.616 69.1861Z" fill="#B1D8B0"/>
<path d="M129.634 73.8002C129.01 74.9227 128.012 75.5463 127.513 75.1721C127.015 74.798 127.139 73.6755 127.763 72.6778C128.387 71.5553 129.384 70.9318 129.883 71.3059C130.382 71.5553 130.257 72.6778 129.634 73.8002Z" fill="#B1D8B0"/>
<path d="M125.144 81.1586C124.52 82.2811 123.523 82.9047 123.024 82.5305C122.525 82.1564 122.65 81.0339 123.273 80.0362C123.897 78.9138 124.895 78.2902 125.393 78.6643C125.892 78.9137 125.768 80.0362 125.144 81.1586Z" fill="#B1D8B0"/>
<path d="M136.119 75.7958C135.495 76.9183 134.498 77.5419 133.999 77.1677C133.5 76.7936 133.624 75.6711 134.248 74.6734C134.872 73.551 135.869 72.9274 136.368 73.3015C136.867 73.6757 136.742 74.7981 136.119 75.7958Z" fill="#B1D8B0"/>
<path d="M145.223 76.0451C144.6 77.1675 143.602 77.7911 143.103 77.417C142.604 77.0428 142.729 75.9204 143.352 74.9227C143.976 73.8002 144.974 73.1766 145.473 73.5508C145.972 73.8002 145.847 74.9227 145.223 76.0451Z" fill="#B1D8B0"/>
<path d="M150.087 80.0362C149.464 81.1586 148.466 81.7822 147.967 81.4081C147.468 81.0339 147.593 79.9115 148.216 78.9138C148.84 77.7913 149.838 77.1677 150.337 77.5419C150.835 77.7913 150.711 78.9138 150.087 80.0362Z" fill="#B1D8B0"/>
<path d="M137.99 83.0291C137.366 84.1516 136.368 84.7751 135.869 84.401C135.371 84.0268 135.495 82.9044 136.119 81.9067C136.743 80.7842 137.74 80.1607 138.239 80.5348C138.738 80.7842 138.613 81.9067 137.99 83.0291Z" fill="#B1D8B0"/>
<path d="M154.203 86.0228C153.579 87.1452 152.581 87.7688 152.083 87.3946C151.584 87.0205 151.708 85.898 152.332 84.9003C152.956 83.7779 153.953 83.1543 154.452 83.5285C154.951 83.9026 154.826 84.9003 154.203 86.0228Z" fill="#B1D8B0"/>
<path d="M143.228 87.2696C142.604 88.392 141.607 89.0156 141.108 88.6415C140.609 88.2673 140.734 87.1449 141.357 86.1471C141.981 85.0247 142.978 84.4011 143.477 84.7753C143.976 85.1494 143.851 86.2719 143.228 87.2696Z" fill="#B1D8B0"/>
<path d="M156.697 92.2581C156.073 93.3806 155.076 94.0041 154.577 93.63C154.078 93.2558 154.203 92.1334 154.826 91.1357C155.45 90.0132 156.448 89.3897 156.946 89.7638C157.445 90.0132 157.321 91.1357 156.697 92.2581Z" fill="#B1D8B0"/>
<path d="M146.096 93.8799C145.473 95.0024 144.475 95.626 143.976 95.2518C143.477 94.8777 143.602 93.7552 144.225 92.7575C144.849 91.6351 145.847 91.0115 146.346 91.3856C146.844 91.6351 146.72 92.7575 146.096 93.8799Z" fill="#B1D8B0"/>
<path d="M132.003 82.6555C131.38 83.7779 130.382 84.4015 129.883 84.0273C129.384 83.6532 129.509 82.5307 130.133 81.533C130.756 80.4106 131.754 79.787 132.253 80.1611C132.752 80.4106 132.627 81.533 132.003 82.6555Z" fill="#B1D8B0"/>
<path d="M134.622 92.7568C133.999 93.8792 133.001 94.5028 132.502 94.1286C132.003 93.7545 132.128 92.6321 132.752 91.6343C133.375 90.5119 134.373 89.8883 134.872 90.2625C135.371 90.6366 135.246 91.759 134.622 92.7568Z" fill="#B1D8B0"/>
<path d="M151.21 95.8748C150.586 96.9973 149.588 97.6208 149.089 97.2467C148.591 96.8725 148.715 95.7501 149.339 94.7524C149.962 93.6299 150.96 93.0064 151.459 93.3805C151.958 93.6299 151.833 94.7524 151.21 95.8748Z" fill="#B1D8B0"/>
<path d="M127.638 89.8889C127.015 91.0113 126.017 91.6349 125.518 91.2607C125.019 90.8866 125.144 89.7641 125.768 88.7664C126.391 87.644 127.389 87.0204 127.888 87.3945C128.387 87.644 128.262 88.7664 127.638 89.8889Z" fill="#B1D8B0"/>
<path d="M140.359 98.2447C139.736 99.3671 138.738 99.9907 138.239 99.6166C137.74 99.2424 137.865 98.12 138.488 97.1222C139.112 95.9998 140.11 95.3762 140.609 95.7504C141.108 95.9998 140.983 97.1222 140.359 98.2447Z" fill="#B1D8B0"/>
<path d="M129.883 164.969H119.657C119.657 164.969 99.702 152.872 93.591 132.418C88.727 115.831 95.7111 94.7541 119.282 93.3822C142.978 92.0103 157.445 101.613 154.702 128.178C152.332 152.248 138.613 164.969 138.613 164.969H129.883Z" fill="#399648"/>
<path d="M122.151 93.2573C142.48 93.7562 154.452 103.733 152.083 128.053C149.713 152.123 135.994 164.844 135.994 164.844H138.863C138.863 164.844 152.457 152.123 154.951 128.053C157.445 102.611 144.101 92.8832 122.151 93.2573Z" fill="#497E44"/>
<path d="M105.189 106.103C105.189 107.599 104.566 108.847 103.818 108.847C103.069 108.847 102.446 107.599 102.446 106.103C102.446 104.606 103.069 103.359 103.818 103.359C104.566 103.359 105.189 104.606 105.189 106.103Z" fill="#B1D8B0"/>
<path d="M113.421 108.098C113.421 109.595 112.797 110.842 112.049 110.842C111.3 110.842 110.677 109.595 110.677 108.098C110.677 106.602 111.3 105.355 112.049 105.355C112.922 105.479 113.421 106.602 113.421 108.098Z" fill="#B1D8B0"/>
<path d="M99.4524 115.582C99.4524 117.078 98.8288 118.326 98.0805 118.326C97.3322 118.326 96.7086 117.078 96.7086 115.582C96.7086 114.085 97.3322 112.838 98.0805 112.838C98.8288 112.838 99.4524 114.085 99.4524 115.582Z" fill="#B1D8B0"/>
<path d="M107.808 116.454C107.808 117.951 107.185 119.198 106.437 119.198C105.688 119.198 105.065 117.951 105.065 116.454C105.065 114.958 105.688 113.71 106.437 113.71C107.185 113.835 107.808 114.958 107.808 116.454Z" fill="#B1D8B0"/>
<path d="M114.793 99.2439C114.793 100.74 114.169 101.988 113.421 101.988C112.672 101.988 112.049 100.74 112.049 99.2439C112.049 97.7473 112.672 96.5001 113.421 96.5001C114.169 96.6248 114.793 97.7473 114.793 99.2439Z" fill="#B1D8B0"/>
<path d="M116.04 119.198C116.04 120.695 115.416 121.942 114.668 121.942C113.92 121.942 113.296 120.695 113.296 119.198C113.296 117.702 113.92 116.455 114.668 116.455C115.541 116.455 116.04 117.702 116.04 119.198Z" fill="#B1D8B0"/>
<path d="M122.151 102.735C122.151 104.232 121.527 105.479 120.779 105.479C120.031 105.479 119.407 104.232 119.407 102.735C119.407 101.239 120.031 99.9917 120.779 99.9917C121.527 100.116 122.151 101.239 122.151 102.735Z" fill="#B1D8B0"/>
<path d="M129.384 99.2439C129.384 100.74 128.761 101.988 128.013 101.988C127.264 101.988 126.641 100.74 126.641 99.2439C126.641 97.7473 127.264 96.5001 128.013 96.5001C128.761 96.6248 129.384 97.7473 129.384 99.2439Z" fill="#B1D8B0"/>
<path d="M125.019 112.339C125.019 113.835 124.396 115.083 123.647 115.083C122.899 115.083 122.276 113.835 122.276 112.339C122.276 110.842 122.899 109.595 123.647 109.595C124.396 109.595 125.019 110.842 125.019 112.339Z" fill="#B1D8B0"/>
<path d="M138.613 101.987C138.613 103.484 137.99 104.731 137.241 104.731C136.493 104.731 135.87 103.484 135.87 101.987C135.87 100.491 136.493 99.2437 137.241 99.2437C137.99 99.2437 138.613 100.491 138.613 101.987Z" fill="#B1D8B0"/>
<path d="M125.019 122.815C125.019 124.312 124.396 125.559 123.647 125.559C122.899 125.559 122.276 124.312 122.276 122.815C122.276 121.319 122.899 120.071 123.647 120.071C124.396 120.071 125.019 121.319 125.019 122.815Z" fill="#B1D8B0"/>
<path d="M133.625 110.218C133.625 111.715 133.001 112.962 132.253 112.962C131.504 112.962 130.881 111.715 130.881 110.218C130.881 108.722 131.504 107.474 132.253 107.474C133.001 107.474 133.625 108.722 133.625 110.218Z" fill="#B1D8B0"/>
<path d="M132.876 122.815C133.634 122.815 134.248 121.586 134.248 120.071C134.248 118.556 133.634 117.327 132.876 117.327C132.119 117.327 131.504 118.556 131.504 120.071C131.504 121.586 132.119 122.815 132.876 122.815Z" fill="#B1D8B0"/>
<path d="M142.854 112.339C142.854 113.835 142.23 115.083 141.482 115.083C140.734 115.083 140.11 113.835 140.11 112.339C140.11 110.842 140.734 109.595 141.482 109.595C142.355 109.595 142.854 110.842 142.854 112.339Z" fill="#B1D8B0"/>
<path d="M149.588 108.098C149.588 109.595 148.965 110.842 148.216 110.842C147.468 110.842 146.844 109.595 146.844 108.098C146.844 106.602 147.468 105.355 148.216 105.355C149.089 105.479 149.588 106.602 149.588 108.098Z" fill="#B1D8B0"/>
<path d="M141.981 123.688C141.981 125.185 141.357 126.432 140.609 126.432C139.86 126.432 139.237 125.185 139.237 123.688C139.237 122.192 139.86 120.944 140.609 120.944C141.357 121.069 141.981 122.192 141.981 123.688Z" fill="#B1D8B0"/>
<path d="M150.96 118.325C150.96 119.821 150.337 121.068 149.588 121.068C148.84 121.068 148.216 119.821 148.216 118.325C148.216 116.828 148.84 115.581 149.588 115.581C150.337 115.581 150.96 116.828 150.96 118.325Z" fill="#B1D8B0"/>
<path d="M150.96 128.427C150.96 129.924 150.337 131.171 149.588 131.171C148.84 131.171 148.216 129.924 148.216 128.427C148.216 126.931 148.84 125.684 149.588 125.684C150.337 125.684 150.96 126.931 150.96 128.427Z" fill="#B1D8B0"/>
<path d="M98.0806 124.686C98.0806 126.182 97.457 127.429 96.7087 127.429C95.9604 127.429 95.3368 126.182 95.3368 124.686C95.3368 123.189 95.9604 121.942 96.7087 121.942C97.5817 121.942 98.0806 123.189 98.0806 124.686Z" fill="#B1D8B0"/>
<path d="M105.688 126.93C105.688 128.426 105.065 129.674 104.316 129.674C103.568 129.674 102.945 128.426 102.945 126.93C102.945 125.433 103.568 124.186 104.316 124.186C105.189 124.186 105.688 125.433 105.688 126.93Z" fill="#B1D8B0"/>
<path d="M101.573 135.286C101.573 136.783 100.949 138.03 100.201 138.03C99.4524 138.03 98.8289 136.783 98.8289 135.286C98.8289 133.79 99.4524 132.543 100.201 132.543C100.949 132.543 101.573 133.79 101.573 135.286Z" fill="#B1D8B0"/>
<path d="M114.793 128.427C114.793 129.924 114.169 131.171 113.421 131.171C112.672 131.171 112.049 129.924 112.049 128.427C112.049 126.931 112.672 125.684 113.421 125.684C114.169 125.684 114.793 126.931 114.793 128.427Z" fill="#B1D8B0"/>
<path d="M108.183 140.774C108.94 140.774 109.554 139.546 109.554 138.031C109.554 136.515 108.94 135.287 108.183 135.287C107.425 135.287 106.811 136.515 106.811 138.031C106.811 139.546 107.425 140.774 108.183 140.774Z" fill="#B1D8B0"/>
<path d="M109.554 148.132C109.554 149.629 108.931 150.876 108.183 150.876C107.434 150.876 106.811 149.629 106.811 148.132C106.811 146.635 107.434 145.388 108.183 145.388C108.931 145.513 109.554 146.635 109.554 148.132Z" fill="#B1D8B0"/>
<path d="M117.412 136.035C117.412 137.532 116.788 138.779 116.04 138.779C115.291 138.779 114.668 137.532 114.668 136.035C114.668 134.539 115.291 133.291 116.04 133.291C116.788 133.416 117.412 134.539 117.412 136.035Z" fill="#B1D8B0"/>
<path d="M126.765 130.672C126.765 132.168 126.142 133.415 125.393 133.415C124.645 133.415 124.022 132.168 124.022 130.672C124.022 129.175 124.645 127.928 125.393 127.928C126.142 127.928 126.765 129.175 126.765 130.672Z" fill="#B1D8B0"/>
<path d="M134.124 131.795C134.124 133.291 133.5 134.539 132.752 134.539C132.003 134.539 131.38 133.291 131.38 131.795C131.38 130.298 132.003 129.051 132.752 129.051C133.625 129.051 134.124 130.298 134.124 131.795Z" fill="#B1D8B0"/>
<path d="M123.647 142.271C123.647 143.768 123.024 145.015 122.276 145.015C121.527 145.015 120.904 143.768 120.904 142.271C120.904 140.774 121.527 139.527 122.276 139.527C123.024 139.527 123.647 140.774 123.647 142.271Z" fill="#B1D8B0"/>
<path d="M141.981 135.286C141.981 136.783 141.357 138.03 140.609 138.03C139.86 138.03 139.237 136.783 139.237 135.286C139.237 133.79 139.86 132.543 140.609 132.543C141.357 132.543 141.981 133.79 141.981 135.286Z" fill="#B1D8B0"/>
<path d="M131.629 143.393C131.629 144.89 131.006 146.137 130.257 146.137C129.509 146.137 128.886 144.89 128.886 143.393C128.886 141.896 129.509 140.649 130.257 140.649C131.006 140.649 131.629 141.896 131.629 143.393Z" fill="#B1D8B0"/>
<path d="M148.341 140.026C148.341 141.522 147.718 142.769 146.969 142.769C146.221 142.769 145.597 141.522 145.597 140.026C145.597 138.529 146.221 137.282 146.969 137.282C147.718 137.407 148.341 138.529 148.341 140.026Z" fill="#B1D8B0"/>
<path d="M138.613 148.132C138.613 149.629 137.99 150.876 137.241 150.876C136.493 150.876 135.87 149.629 135.87 148.132C135.87 146.635 136.493 145.388 137.241 145.388C137.99 145.513 138.613 146.635 138.613 148.132Z" fill="#B1D8B0"/>
<path d="M117.412 145.513C117.412 147.01 116.788 148.257 116.04 148.257C115.291 148.257 114.668 147.01 114.668 145.513C114.668 144.017 115.291 142.77 116.04 142.77C116.788 142.77 117.412 144.017 117.412 145.513Z" fill="#B1D8B0"/>
<path d="M126.266 154.244C126.266 155.74 125.643 156.987 124.895 156.987C124.146 156.987 123.523 155.74 123.523 154.244C123.523 152.747 124.146 151.5 124.895 151.5C125.643 151.5 126.266 152.747 126.266 154.244Z" fill="#B1D8B0"/>
<path d="M144.974 147.135C144.974 148.631 144.35 149.878 143.602 149.878C142.854 149.878 142.23 148.631 142.23 147.135C142.23 145.638 142.854 144.391 143.602 144.391C144.35 144.391 144.974 145.638 144.974 147.135Z" fill="#B1D8B0"/>
<path d="M117.412 155.491C117.412 156.988 116.788 158.235 116.04 158.235C115.291 158.235 114.668 156.988 114.668 155.491C114.668 153.994 115.291 152.747 116.04 152.747C116.788 152.872 117.412 153.994 117.412 155.491Z" fill="#B1D8B0"/>
<path d="M135.495 156.114C135.495 157.611 134.872 158.858 134.124 158.858C133.375 158.858 132.752 157.611 132.752 156.114C132.752 154.618 133.375 153.37 134.124 153.37C134.872 153.37 135.495 154.618 135.495 156.114Z" fill="#B1D8B0"/>
<path d="M87.7298 159.232V167.962C87.7298 191.409 104.442 210.615 124.77 210.615H129.011C149.339 210.615 166.051 191.409 166.051 167.962V159.232H87.7298Z" fill="#ECC742"/>
<path d="M174.906 173.824H79.6233V175.196H174.906V173.824Z" fill="white"/>
<path d="M174.906 195.025H79.6234V196.397H174.906V195.025Z" fill="white"/>
<path opacity="0.1" d="M149.963 159.232V167.962C149.963 191.159 144.476 210.241 124.272 210.615C124.521 210.615 124.646 210.615 124.895 210.615H129.136C149.464 210.615 166.176 191.409 166.176 167.962V159.232H149.963Z" fill="#482C80"/>
<path d="M169.793 154.992H84.2377V163.473H169.793V154.992Z" fill="#D4A000"/>
<defs>
<filter id="filter0_d_2_330" x="0.729858" y="33.6147" width="290.875" height="309.662" filterUnits="userSpaceOnUse" color-interpolation-filters="sRGB">
<feFlood flood-opacity="0" result="BackgroundImageFix"/>
<feColorMatrix in="SourceAlpha" type="matrix" values="0 0 0 0 0 0 0 0 0 0 0 0 0 0 0 0 0 0 127 0" result="hardAlpha"/>
<feMorphology radius="11" operator="dilate" in="SourceAlpha" result="effect1_dropShadow_2_330"/>
<feOffset dx="22" dy="34"/>
<feGaussianBlur stdDeviation="25"/>
<feColorMatrix type="matrix" values="0 0 0 0 0.486275 0 0 0 0 0.643137 0 0 0 0 0.0901961 0 0 0 0.08 0"/>
<feBlend mode="normal" in2="BackgroundImageFix" result="effect1_dropShadow_2_330"/>
<feBlend mode="normal" in="SourceGraphic" in2="effect1_dropShadow_2_330" result="shape"/>
</filter>
</defs>
</svg>
