<svg width="112" height="88" viewBox="0 0 112 88" fill="none" xmlns="http://www.w3.org/2000/svg">
<path fill-rule="evenodd" clip-rule="evenodd" d="M66.4499 30.2136C65.2298 23.1939 60.1732 17.8232 53.5125 14.2723C46.0039 10.3187 36.568 8.58251 28.7058 9.24747C25.9492 9.54318 23.2703 10.0983 20.7664 10.9201C17.0654 12.0727 13.4293 13.6525 9.96807 15.4991C9.66398 15.6448 9.53476 16.0572 9.70962 16.324C9.88447 16.5908 10.3634 16.7119 10.6675 16.5663C13.6825 15.4457 16.6912 14.4091 19.7711 13.7158C22.8511 13.0225 25.9182 12.4972 29.1409 12.4905C36.3044 12.0255 44.7696 13.6873 51.5209 17.3296C57.0488 20.3713 61.3025 24.7515 62.4249 30.4967C60.6519 30.6988 58.9759 30.9083 57.2807 31.3698C54.0907 32.2236 51.0564 33.5961 48.4367 35.9295C46.5543 37.5592 44.4913 40.2731 44.0008 42.854C43.5359 45.099 44.0483 47.3344 46.3722 48.8638C50.9165 51.9992 55.5818 51.005 59.3401 47.8296C63.7129 44.279 66.7319 38.0062 66.9564 33.8001C68.7165 33.7659 70.3732 33.8083 72.1269 33.8581C79.1419 34.0574 86.0802 36.5315 91.6088 40.8403C96.4836 44.7612 100.557 50.2256 102.501 56.7095C104.154 61.9041 103.645 67.271 102.302 72.0672C101.365 75.3742 99.9621 78.392 98.5914 80.99C97.3372 83.3435 96.1215 85.1932 94.8473 86.5315C94.7438 86.6081 94.7374 86.6921 94.8344 86.6995C94.9315 86.7069 95.0286 86.7144 95.0286 86.7144C96.7624 85.7491 98.7354 84.2108 100.559 82.0698C102.603 79.6079 104.407 76.4518 105.648 72.9992C107.509 67.8203 108.069 61.7815 106.468 55.9152C104.29 48.6532 99.8734 42.5712 94.1507 38.2475C87.8778 33.4594 80.0914 30.5825 72.0023 30.3854C70.1579 30.2442 68.3071 30.1869 66.4499 30.2136ZM62.5431 34.0534C61.1648 34.2012 59.7801 34.4331 58.486 34.7563C55.8978 35.4028 53.4651 36.568 51.3694 38.4347C50.218 39.4446 48.9245 41.0349 48.317 42.5933C47.8322 43.8231 47.6387 45.0753 48.8428 45.9277C51.4386 47.7314 54.1432 46.8404 56.3296 45.0651C59.661 42.3639 62.2795 37.4963 62.5431 34.0534Z" fill="#F47458"/>
<path fill-rule="evenodd" clip-rule="evenodd" d="M11.1527 16.6031C12.0971 15.7463 13.0415 14.8895 13.8888 14.0253C14.9431 13.0079 16.0945 11.998 17.0517 10.9732C19.6972 8.30393 22.0578 5.52835 24.6062 2.85161C24.9167 2.62199 24.8454 2.27866 24.5734 2.00443C24.3015 1.73021 23.9068 1.78445 23.5963 2.01407C21.0151 3.84363 18.2463 5.57435 15.6651 7.40391C14.533 8.1619 13.3945 9.00385 12.3531 9.85324C9.95964 11.7816 7.84457 13.9003 5.73593 15.935C5.52249 16.172 5.09563 16.6461 4.95997 17.1425C4.82432 17.639 4.78573 18.1428 4.94773 18.5775C5.10972 19.0123 5.36879 19.4545 6.11965 19.8498C6.50151 19.9635 7.26522 20.1909 8.33302 20.2727C11.9247 20.5477 20.8419 20.1325 22.6991 20.1058L26.4329 19.8004C26.6335 19.7313 26.9247 19.7536 27.2288 19.608C27.6299 19.4698 28.0375 19.2476 28.2509 19.0105C28.3609 18.85 28.0761 18.7437 28.2702 18.7586C28.3673 18.766 28.2831 18.5906 28.1796 18.6672C28.0632 18.9117 27.9983 18.4844 27.8948 18.5609C27.5843 18.7905 27.9141 18.309 27.6229 18.2867C27.5258 18.2792 27.7264 18.2101 27.5322 18.1953C27.3381 18.1804 27.7328 18.1262 27.5451 18.0273C27.4544 17.9359 27.7457 17.9582 27.655 17.8668C27.5644 17.7754 27.8427 17.9656 27.7585 17.7903C27.6679 17.6989 27.8492 17.8817 27.8492 17.8817C27.8492 17.8817 27.862 17.7137 27.9334 18.0571C27.8299 18.1336 27.8234 18.2176 27.9205 18.225C28.0112 18.3164 28.1082 18.3238 28.1147 18.2399C28.9497 18.8106 28.2117 18.2473 28.5936 18.361C28.6907 18.3684 28.6 18.277 28.6971 18.2845C29.1889 18.2377 28.5158 18.1017 28.7292 17.8646C28.8327 17.7881 28.5351 17.8497 28.6386 17.7732C28.7485 17.6127 28.4316 17.9263 28.3602 17.5829C28.3731 17.415 28.2503 17.7435 28.0755 17.4767C27.8942 17.2938 28.179 17.4001 27.7065 17.195C27.4217 17.0887 26.6322 17.1972 26.3474 17.0909L22.8464 16.9073C21.2932 16.7884 15.2362 16.8314 11.1527 16.6031Z" fill="#F47458"/>
</svg>
