<svg width="699" height="767" viewBox="0 0 699 767" fill="none" xmlns="http://www.w3.org/2000/svg">
<path d="M356.44 632.005C381.202 619.663 410.19 595.755 453.835 567.336C503.13 535.196 616.268 589.039 679.96 444.018C686.651 428.786 691.322 412.174 693.585 396.432C729.923 142.538 437.847 -8.89448 201.701 92.4731C100.008 136.126 -33.4175 226.784 11.2416 438.351C42.0604 584.407 190.367 714.844 356.44 632.005Z" fill="white"/>
<path d="M297.065 402.147L376.531 387.087C376.531 387.087 388.775 379.129 432.977 416.104C460.466 439.061 428.998 458.878 488.689 463.653C575.991 470.631 725.333 566.074 641.811 716.315C595.528 799.57 570.742 694.246 509.137 709.519C497.383 713.682 489.669 716.315 488.689 716.315C483.669 716.315 294.494 595.288 294.494 595.288L297.065 402.147Z" fill="#1E1735"/>
<path d="M71.0966 727.822C82.1777 704.988 94.3607 675.787 105.932 634.894C117.013 595.592 165.868 599.755 212.58 578.206C259.353 556.658 307.718 544.17 354.002 573.248C409.836 608.264 466.955 614.263 495.668 653.137C499.648 658.585 504.423 668.625 505.525 670.767C510.606 680.868 518.14 710.806 521.384 722.866C505.405 732.232 487.403 721.027 475.404 726.047C342.676 781.693 194.336 777.041 71.0966 727.822Z" fill="#FFBCB0"/>
<path d="M451.342 284.795C451.036 281.55 452.321 278.857 454.342 277.02C453.362 277.571 452.26 277.938 451.036 278.183C446.934 278.918 439.954 277.571 438.485 270.837C437.934 264.838 442.526 261.899 444.607 260.92C447.24 259.634 449.75 259.512 451.77 259.879C449.199 258.777 447.117 256.635 446.444 253.513C445.403 243.412 457.709 239.31 464.137 243.473C465.239 244.208 466.77 245.493 467.627 247.636C467.688 239.739 477.789 234.29 485.32 238.759C490.952 242.126 491.136 249.105 486.973 253.39C487.156 253.268 487.279 253.207 487.462 253.145C489.421 252.227 490.523 252.105 491.932 251.921C492.115 251.921 495.727 251.493 499.156 253.635C506.87 258.594 504.36 269.613 495.054 271.878C492.85 272.429 491.136 272.184 490.401 272.123C490.156 272.123 489.911 272 489.666 271.939C490.034 272.123 490.34 272.306 490.707 272.551C498.176 277.51 495.605 288.345 486.483 290.427C484.034 290.978 480.299 291.1 476.443 288.284C475.953 287.978 474.483 286.631 473.688 284.978C473.443 284.427 473.32 283.815 473.198 283.203C473.198 287.611 469.831 292.018 464.137 292.998C461.198 293.304 453.056 292.875 451.342 284.795Z" fill="white"/>
<path d="M472.281 272.062C478.587 270.531 480.363 263.124 475.098 259.941C470.139 256.88 462.302 260.308 462.914 266.797C464.016 271.756 469.037 272.858 472.281 272.062Z" fill="#FFBCB0"/>
<path d="M451.099 278.122C459.119 276.653 463.649 267.103 456.792 261.777C456.731 261.716 451.16 257.614 444.609 260.798C442.589 261.777 437.936 264.716 438.487 270.715C440.018 277.571 446.997 278.857 451.099 278.122Z" fill="#FFD700"/>
<path d="M495.117 271.755C504.423 269.551 506.933 258.471 499.219 253.512C495.791 251.37 492.179 251.798 491.995 251.798C490.587 251.982 489.485 252.104 487.526 253.023C486.24 253.635 485.383 254.737 484.22 255.41C484.159 255.41 480.914 258.042 481.404 263.674C482.016 266.49 483.118 268.633 486.607 270.653C487.158 270.959 487.771 270.898 488.383 271.082C489.117 271.327 489.73 271.816 490.526 271.878C491.199 272.061 492.913 272.306 495.117 271.755Z" fill="#FFD700"/>
<path d="M459.608 260.43C463.71 259.389 466.894 256.512 467.873 252.839C468.241 251.553 468.241 251.553 467.751 249.41C467.629 248.798 467.812 248.186 467.567 247.635C466.71 245.493 465.241 244.207 464.078 243.472C457.588 239.31 445.344 243.411 446.385 253.512C447.793 259.511 454.16 261.715 459.608 260.43Z" fill="#FFD700"/>
<path d="M486.607 290.243C495.729 288.161 498.301 277.326 490.831 272.367C484.281 268.021 473.873 271.449 472.894 280.387C473.383 281.856 473.138 283.386 473.812 284.794C474.608 286.447 476.138 287.794 476.567 288.1C480.363 290.916 484.097 290.855 486.607 290.243Z" fill="#FFD700"/>
<path d="M464.2 292.815C473.139 291.284 476.445 281.245 469.71 276.041C462.915 270.838 450.487 275.368 451.405 284.795C453.058 292.876 461.2 293.305 464.2 292.815Z" fill="#FFD700"/>
<path d="M481.955 256.389C490.709 253.696 492.73 243.105 485.322 238.697C477.302 233.923 466.282 240.473 467.751 249.166C468.976 255.593 476.2 258.165 481.955 256.389Z" fill="#FFD700"/>
<path d="M346.349 25.293C343.349 26.5786 342.859 34.598 342.92 36.557C343.226 43.1685 345.981 50.7594 349.532 59.0238C345.186 64.6558 340.655 66.0026 336.186 69.9817C327.309 77.8175 331.472 80.2662 331.839 80.4499C337.472 82.8986 349.043 73.5323 353.083 67.0433C355.104 71.5733 357.185 76.2259 359.144 81.062C359.573 82.1639 360.001 83.3883 360.307 84.6126C360.001 85.0412 359.695 85.5309 359.328 86.0206C348.859 99.1824 341.023 98.509 331.839 103.59C317.697 111.487 322.595 115.956 323.023 116.262C329.941 121.282 348.92 111.487 355.777 103.957C356.94 102.672 359.267 100.101 361.287 96.6725C359.328 125.69 331.105 162.971 305.085 139.831C299.086 134.505 297.494 143.81 285.801 144.116C275.883 144.361 268.903 134.75 266.577 131.811C254.761 116.874 252.741 92.5709 261.802 73.2874C270.495 54.9222 288.8 42.1278 305.085 38.6996C310.718 37.4752 330.003 37.5365 333.982 32.7003C338.757 26.8234 342.614 24.4972 345.124 23.5177C347.145 22.5382 348.43 24.3747 346.349 25.293ZM340.349 56.4526C340.165 56.3302 339.798 56.3302 338.757 56.82C337.9 57.2485 332.574 60.0033 332.084 65.3292C332.023 66.2474 331.901 67.2269 332.452 67.5942C333.553 68.3288 336.615 66.2474 338.451 63.7987C340.472 60.9827 341.329 57.0648 340.349 56.4526Z" fill="#346E00"/>
<path d="M512.015 405.697C507.362 405.82 501.729 395.78 500.627 393.148C496.954 384.394 495.852 372.824 495.301 359.907C486.179 355.254 479.506 356.295 471.18 353.908C454.772 349.194 458.69 343.439 459.058 343.011C464.813 336.338 485.689 341.358 494.934 347.296C494.75 340.195 494.628 332.788 494.199 325.38C494.077 323.666 493.832 321.891 493.526 320.116C492.852 319.687 492.179 319.32 491.383 318.891C469.71 308.301 459.854 314.055 444.793 313.076C421.59 311.545 425.141 302.73 425.508 302.056C431.447 291.221 462.119 292.262 475.649 297.832C477.975 298.812 482.506 300.71 487.281 303.893C466.833 267.407 407.019 236.431 387.551 282.589C383.082 293.18 375.184 282.161 359.879 288.956C346.839 294.71 343.778 311.545 342.553 316.81C336.492 343.501 348.859 376.374 372.552 395.78C395.204 414.329 426.855 419.533 450.119 413.962C458.201 412.003 483.24 400.065 491.383 403.922C501.24 408.575 507.668 409.187 511.525 409.003C514.769 408.758 515.32 405.636 512.015 405.697ZM484.955 368.967C484.771 369.273 484.342 369.518 482.689 369.457C481.281 369.457 472.71 369.151 468.792 362.539C468.119 361.437 467.384 360.213 467.874 359.417C468.792 357.764 474.118 358.56 477.975 360.641C482.322 363.029 485.873 367.559 484.955 368.967Z" fill="#7CA417"/>
<path d="M228.619 3.13249C226.048 6.00971 229.354 14.8862 230.456 17.0288C234.007 24.0076 240.68 30.864 248.577 38.0876C246.618 46.352 242.394 49.9638 239.455 56.4528C233.639 69.3085 239.394 69.8595 239.884 69.8595C247.169 69.7982 255.128 53.9429 256.353 45.0052C260.761 48.9231 265.291 52.9022 269.76 57.1875C270.801 58.1669 271.78 59.2688 272.699 60.432C272.576 61.0442 272.515 61.7175 272.331 62.4522C267.434 81.7356 258.557 84.8577 251.149 94.8362C239.7 110.263 247.169 112.712 247.782 112.834C257.761 114.915 273.495 95.0198 277.168 83.5722C277.78 81.6132 279.066 77.7565 279.556 73.0428C291.616 105.366 279.249 159.543 239.823 147.177C230.762 144.361 233.517 155.197 221.028 161.196C210.436 166.277 198.192 159.298 194.213 157.217C174.193 146.81 160.112 121.466 160.541 96.2442C160.969 72.1245 174.56 49.4128 190.478 37.7203C195.988 33.68 216.865 24.3137 218.762 17.1513C221.089 8.4584 224.15 4.05075 226.354 1.7857C228.129 -0.234471 230.456 1.11231 228.619 3.13249Z" fill="#7CA417"/>
<path d="M489.485 96.4882C489.24 84.8569 484.22 79.4698 487.709 69.3689C488.995 65.7571 491.077 62.2677 489.975 61.2882C488.505 60.0026 482.628 64.5327 480.853 65.7571C466.098 76.164 437.324 67.3487 431.324 65.7571C394.836 56.2684 340.165 90.4277 313.534 113.629C301.228 124.342 252.129 167.133 256.414 221.617C256.598 223.637 254.088 262.142 280.352 269.978C297.004 274.937 307.167 256.449 325.105 264.101C336.859 269.121 340.716 278.365 351.981 281.12C366.98 284.793 382.959 268.203 386.633 264.163C399.918 249.532 395.204 240.839 409.468 213.291C416.141 200.374 421.774 189.539 433.1 178.336C443.507 168.051 451.527 164.562 456.915 159.175C447.671 160.705 436.773 158.501 425.202 152.686C417.305 148.707 410.999 141.85 411.978 140.993C412.835 140.259 421.284 147.666 433.59 148.584C450.181 149.87 458.935 145.891 464.262 142.524C465.364 132.239 462.486 123.179 466.343 121.649C469.465 120.363 472.22 126.056 476.873 125.322C483.791 124.097 489.73 109.528 489.485 96.4882Z" fill="#7CA417"/>
<path d="M315.86 254.429C313.779 267.101 312.738 279.896 312.677 292.69C312.616 299.118 312.86 305.485 313.228 311.913C313.411 315.096 313.656 318.34 313.962 321.524C314.207 324.768 314.452 328.074 314.636 331.318C315.371 344.419 315.309 357.581 314.575 370.681C314.33 375.15 313.962 379.68 313.534 384.149H304.963C305.514 379.497 306.004 374.783 306.432 370.13C307.473 357.336 307.84 344.48 307.412 331.686C307.289 328.502 307.167 325.319 306.983 322.075C306.8 318.83 306.616 315.586 306.493 312.28C306.249 305.73 306.187 299.179 306.371 292.568C306.738 279.467 308.146 266.367 310.534 253.45C312.983 240.533 316.473 227.861 321.125 215.618L322.901 211.026L324.799 206.496C326.084 203.497 327.37 200.497 328.717 197.558C331.411 191.62 334.349 185.743 337.533 180.05C343.9 168.603 351.185 157.706 359.634 147.727C368.021 137.749 377.572 128.628 388.102 120.975C393.367 117.119 398.877 113.629 404.632 110.507L408.978 108.242C410.448 107.508 411.917 106.834 413.386 106.161C416.386 104.814 419.325 103.529 422.386 102.427C434.508 97.7741 447.242 94.7132 460.16 93.1216C447.303 94.9581 434.691 98.3251 422.753 103.284C419.753 104.508 416.815 105.855 413.876 107.202C412.407 107.936 410.999 108.61 409.529 109.405L405.305 111.732C399.673 114.915 394.346 118.527 389.204 122.445C378.98 130.281 369.797 139.463 361.715 149.503C353.634 159.542 346.716 170.439 340.716 181.826C337.716 187.519 334.961 193.334 332.451 199.273C331.166 202.211 329.941 205.211 328.778 208.21L327.003 212.679L325.35 217.209C321.064 229.269 317.942 241.757 315.86 254.429Z" fill="#9FBC50"/>
<path d="M453.12 271.509C452.201 266.978 452.875 265.999 454.528 262.203C457.895 254.184 475.159 252.96 486.057 237.9C492.975 228.35 510.79 234.411 523.157 226.024C531.912 220.025 523.035 215.127 543.972 206.434C575.869 193.273 574.277 173.989 573.114 173.316C571.277 172.275 570.787 177.907 568.155 180.417C555.727 192.171 490.036 157.95 425.754 188.437C397.775 201.721 376.654 222.596 367.593 251.368C360.981 272.427 366.491 284.425 374.45 283.507C383.878 282.466 376.286 287.548 380.817 296.485C399.367 333.644 456.609 288.527 453.12 271.509Z" fill="#346E00"/>
<path d="M312.738 360.213L307.045 359.968C311.759 352.438 316.718 345.031 321.86 337.746C335.941 317.789 351.614 298.811 369.062 281.732C386.572 264.652 405.918 249.409 426.978 237.043C448.038 224.677 470.812 215.189 494.505 209.25C497.444 208.577 500.444 207.842 503.382 207.169L512.321 205.21C518.259 203.863 524.136 202.455 530.014 200.741C535.83 199.027 541.585 197.007 547.095 194.497C552.605 191.987 557.87 188.865 562.461 184.825C557.931 188.926 552.666 192.11 547.217 194.742C541.707 197.374 535.952 199.456 530.136 201.292C524.32 203.067 518.382 204.598 512.504 206.006L503.627 208.087C500.689 208.822 497.75 209.557 494.811 210.291C471.363 216.597 448.895 226.33 428.202 238.941C407.509 251.552 388.531 266.917 371.511 284.119C354.491 301.321 339.309 320.299 325.656 340.317C321.126 346.806 316.84 353.479 312.738 360.213Z" fill="#7CA417"/>
<path d="M330.554 189.601C319.901 163.277 298.351 144.912 276.066 137.872C270.189 136.036 260.149 132.975 252.619 137.933C240.803 145.647 244.231 167.134 239.517 167.746C233.64 168.542 231.926 136.464 213.682 128.506C200.152 122.629 181.234 128.69 170.765 139.035C144.134 165.42 150.072 216.414 164.766 248.37C173.337 267.102 199.111 310.322 231.926 318.035C238.476 319.566 261.557 323.545 267.495 338.543C268.781 341.787 268.597 343.869 270.373 344.848C277.964 348.889 303.8 322.259 318.309 295.507C324.86 283.447 349.9 237.351 330.554 189.601ZM310.167 189.601C309.493 190.274 298.229 182.255 275.699 166.155C272.148 163.645 268.475 160.951 269.026 159.482C269.822 157.401 279.189 158.38 286.229 161.196C302.943 167.808 312.738 187.091 310.167 189.601Z" fill="#346E00"/>
<path d="M201.437 193.641C207.62 188.805 216.436 198.967 229.048 193.702C241.231 188.621 252.741 172.031 248.7 160.277C241.843 140.198 244.965 121.527 239.517 109.467C230.762 89.9999 208.539 75.9199 153.378 58.7179C147.317 56.8201 141.868 55.1673 136.971 53.698C139.664 57.6159 142.297 61.9624 144.44 66.8598C145.664 69.5533 150.562 80.8785 149.46 95.2034C149.092 100.162 148.358 109.896 142.297 112.65C141.807 112.834 139.664 113.385 137.277 112.283C132.746 110.202 132.624 102.243 132.563 88.2859C132.501 65.6354 131.461 56.6365 129.991 51.7391C116.155 47.9436 107.033 46.5356 99.1969 48.3721C87.626 51.1269 71.7084 58.1057 63.2598 51.6166C58.3621 47.8212 60.6273 42.3116 58.4845 42.3728C54.0766 42.434 53.9542 67.5944 46.9137 95.6319C36.1387 138.729 37.2407 135.362 37.7305 146.932C37.7917 148.952 37.9753 150.911 38.2202 152.809C83.218 174.97 113.4 163.951 124.114 166.399C126.073 166.828 133.175 168.481 133.42 171.297C133.726 175.398 119.645 179.561 116.645 180.479C98.401 185.866 65.0965 189.111 44.3423 175.521C51.7502 192.968 64.1169 207.476 75.5041 220.76C94.6053 243.105 112.115 263.551 140.338 266.673C157.48 268.571 180.499 262.143 191.825 249.288C208.355 230.494 186.56 205.272 201.437 193.641Z" fill="#9FBC50"/>
<path d="M197.458 376.191C192.682 341.787 177.071 317.3 176.214 311.606C176.153 311.178 175.54 307.138 177.561 305.852C179.52 304.628 183.132 306.525 184.356 307.75C212.09 335.053 198.07 379.313 205.11 403.8C205.539 403.188 206.029 402.514 206.58 401.841C216.62 388.618 251.516 349.867 246.925 299.608C246.313 292.751 242.639 272.978 228.375 265.571C209.457 255.776 198.805 257.123 176.275 266.489C166.969 270.346 175.908 249.716 168.316 232.514C167.582 230.861 158.521 211.087 138.195 203.558C105.931 191.559 74.5247 221.372 73.1778 222.658C65.0353 230.616 60.6886 238.941 54.7501 250.328C49.73 259.878 43.7914 271.509 41.6487 287.242C39.5059 302.669 43.8527 301.322 41.2202 315.524C38.4652 330.278 32.6492 337.93 36.2612 349.255C36.6898 350.602 37.1796 351.643 37.5469 352.622C43.7915 347.051 52.0564 341.174 61.2396 337.318C65.219 335.604 76.0552 331.012 79.6061 334.93C80.7693 336.216 80.953 338.236 80.6469 339.766C79.3612 345.398 69.7495 347.48 64.362 348.949C52.1789 352.255 43.1793 357.458 36.9347 361.621C33.9348 366.212 27.078 367.743 23.8332 374.048C16.4254 388.373 34.9755 412.615 37.0571 415.309C42.0772 421.736 43.6078 421.247 46.6077 426.695C51.8728 436.245 50.8932 444.448 58.1173 449.223C59.7703 450.325 63.26 452.59 62.5865 451.06C61.7294 449.162 61.607 437.286 69.8719 430.674C77.2797 424.736 123.318 441.51 165.561 429.021C167.582 416.839 170.765 396.086 165.745 370.008C163.969 360.886 160.051 344.97 167.582 338.848C169.602 337.195 172.785 336.032 175.54 336.828C184.05 339.277 185.091 358.989 185.458 366.151C186.621 388.373 181.356 410.901 175.724 425.409C184.356 421.736 192.744 416.594 200.396 409.554C201.192 408.82 201.866 408.085 202.539 407.228C201.131 400.616 199.478 390.822 197.458 376.191Z" fill="#7CA417"/>
<path d="M81.9324 366.946C91.4217 346.438 102.993 326.726 117.135 308.912C124.175 299.974 131.889 291.526 140.399 283.874C148.909 276.222 158.153 269.304 168.438 263.856C173.581 261.162 178.969 258.836 184.601 257.183C190.233 255.53 196.172 254.49 202.233 254.551C203.763 254.551 205.294 254.673 206.763 254.857C208.294 255.041 209.824 255.285 211.232 255.591C214.11 256.204 216.987 256.938 219.865 257.918C225.497 259.815 230.946 262.509 235.843 265.876C245.761 272.61 253.598 282.037 259.414 292.261C265.291 302.484 269.332 313.564 272.27 324.706C275.27 335.909 277.168 347.295 278.454 358.743C279.005 363.64 279.433 368.538 279.739 373.496H268.719C268.536 368.905 268.291 364.375 267.862 359.783C266.944 348.764 265.413 337.806 262.903 327.093C260.393 316.442 256.843 305.973 251.761 296.485C246.68 286.996 240.007 277.262 231.374 271.079C227.089 267.957 222.313 266.611 217.293 264.713C214.783 263.795 212.212 262.999 209.641 262.387C208.294 262.081 207.069 261.836 205.784 261.652C204.498 261.468 203.212 261.346 201.927 261.285C196.723 261.04 191.335 261.774 186.132 263.182C180.928 264.529 175.846 266.549 170.887 268.998C161.031 273.834 151.909 280.262 143.399 287.486C134.95 294.709 127.114 302.79 119.951 311.361C105.564 328.501 93.5033 347.662 83.5241 367.803C73.4838 387.943 65.4638 409.125 59.2192 430.796C64.974 408.88 72.443 387.454 81.9324 366.946Z" fill="#9FBC50"/>
<path d="M74.9531 74.1444C78.6264 78.7357 82.5446 83.2046 86.524 87.551C94.544 96.2439 102.87 104.508 111.441 112.65C128.522 128.873 146.276 144.483 164.153 159.849C173.091 167.501 182.152 175.092 191.152 182.683L204.743 194.069C207.008 195.967 209.273 197.865 211.538 199.824C212.64 200.803 213.804 201.844 214.906 202.885C216.008 203.986 217.048 205.027 218.089 206.19C220.171 208.455 222.068 210.904 223.721 213.475C225.436 216.046 226.966 218.679 228.313 221.433C231.068 226.882 233.088 232.636 234.925 238.329C235.843 241.207 236.7 244.023 237.435 246.961C238.231 249.961 238.782 252.96 239.333 255.899C240.313 261.837 241.047 267.714 241.721 273.591C243.068 285.344 244.231 297.098 245.639 308.791C247.047 320.483 248.639 332.114 250.598 343.623C254.087 364.192 258.679 384.516 265.168 404.228H255.251C249.496 384.761 245.455 364.866 242.455 344.909C240.68 333.155 239.333 321.34 238.17 309.586C237.007 297.833 236.027 286.018 234.925 274.325C234.374 268.448 233.762 262.633 232.905 256.939C232.476 254.062 231.986 251.246 231.313 248.553C230.64 245.798 229.844 242.921 229.048 240.166C227.395 234.595 225.558 229.147 223.109 224.005C221.946 221.433 220.538 218.923 219.069 216.536C217.599 214.149 215.885 211.883 214.048 209.741C213.13 208.639 212.151 207.659 211.171 206.619C210.13 205.639 209.151 204.599 208.11 203.619C205.967 201.66 203.763 199.701 201.559 197.742L188.274 186.05C179.397 178.275 170.581 170.439 161.765 162.481C144.195 146.687 126.869 130.587 110.155 113.874C101.829 105.488 93.6257 96.9785 85.7893 88.1019C81.9324 83.6331 78.1366 79.103 74.5245 74.3893C70.9737 69.6755 67.5452 64.7781 64.9127 59.5134C67.7901 64.7781 71.341 69.4919 74.9531 74.1444Z" fill="#7CA417"/>
<path d="M218.518 605.756C207.498 588.064 227.273 578.637 212.702 541.6C207.927 529.479 195.866 514.175 180.683 503.768C169.296 495.993 162.99 497.891 160.296 492.136C151.358 472.975 192.989 429.021 198.131 425.226C221.518 407.963 256.414 395.474 282.495 393.148C286.658 392.781 329.635 389.414 340.716 410.595C347.267 423.206 337.778 436.796 326.146 465.874C316.35 490.422 320.085 518.46 331.962 544.416C338.574 558.863 353.512 570.617 363.552 582.493C372.919 593.574 365.94 613.592 332.145 623.08C294.984 633.549 237.619 636.426 218.518 605.756Z" fill="#F2A878"/>
<path d="M121.359 395.23C122.094 393.883 123.87 391.312 123.87 387.761C123.87 383.782 121.666 378.456 121.359 377.844C116.033 366.458 120.441 335.237 132.318 305.547H368.45C372.858 314.484 376.041 324.463 377.143 335.604C377.756 341.848 381.551 366.641 367.225 387.761C320.024 457.304 267.74 369.886 251.333 375.334C244.905 377.477 243.741 395.781 241.415 432.45C239.885 456.876 241.231 462.998 236.456 474.69C228.497 494.218 209.947 504.87 203.335 509.462C203.335 509.462 178.234 526.97 151.174 524.337C145.42 523.786 141.563 522.134 138.746 519.379C134.828 515.461 134.645 510.257 133.787 506.952C127.604 483.383 122.584 475.914 118.911 454.794C118.482 452.223 117.686 448.611 116.401 447.326C112.911 443.837 107.952 444.081 103.973 442.367C95.2791 438.633 102.809 426.941 103.973 424.982C107.707 418.799 112.666 411.33 121.359 395.23Z" fill="#FFB383"/>
<path d="M435.426 447.937C430.528 502.666 338.023 511.42 336.002 439.918C334.043 368.355 443.324 360.091 435.426 447.937Z" fill="#1E1735"/>
<path d="M142.726 305.546C142.909 305.975 143.032 306.465 143.216 306.893C146.522 315.464 151.787 323.116 157.786 330.095C169.908 344.175 185.091 354.949 200.519 366.09C208.172 371.784 215.763 377.783 222.681 384.639C229.477 391.618 235.721 399.27 240.374 407.841C242.823 412.065 244.843 416.472 246.68 421.002C248.394 425.532 249.986 430.124 251.149 434.776C253.537 444.081 255.067 453.57 255.557 463.059C251.21 444.571 245.272 426.512 235.232 411.024C230.211 403.311 224.334 396.209 217.6 389.904C210.927 383.537 203.58 377.844 195.927 372.273C188.397 366.58 180.622 361.07 173.275 354.765C165.99 348.46 159.072 341.603 153.195 333.829C147.256 326.115 142.297 317.484 139.665 307.995C139.42 307.138 139.236 306.342 139.053 305.485H142.726V305.546Z" fill="#1E1735"/>
<path d="M362.389 407.411C364.47 404.411 366.735 401.656 368.817 398.84C370.96 396.024 372.919 393.147 374.694 390.086C381.735 378.026 385.286 364.253 386.02 350.479C386.694 336.644 384.918 322.564 380.204 309.769C379.714 308.361 379.163 306.953 378.612 305.606H386.51C386.694 306.157 386.939 306.769 387.122 307.382C391.836 321.523 393.489 336.337 392.081 350.968C391.408 358.253 390 365.538 387.612 372.517C385.224 379.434 382.041 386.168 377.939 392.229C373.837 398.289 368.695 403.493 364.164 408.819C361.899 411.512 359.879 414.39 358.348 417.573C356.756 420.695 355.716 424.123 354.92 427.613C355.348 424.062 356.022 420.511 357.307 417.144C358.471 413.594 360.307 410.41 362.389 407.411Z" fill="#1E1735"/>
<path d="M377.633 305.547C379.469 310.321 381.061 315.341 382.102 320.728C383.204 326.116 389.387 356.785 374.633 385.313C364.654 404.535 352.961 407.78 349.777 427.492C348.246 437.225 349.348 447.265 342.308 459.753C339.492 464.773 336.92 469.119 332.39 472.18C310.044 487.056 284.27 467.956 267.801 447.326C255.985 432.511 256.843 431.654 255.373 424.982C252.741 413.167 254.884 417.391 252.863 411.575C244.904 387.945 208.171 370.927 170.949 340.563C156.317 328.625 148.358 317.484 143.644 305.791C143.583 305.73 143.583 305.608 143.521 305.547H377.633Z" fill="#1E1735"/>
<path d="M465.67 297.22C461.506 298.995 452.752 291.894 450.793 289.935C444.303 283.323 439.161 273.222 434.079 261.652C424.1 260.673 418.406 264.04 410.019 264.897C393.428 266.55 394.959 259.877 395.142 259.326C397.958 251.184 418.713 248.307 429.243 250.327C426.549 243.899 423.733 237.288 420.733 230.676C419.998 229.146 419.141 227.615 418.223 226.146C417.488 226.024 416.692 225.901 415.835 225.84C392.326 223.942 385.469 232.696 371.45 237.227C349.838 244.205 349.9 234.9 350.022 234.104C351.491 222.167 379.714 212.066 394.04 212.311C396.489 212.372 401.326 212.434 406.774 213.658C375.123 187.885 309.738 181.151 308.575 230.064C308.33 241.267 297.188 234.104 285.739 245.797C276.005 255.714 279.189 272.059 279.984 277.324C284.025 303.77 307.044 329.114 335.574 338.235C362.756 346.928 393.428 340.317 412.529 326.971C419.202 322.319 437.63 302.484 446.385 303.096C456.976 303.77 463.098 302.056 466.527 300.464C469.282 298.995 468.669 295.934 465.67 297.22ZM427.896 273.59C427.835 273.957 427.528 274.324 425.998 274.875C424.712 275.365 416.815 278.181 410.876 273.59C409.835 272.794 408.795 271.998 408.917 271.08C409.162 269.243 414.305 268.08 418.529 268.57C423.427 269.121 428.202 271.937 427.896 273.59Z" fill="#9FBC50"/>
<path d="M228.803 380.965C275.393 422.716 239.333 489.932 302.085 522.133C339.859 541.477 314.881 571.658 373.592 591.798C528.85 644.935 419.264 492.81 397.897 470.465C364.899 435.816 191.703 347.724 228.803 380.965Z" fill="#1E1735"/>
<path d="M225.987 391.679C228.619 386.169 231.803 381.701 237.007 379.497C237.986 379.068 243.19 376.864 248.578 378.946C255.312 381.517 258.128 388.863 259.108 392.72C265.781 419.227 254.21 438.571 242.639 448.489C241.292 449.652 232.721 455.651 226.048 447.938C215.457 435.572 218.028 408.391 225.987 391.679Z" fill="#EB9E6C"/>
<path d="M173.579 232.575C173.09 227.494 175.11 223.27 178.355 220.271C176.763 221.128 175.049 221.74 173.151 222.046C166.723 223.209 155.703 221.128 153.376 210.476C152.458 201.048 159.805 196.396 162.988 194.865C167.151 192.845 171.069 192.723 174.253 193.274C170.212 191.498 166.968 188.193 165.927 183.234C164.335 167.317 183.62 160.89 193.783 167.44C195.558 168.542 197.884 170.623 199.231 173.99C199.292 161.624 215.271 152.993 227.087 160.033C235.964 165.359 236.209 176.316 229.72 183.05C229.965 182.867 230.209 182.744 230.516 182.622C233.577 181.214 235.352 180.969 237.556 180.663C237.801 180.602 243.556 179.928 248.882 183.356C261.004 191.131 257.086 208.517 242.392 212.006C238.964 212.802 236.27 212.496 235.107 212.373C234.74 212.312 234.372 212.19 234.005 212.067C234.556 212.373 235.107 212.68 235.658 212.986C247.413 220.76 243.433 237.84 229.046 241.084C225.189 241.941 219.251 242.125 213.19 237.717C212.455 237.167 210.129 235.085 208.843 232.453C208.415 231.535 208.231 230.616 208.108 229.637C208.108 236.554 202.782 243.472 193.844 245.064C189.069 245.982 176.273 245.308 173.579 232.575Z" fill="white"/>
<path d="M206.58 212.557C216.559 210.17 219.252 198.539 211.049 193.458C203.274 188.621 190.846 194.07 191.886 204.232C193.539 212.006 201.498 213.782 206.58 212.557Z" fill="#FFBCB0"/>
<path d="M173.214 222.106C185.825 219.78 192.988 204.782 182.213 196.395C182.152 196.334 173.336 189.845 163.051 194.865C159.868 196.456 152.582 201.048 153.439 210.475C155.766 221.188 166.786 223.27 173.214 222.106Z" fill="#AE9AE3"/>
<path d="M242.456 212.068C257.149 208.579 261.067 191.132 248.945 183.418C243.619 179.99 237.864 180.664 237.619 180.725C235.415 181.031 233.64 181.214 230.579 182.684C228.62 183.602 227.211 185.377 225.375 186.479C225.314 186.54 220.11 190.581 220.967 199.457C221.946 203.865 223.661 207.293 229.109 210.476C229.966 210.966 231.007 210.905 231.864 211.211C233.027 211.578 234.007 212.313 235.231 212.497C236.272 212.558 238.966 212.925 242.456 212.068Z" fill="#AE9AE3"/>
<path d="M186.622 194.192C193.111 192.6 198.131 188.009 199.662 182.193C200.213 180.173 200.213 180.173 199.478 176.806C199.295 175.888 199.601 174.908 199.233 173.99C197.886 170.623 195.56 168.603 193.785 167.44C183.622 160.889 164.276 167.317 165.929 183.234C168.01 192.784 178.051 196.273 186.622 194.192Z" fill="#AE9AE3"/>
<path d="M229.048 241.207C243.435 237.963 247.414 220.822 235.66 213.108C225.375 206.313 209.029 211.639 207.437 225.658C208.171 227.923 207.865 230.433 208.906 232.637C210.131 235.269 212.518 237.35 213.253 237.901C219.253 242.187 225.191 242.064 229.048 241.207Z" fill="#AE9AE3"/>
<path d="M193.785 245.187C207.865 242.738 213.069 226.944 202.417 218.802C191.764 210.599 172.112 217.7 173.581 232.576C176.275 245.309 189.07 245.982 193.785 245.187Z" fill="#AE9AE3"/>
<path d="M221.763 187.887C235.538 183.663 238.782 166.95 227.089 160.033C214.477 152.503 197.152 162.849 199.417 176.5C201.376 186.662 212.763 190.641 221.763 187.887Z" fill="#AE9AE3"/>
<path d="M210.131 320.789C209.641 315.402 211.722 310.994 215.151 307.872C213.498 308.729 211.661 309.403 209.702 309.77C202.968 310.994 191.335 308.791 188.887 297.588C187.907 287.671 195.621 282.773 198.988 281.12C203.335 278.978 207.498 278.855 210.865 279.406C206.58 277.57 203.212 274.019 202.049 268.816C200.335 252.042 220.722 245.308 231.374 252.226C233.211 253.389 235.721 255.593 237.129 259.143C237.19 246.104 253.965 237.044 266.454 244.451C275.821 250.022 276.066 261.592 269.209 268.693C269.454 268.51 269.76 268.387 270.066 268.265C273.311 266.734 275.148 266.551 277.474 266.245C277.719 266.183 283.78 265.51 289.413 269.061C302.208 277.202 298.045 295.568 282.617 299.241C279.005 300.098 276.127 299.73 274.964 299.608C274.536 299.547 274.168 299.424 273.801 299.302C274.413 299.608 274.964 299.914 275.515 300.281C287.882 308.423 283.658 326.421 268.536 329.849C264.434 330.768 258.251 330.951 251.884 326.36C251.088 325.809 248.639 323.605 247.292 320.85C246.863 319.932 246.619 318.891 246.496 317.912C246.496 325.197 240.864 332.482 231.436 334.135C226.415 334.93 212.947 334.257 210.131 320.789Z" fill="white"/>
<path d="M244.782 299.731C255.251 297.221 258.128 284.977 249.496 279.59C241.292 274.509 228.252 280.202 229.293 290.915C231.068 299.18 239.456 301.077 244.782 299.731Z" fill="#FFD700"/>
<path d="M209.641 309.769C222.865 307.321 230.395 291.588 219.069 282.711C219.008 282.65 209.702 275.794 198.927 281.12C195.56 282.772 187.907 287.67 188.825 297.587C191.335 308.79 202.906 311.055 209.641 309.769Z" fill="#D5C7F4"/>
<path d="M282.556 299.241C297.984 295.568 302.147 277.264 289.351 269.061C283.719 265.449 277.658 266.184 277.413 266.245C275.087 266.551 273.25 266.796 270.005 268.265C267.924 269.245 266.454 271.142 264.495 272.244C264.434 272.306 258.985 276.53 259.842 285.896C260.883 290.548 262.659 294.099 268.414 297.466C269.332 298.017 270.373 297.894 271.352 298.201C272.577 298.568 273.617 299.364 274.903 299.547C276.066 299.792 278.882 300.098 282.556 299.241Z" fill="#D5C7F4"/>
<path d="M223.783 280.447C230.64 278.794 235.844 273.957 237.497 267.836C238.048 265.754 238.048 265.754 237.313 262.143C237.129 261.163 237.435 260.122 237.007 259.143C235.599 255.592 233.089 253.45 231.252 252.225C220.538 245.308 200.213 252.103 201.927 268.815C204.192 278.916 214.783 282.65 223.783 280.447Z" fill="#D5C7F4"/>
<path d="M268.475 329.85C283.596 326.422 287.821 308.424 275.454 300.282C264.618 293.12 247.414 298.752 245.7 313.505C246.496 315.893 246.129 318.525 247.231 320.851C248.578 323.606 251.026 325.81 251.822 326.361C258.189 330.952 264.373 330.83 268.475 329.85Z" fill="#D5C7F4"/>
<path d="M231.374 334.073C246.19 331.502 251.639 314.912 240.496 306.28C229.293 297.649 208.661 305.117 210.13 320.789C212.947 334.257 226.415 334.93 231.374 334.073Z" fill="#D5C7F4"/>
<path d="M260.761 273.774C275.27 269.305 278.637 251.797 266.393 244.451C253.108 236.554 234.925 247.389 237.313 261.775C239.333 272.488 251.333 276.712 260.761 273.774Z" fill="#D5C7F4"/>
<path d="M278.515 194.314C278.086 198.661 279.801 202.273 282.556 204.783C281.209 204.048 279.739 203.558 278.148 203.252C272.699 202.273 263.271 204.048 261.312 213.108C260.516 221.128 266.76 225.107 269.515 226.454C273.066 228.168 276.372 228.29 279.127 227.861C275.699 229.392 272.944 232.208 272.025 236.432C270.679 250.022 287.147 255.471 295.779 249.9C297.249 248.92 299.269 247.206 300.432 244.329C300.494 254.92 314.085 262.266 324.186 256.266C331.778 251.736 331.961 242.37 326.39 236.616C326.635 236.738 326.819 236.86 327.064 236.983C329.696 238.207 331.166 238.391 333.063 238.636C333.247 238.636 338.206 239.248 342.736 236.309C353.083 229.698 349.777 214.822 337.226 211.884C334.288 211.21 331.961 211.455 330.982 211.578C330.676 211.639 330.308 211.7 330.002 211.823C330.492 211.578 330.921 211.333 331.41 211.027C341.451 204.415 338.022 189.846 325.778 187.03C322.472 186.295 317.452 186.172 312.248 189.907C311.636 190.335 309.616 192.111 308.514 194.376C308.146 195.171 307.963 195.967 307.84 196.763C307.84 190.825 303.31 184.948 295.657 183.601C291.678 182.867 280.78 183.479 278.515 194.314Z" fill="white"/>
<path d="M306.616 211.392C315.126 213.473 317.452 223.329 310.412 227.675C303.739 231.838 293.209 227.186 294.066 218.493C295.474 211.881 302.269 210.351 306.616 211.392Z" fill="#FFD700"/>
<path d="M278.148 203.252C288.862 205.211 294.984 218.005 285.801 225.167C285.739 225.229 278.209 230.799 269.454 226.453C266.761 225.106 260.516 221.127 261.251 213.108C263.271 204.047 272.638 202.272 278.148 203.252Z" fill="#FFBCB0"/>
<path d="M337.227 211.821C349.777 214.821 353.083 229.636 342.737 236.247C338.145 239.186 333.247 238.573 333.064 238.573C331.166 238.329 329.697 238.145 327.064 236.921C325.35 236.125 324.187 234.594 322.595 233.676C322.534 233.676 318.126 230.187 318.799 222.596C319.656 218.8 321.064 215.923 325.778 213.229C326.513 212.801 327.37 212.862 328.166 212.617C329.146 212.311 330.003 211.638 331.043 211.515C331.962 211.393 334.288 211.148 337.227 211.821Z" fill="#FFBCB0"/>
<path d="M289.596 227.064C295.106 228.411 299.392 232.329 300.739 237.288C301.167 239.002 301.167 239.002 300.616 241.879C300.433 242.675 300.678 243.532 300.371 244.267C299.208 247.144 297.188 248.858 295.719 249.837C287.025 255.469 270.557 249.96 271.965 236.37C273.679 228.289 282.311 225.289 289.596 227.064Z" fill="#FFBCB0"/>
<path d="M325.778 186.968C338.023 189.784 341.451 204.354 331.411 210.965C322.595 216.781 308.697 212.19 307.289 200.252C307.902 198.293 307.657 196.212 308.514 194.314C309.555 192.049 311.575 190.274 312.248 189.845C317.452 186.111 322.472 186.233 325.778 186.968Z" fill="#FFBCB0"/>
<path d="M295.719 183.6C307.718 185.682 312.126 199.15 303.065 206.128C294.004 213.107 277.23 207.047 278.454 194.375C280.781 183.478 291.678 182.866 295.719 183.6Z" fill="#FFBCB0"/>
<path d="M319.534 232.453C331.288 236.065 334.043 250.267 324.064 256.205C313.289 262.633 298.535 253.818 300.494 242.187C302.208 233.494 311.881 230.065 319.534 232.453Z" fill="#FFBCB0"/>
<path d="M473.996 136.22C473.751 138.669 474.731 140.689 476.261 142.097C475.527 141.668 474.669 141.423 473.812 141.24C470.751 140.689 465.486 141.668 464.384 146.749C463.956 151.279 467.445 153.483 468.976 154.218C470.935 155.197 472.833 155.259 474.363 155.014C472.404 155.871 470.874 157.462 470.384 159.789C469.588 167.38 478.832 170.44 483.73 167.318C484.587 166.767 485.689 165.788 486.302 164.196C486.302 170.134 493.954 174.236 499.587 170.869C503.811 168.359 503.933 163.094 500.811 159.85C500.933 159.911 501.056 159.972 501.178 160.034C502.648 160.707 503.505 160.829 504.546 160.952C504.668 160.952 507.423 161.319 509.994 159.666C515.81 155.932 513.912 147.668 506.933 145.953C505.28 145.586 503.995 145.709 503.444 145.77C503.26 145.77 503.076 145.831 502.893 145.892C503.137 145.77 503.444 145.586 503.688 145.464C509.321 141.729 507.362 133.588 500.505 132.057C498.668 131.629 495.852 131.567 492.913 133.649C492.546 133.894 491.444 134.873 490.832 136.159C490.648 136.587 490.526 137.016 490.465 137.505C490.465 134.2 487.893 130.894 483.669 130.159C481.404 129.792 475.282 130.098 473.996 136.22Z" fill="white"/>
<path d="M489.73 145.769C494.505 146.932 495.791 152.442 491.873 154.891C488.138 157.217 482.261 154.585 482.689 149.748C483.485 146.014 487.281 145.157 489.73 145.769Z" fill="#FFD700"/>
<path d="M473.751 141.177C479.751 142.279 483.179 149.442 478.037 153.421C477.975 153.482 473.812 156.543 468.915 154.155C467.384 153.421 463.894 151.217 464.323 146.687C465.425 141.667 470.69 140.626 473.751 141.177Z" fill="#FFBCB0"/>
<path d="M506.872 146.015C513.913 147.668 515.749 155.993 509.933 159.728C507.362 161.381 504.607 161.013 504.485 161.013C503.444 160.891 502.587 160.768 501.117 160.095C500.199 159.667 499.526 158.809 498.607 158.32C498.607 158.32 496.097 156.361 496.526 152.137C497.016 149.994 497.812 148.403 500.444 146.872C500.873 146.627 501.362 146.688 501.791 146.505C502.342 146.321 502.832 145.954 503.383 145.893C503.934 145.77 505.219 145.587 506.872 146.015Z" fill="#FFBCB0"/>
<path d="M480.179 154.523C483.302 155.258 485.689 157.462 486.424 160.217C486.669 161.196 486.669 161.196 486.363 162.788C486.302 163.216 486.424 163.706 486.24 164.135C485.628 165.726 484.465 166.706 483.669 167.257C478.833 170.379 469.588 167.318 470.323 159.727C471.302 155.197 476.078 153.544 480.179 154.523Z" fill="#FFBCB0"/>
<path d="M500.444 132.119C507.301 133.711 509.199 141.852 503.627 145.526C498.73 148.77 490.893 146.199 490.159 139.526C490.526 138.424 490.342 137.261 490.832 136.22C491.444 134.935 492.546 133.955 492.914 133.711C495.791 131.629 498.607 131.69 500.444 132.119Z" fill="#FFBCB0"/>
<path d="M483.608 130.159C490.342 131.322 492.791 138.852 487.71 142.77C482.628 146.688 473.261 143.26 473.935 136.159C475.282 130.098 481.404 129.792 483.608 130.159Z" fill="#FFBCB0"/>
<path d="M496.954 157.523C503.566 159.544 505.097 167.502 499.526 170.808C493.526 174.419 485.2 169.461 486.302 162.972C487.22 158.136 492.669 156.238 496.954 157.523Z" fill="#FFBCB0"/>
<path d="M267.067 166.46C267.557 163.828 269.148 162.052 271.169 161.073C270.25 161.256 269.332 161.318 268.353 161.256C264.985 160.95 259.843 158.318 260.21 152.686C261.128 147.911 265.414 146.625 267.189 146.319C269.516 145.891 271.475 146.381 273.005 147.115C271.23 145.646 270.128 143.565 270.312 140.932C271.781 132.79 282.25 132.362 286.352 137.076C287.086 137.871 287.943 139.218 288.127 141.116C289.903 134.994 299.086 132.974 303.922 138.177C307.596 142.095 306.126 147.544 301.963 149.992C302.086 149.931 302.269 149.931 302.392 149.87C304.106 149.625 305.024 149.748 306.187 149.931C306.31 149.931 309.249 150.421 311.453 152.87C316.35 158.44 311.942 166.521 304.167 166.154C302.331 166.093 301.045 165.542 300.494 165.297C300.31 165.236 300.127 165.113 300.004 164.991C300.249 165.236 300.494 165.419 300.678 165.664C305.392 171.174 300.984 179.071 293.392 178.642C291.372 178.52 288.433 177.785 285.984 174.724C285.678 174.357 284.821 173.01 284.576 171.48C284.515 170.99 284.515 170.5 284.576 169.949C283.597 173.377 279.985 176.071 275.332 175.581C272.822 175.275 266.577 173.133 267.067 166.46Z" fill="white"/>
<path d="M286.229 161.196C291.494 161.441 294.494 156.054 291.188 152.381C288.005 148.891 281.086 149.809 280.168 155.013C279.862 159.114 283.535 161.073 286.229 161.196Z" fill="#FFD700"/>
<path d="M199.417 96.3056C199.417 93.4284 198.07 91.1633 196.049 89.6941C196.968 90.0614 198.008 90.3063 199.049 90.4287C202.723 90.7348 208.783 88.8983 209.457 82.8378C209.396 77.5119 205.049 75.3081 203.212 74.6347C200.763 73.7164 198.559 73.9001 196.845 74.3898C198.988 73.1655 200.641 71.1453 200.947 68.2681C200.947 59.2691 189.744 56.7592 184.417 61.0444C183.499 61.779 182.274 63.0646 181.724 65.0235C180.989 58.106 171.561 54.1881 165.316 58.7794C160.663 62.2688 161.153 68.3905 165.194 71.8187C165.071 71.7575 164.888 71.6962 164.704 71.635C162.928 71.0228 161.888 70.9616 160.663 70.9616C160.541 70.9616 157.296 70.9004 154.48 73.1042C148.113 78.1241 151.296 87.674 159.745 88.7759C161.704 89.0207 163.235 88.7147 163.847 88.531C164.092 88.4698 164.275 88.4086 164.459 88.2861C164.153 88.4698 163.847 88.6534 163.602 88.8983C157.48 93.9181 160.663 103.223 168.928 104.264C171.132 104.509 174.438 104.264 177.622 101.509C177.989 101.203 179.213 99.8562 179.764 98.3258C179.948 97.7748 180.009 97.2851 180.009 96.7341C180.377 100.591 183.805 104.203 188.886 104.57C191.519 104.754 198.621 103.652 199.417 96.3056Z" fill="white"/>
<path d="M179.826 86.9993C174.132 86.2035 171.928 79.8981 176.214 76.5312C180.315 73.3479 187.54 75.7354 187.54 81.4898C187.111 85.9586 182.764 87.4278 179.826 86.9993Z" fill="#FFBCB0"/>
<path d="M199.049 90.4284C191.886 89.8775 186.989 81.858 192.56 76.5321C192.621 76.4709 197.151 72.3693 203.212 74.5731C205.11 75.2465 209.457 77.4504 209.457 82.7763C208.784 88.9592 202.723 90.7345 199.049 90.4284Z" fill="#FFD700"/>
<path d="M159.684 88.7746C151.235 87.6727 148.052 78.1228 154.419 73.103C157.235 70.8992 160.48 70.9604 160.602 70.9604C161.888 71.0216 162.867 71.0216 164.643 71.6338C165.806 72.0623 166.663 72.9806 167.765 73.4703C167.826 73.4703 170.949 75.4905 170.949 80.5103C170.643 83.0202 169.908 85.0404 167.03 87.1218C166.602 87.4279 165.99 87.4891 165.5 87.6727C164.888 87.9176 164.337 88.4073 163.663 88.591C163.174 88.7134 161.704 89.0195 159.684 88.7746Z" fill="#FFD700"/>
<path d="M189.927 75.6131C186.193 75.0621 183.132 72.7971 181.968 69.675C181.54 68.5731 181.54 68.5731 181.724 66.6141C181.785 66.0632 181.54 65.5734 181.724 65.0225C182.275 63.0635 183.499 61.7779 184.417 61.0433C189.744 56.7581 200.947 59.268 200.947 68.267C200.274 73.7153 194.825 76.2865 189.927 75.6131Z" fill="#FFD700"/>
<path d="M168.867 104.323C160.663 103.282 157.419 93.9774 163.541 88.9575C168.928 84.5499 178.356 86.6313 180.071 94.4059C179.765 95.6914 180.132 97.0994 179.642 98.385C179.091 99.9154 177.867 101.262 177.499 101.568C174.377 104.323 171.071 104.568 168.867 104.323Z" fill="#FFD700"/>
<path d="M188.825 104.569C180.805 104.019 177.009 95.4481 182.458 90.2446C187.968 85.0412 199.355 87.9184 199.416 96.3052C198.621 103.651 191.519 104.753 188.825 104.569Z" fill="#FFD700"/>
<path d="M169.908 74.0827C161.949 72.491 159.194 63.3696 165.316 58.7783C171.928 53.8809 182.213 58.6559 181.724 66.4305C181.234 72.1849 175.112 75.0622 169.908 74.0827Z" fill="#FFD700"/>
<path d="M299.514 356.479C299.82 358.132 303.861 359.356 304.902 359.54C308.33 360.152 312.493 359.601 317.146 358.744C319.534 361.621 319.717 364.07 321.187 366.886C324.187 372.334 325.901 370.498 326.023 370.314C327.921 367.743 324.431 360.703 321.615 357.887C324.187 357.397 326.819 356.846 329.513 356.357C330.125 356.234 330.799 356.173 331.472 356.173C331.656 356.357 331.901 356.601 332.084 356.846C337.594 363.703 336.37 367.682 337.9 372.946C340.288 381.088 343.165 379.129 343.349 378.946C346.716 375.946 343.9 365.111 340.839 360.764C340.288 360.03 339.247 358.56 337.717 357.091C352.349 361.438 368.205 380.231 353.328 390.883C349.9 393.332 354.491 395.23 353.267 401.229C352.226 406.31 346.532 408.759 344.757 409.616C335.757 413.901 323.023 412.187 314.208 405.269C305.759 398.719 301.351 387.822 301.473 379.129C301.535 376.068 303.739 366.213 301.718 363.641C299.269 360.519 298.535 358.254 298.29 356.846C298.229 355.744 299.331 355.255 299.514 356.479ZM314.82 363.152C314.697 363.274 314.697 363.397 314.82 364.009C314.942 364.498 315.738 367.559 318.371 368.416C318.799 368.539 319.289 368.722 319.534 368.478C320.024 367.988 319.35 366.213 318.309 364.988C317.146 363.58 315.248 362.723 314.82 363.152Z" fill="#7CA417"/>
<path d="M341.145 413.473C340.839 410.596 342.002 408.208 343.839 406.555C342.92 407.045 341.941 407.351 340.9 407.596C337.288 408.269 331.043 407.045 329.758 401.046C329.268 395.72 333.37 393.087 335.145 392.23C337.472 391.067 339.676 391.006 341.512 391.312C339.247 390.333 337.41 388.435 336.798 385.619C335.88 376.62 346.777 373.008 352.532 376.742C353.512 377.355 354.858 378.518 355.593 380.416C355.654 373.437 364.654 368.539 371.327 372.518C376.347 375.518 376.47 381.701 372.796 385.497C372.919 385.435 373.103 385.313 373.225 385.252C374.939 384.456 375.98 384.333 377.204 384.15C377.327 384.15 380.572 383.721 383.633 385.68C390.489 390.027 388.285 399.883 379.959 401.842C378 402.331 376.47 402.148 375.857 402.025C375.613 402.025 375.429 401.903 375.245 401.842C375.551 402.025 375.857 402.148 376.164 402.393C382.776 406.8 380.51 416.411 372.429 418.248C370.225 418.738 366.919 418.799 363.491 416.35C363.062 416.044 361.777 414.881 361.042 413.412C360.797 412.922 360.675 412.371 360.613 411.82C360.613 415.738 357.613 419.656 352.532 420.513C349.9 421.003 342.675 420.635 341.145 413.473Z" fill="white"/>
<path d="M359.756 402.146C365.389 400.8 366.919 394.249 362.266 391.372C357.858 388.617 350.879 391.678 351.43 397.433C352.41 401.84 356.879 402.881 359.756 402.146Z" fill="#FFD700"/>
<path d="M340.9 407.534C348.002 406.249 352.042 397.801 345.981 393.026C345.92 392.964 340.961 389.291 335.206 392.169C333.431 393.026 329.268 395.658 329.819 400.984C331.043 407.045 337.288 408.208 340.9 407.534Z" fill="#AE9AE3"/>
<path d="M379.959 401.902C388.224 399.943 390.428 390.087 383.633 385.741C380.633 383.843 377.388 384.211 377.204 384.211C375.98 384.394 374.939 384.517 373.225 385.313C372.123 385.863 371.327 386.843 370.286 387.455C370.286 387.455 367.348 389.781 367.776 394.801C368.327 397.311 369.307 399.209 372.368 400.984C372.858 401.29 373.409 401.229 373.96 401.413C374.633 401.596 375.184 402.025 375.858 402.147C376.47 402.147 378 402.331 379.959 401.902Z" fill="#AE9AE3"/>
<path d="M348.491 391.803C352.165 390.884 354.981 388.313 355.838 385.069C356.144 383.967 356.144 383.967 355.777 382.008C355.654 381.457 355.838 380.906 355.654 380.416C354.92 378.518 353.573 377.355 352.593 376.743C346.838 373.009 335.941 376.682 336.859 385.62C337.961 391.007 343.655 392.966 348.491 391.803Z" fill="#AE9AE3"/>
<path d="M372.429 418.308C380.51 416.472 382.776 406.799 376.164 402.453C370.348 398.596 361.103 401.657 360.246 409.554C360.675 410.84 360.491 412.248 361.042 413.472C361.777 414.941 363.062 416.166 363.491 416.41C366.919 418.859 370.225 418.798 372.429 418.308Z" fill="#AE9AE3"/>
<path d="M352.532 420.574C360.491 419.228 363.429 410.29 357.43 405.699C351.43 401.046 340.349 405.086 341.145 413.473C342.675 420.636 349.899 421.003 352.532 420.574Z" fill="#AE9AE3"/>
<path d="M368.327 388.251C376.102 385.863 377.939 376.436 371.327 372.518C364.225 368.294 354.43 374.11 355.716 381.823C356.818 387.578 363.246 389.781 368.327 388.251Z" fill="#AE9AE3"/>
</svg>
