<svg width="18" height="11" viewBox="0 0 18 11" fill="none" xmlns="http://www.w3.org/2000/svg">
<path d="M13.3199 10.7426C13.4283 10.743 13.5355 10.7191 13.6335 10.6726C13.7315 10.6261 13.8178 10.5583 13.8861 10.474L17.3926 6.1182C17.4994 5.9883 17.5577 5.82536 17.5577 5.6572C17.5577 5.48905 17.4994 5.32611 17.3926 5.19621L13.7627 0.840384C13.6395 0.692128 13.4624 0.598896 13.2705 0.581197C13.0785 0.563498 12.8874 0.622782 12.7391 0.746008C12.5909 0.869233 12.4976 1.04631 12.4799 1.23827C12.4622 1.43024 12.5215 1.62137 12.6447 1.76963L15.8898 5.66083L12.7536 9.55204C12.6649 9.6586 12.6085 9.78836 12.5911 9.92597C12.5738 10.0636 12.5962 10.2033 12.6558 10.3285C12.7154 10.4538 12.8096 10.5593 12.9273 10.6327C13.045 10.7061 13.1812 10.7443 13.3199 10.7426Z" fill="#10AA42"/>
<path d="M7.05924 9.71404C7.14574 9.71434 7.2312 9.69525 7.30935 9.65818C7.38749 9.62111 7.45634 9.567 7.51083 9.49983L10.3072 6.02608C10.3924 5.92249 10.4389 5.79255 10.4389 5.65844C10.4389 5.52434 10.3924 5.3944 10.3072 5.29081L7.41241 1.81706C7.31414 1.69883 7.17292 1.62447 7.01983 1.61036C6.86674 1.59625 6.71431 1.64352 6.59608 1.7418C6.47785 1.84007 6.40349 1.98128 6.38938 2.13437C6.37526 2.28746 6.42254 2.43989 6.52081 2.55813L9.10876 5.66134L6.60766 8.76455C6.53686 8.84954 6.49189 8.95302 6.47806 9.06276C6.46424 9.1725 6.48214 9.28391 6.52965 9.38379C6.57715 9.48368 6.65228 9.56787 6.74613 9.62639C6.83999 9.68492 6.94864 9.71534 7.05924 9.71404Z" fill="#10AA42"/>
<path d="M0.995299 8.67343C1.05958 8.67364 1.1231 8.65946 1.18118 8.6319C1.23926 8.60435 1.29043 8.56414 1.33093 8.51421L3.40928 5.93241C3.47257 5.85542 3.50717 5.75884 3.50717 5.65917C3.50717 5.5595 3.47257 5.46293 3.40928 5.38593L1.25778 2.80413C1.18474 2.71625 1.07979 2.66099 0.966005 2.6505C0.852223 2.64001 0.738933 2.67515 0.651058 2.74819C0.563184 2.82123 0.507923 2.92618 0.497432 3.03997C0.486942 3.15375 0.522081 3.26704 0.595119 3.35491L2.51856 5.66132L0.659664 7.96773C0.607046 8.03089 0.573622 8.10781 0.563346 8.18937C0.553071 8.27093 0.566374 8.35373 0.601683 8.42797C0.636992 8.50221 0.692827 8.56478 0.762583 8.60828C0.83234 8.65178 0.913097 8.67439 0.995299 8.67343Z" fill="#10AA42"/>
</svg>
