<svg width="137" height="133" viewBox="0 0 137 133" fill="none" xmlns="http://www.w3.org/2000/svg">
<path fill-rule="evenodd" clip-rule="evenodd" d="M45.7251 27.0179C68.8806 12.5239 90.219 25.8122 106.699 37.6598C120.373 47.4898 130.503 62.5776 120.257 80.5992C110.165 98.3515 86.9079 106.203 66.6249 108.149C46.4414 110.085 27.3165 105.78 23.2277 89.9077C17.9824 69.5459 21.5662 42.1399 45.7251 27.0179Z" fill="#EEFFF4"/>
<path d="M84.709 69.4255H78.5165C84.2971 63.1885 84.5842 54.4663 84.4135 50.8188C84.3841 50.1887 83.9942 49.652 83.3962 49.4177C82.7885 49.1795 82.0981 49.3191 81.6372 49.773L75.9159 55.407C75.6047 55.7135 75.6009 56.2142 75.9074 56.5256C76.2139 56.8367 76.7146 56.8405 77.026 56.5341L82.7471 50.9002C82.7568 50.8907 82.7656 50.882 82.7874 50.8843C82.8072 50.8847 82.8245 50.892 82.8335 50.8979C83.0042 54.5579 82.6946 63.6153 76.2675 69.4255H72.2428C72.3122 69.2802 72.3789 69.1339 72.4452 68.9874C73.9981 67.42 76.9159 64.2119 78.8485 60.4795C79.0493 60.0916 78.8977 59.6142 78.5097 59.4134C78.1219 59.2125 77.6446 59.3639 77.4436 59.7522C76.4088 61.7508 75.0487 63.6167 73.795 65.1312C74.251 63.3275 74.4868 61.4771 74.4868 59.6269C74.4868 52.4442 71.0363 43.6553 69.5528 40.21C69.3095 39.6452 68.7485 39.2804 68.1234 39.2804C67.4983 39.2804 66.9373 39.6452 66.6941 40.2099C65.2105 43.6552 61.7599 52.4443 61.7599 59.6268C61.7599 61.4769 61.9958 63.3274 62.4518 65.1311C61.1982 63.6165 59.8381 61.7508 58.8031 59.7522C58.6022 59.3642 58.1246 59.2127 57.737 59.4134C57.349 59.6142 57.1974 60.0917 57.3983 60.4795C59.3309 64.2119 62.2488 67.42 63.8016 68.9874C63.8678 69.1339 63.9346 69.2802 64.004 69.4255H59.9792C53.5536 63.6168 53.2427 54.5626 53.4132 50.8978C53.4224 50.8918 53.4396 50.8847 53.4592 50.8843C53.4791 50.8818 53.4898 50.8908 53.4994 50.9002L59.229 56.5422C59.5401 56.8486 60.041 56.8449 60.3476 56.5337C60.6541 56.2223 60.6503 55.7216 60.339 55.4151L54.6093 49.773C54.1485 49.3192 53.4579 49.1796 52.8504 49.4177C52.2523 49.652 51.8625 50.1888 51.8331 50.8187C51.6624 54.4663 51.9495 63.1886 57.7302 69.4255H51.5378C49.8543 69.4255 48.4848 70.795 48.4848 72.4783C48.4848 74.1618 49.8543 75.5314 51.5378 75.5314H52.1427L55.6839 90.7165C56.0358 92.2261 57.3642 93.2804 58.9143 93.2804H77.3326C78.8826 93.2804 80.211 92.2261 80.563 90.7165L84.1041 75.5314H84.7091C86.3926 75.5314 87.7621 74.1618 87.7621 72.4783C87.762 70.7951 86.3925 69.4255 84.709 69.4255ZM68.1234 40.8909C69.5807 44.2839 72.9047 52.7759 72.9047 59.6269C72.9047 63.8141 71.6322 67.2072 70.4761 69.4256H68.9144V54.0447C68.9144 53.6078 68.5603 53.2537 68.1234 53.2537C67.6864 53.2537 67.3324 53.6078 67.3324 54.0447V69.4255H65.7707C64.6145 67.207 63.3419 63.8139 63.3419 59.6268C63.3419 52.7763 66.6659 44.2838 68.1234 40.8909ZM84.709 73.9494H59.9496C59.5127 73.9494 59.1586 74.3035 59.1586 74.7404C59.1586 75.1774 59.5127 75.5315 59.9496 75.5315H82.4797L79.0223 90.3573C78.8382 91.1468 78.1433 91.6983 77.3326 91.6983H58.9143C58.1034 91.6983 57.4087 91.1468 57.2245 90.3573L53.7672 75.5315H56.252C56.689 75.5315 57.043 75.1774 57.043 74.7404C57.043 74.3035 56.689 73.9494 56.252 73.9494H51.5378C50.7267 73.9494 50.0668 73.2895 50.0668 72.4785C50.0668 71.6674 50.7267 71.0076 51.5378 71.0076H84.709C85.52 71.0076 86.1799 71.6674 86.1799 72.4785C86.1799 73.2895 85.52 73.9494 84.709 73.9494Z" fill="#0CA941"/>
</svg>
