<svg width="139" height="134" viewBox="0 0 139 134" fill="none" xmlns="http://www.w3.org/2000/svg">
<path fill-rule="evenodd" clip-rule="evenodd" d="M46.8153 27.0157C70.4504 12.3819 92.2307 25.7984 109.052 37.7602C123.009 47.685 133.349 62.9183 122.891 81.1138C112.59 99.0373 88.851 106.965 68.1479 108.929C47.5464 110.884 28.0254 106.538 23.8519 90.512C18.498 69.9539 22.1559 42.2835 46.8153 27.0157Z" fill="#EEFFF4"/>
<g clip-path="url(#clip0_10307_3)">
<path d="M95.8798 80.1389C95.3706 78.2943 93.4339 77.2033 91.5538 77.7021L86.7498 79.1447C87.3889 76.3273 85.8771 73.4657 83.1619 72.3542C83.6017 71.042 83.3733 69.6028 82.5481 68.4841C81.7234 67.3654 80.4014 66.7025 78.9937 66.7021C78.9058 66.7021 78.8179 66.7021 78.7305 66.7097C78.0437 64.4617 76.0925 62.8076 73.7263 62.467V61.2385C73.7246 60.5529 74.0023 59.8947 74.4979 59.4111L76.8684 57.0853C78.0253 58.0026 79.4665 58.5043 80.9539 58.5081C83.1658 58.4345 85.2559 57.4983 86.7614 55.9069C89.5944 53.1257 92.2825 42.6778 92.5791 41.4952C92.6524 41.2025 92.5646 40.8933 92.3472 40.6805C92.1303 40.4673 91.8153 40.3811 91.5169 40.453C90.3115 40.744 79.6654 43.3814 76.8281 46.161C73.7782 49.1542 73.3418 53.0319 75.6261 55.8682L73.2556 58.194C72.8197 58.6246 72.4819 59.1415 72.2646 59.7097C71.9263 59.3501 71.538 59.0393 71.111 58.7865L68.1199 57.0294C68.9064 55.4619 68.996 53.6451 68.3676 52.0103C67.6158 50.1943 66.2462 48.6899 64.4917 47.7529C61.0204 45.788 50.0364 45.944 48.7985 45.9688C48.4911 45.9751 48.2095 46.1383 48.056 46.3995C47.9021 46.6602 47.8987 46.9815 48.047 47.2457C48.6467 48.3118 53.9981 57.7225 57.4685 59.6882C58.8342 60.4873 60.3894 60.9222 61.9793 60.9491C62.3762 60.9495 62.7728 60.9176 63.1646 60.8536C64.7635 60.5954 66.2033 59.7522 67.194 58.4934L70.2104 60.2636C71.0407 60.7569 71.6361 61.5556 71.8633 62.4817C68.8932 62.9573 66.7096 65.4719 66.7031 68.4248V68.4849C64.9388 68.2385 63.1521 68.7545 61.8053 69.8993C60.4584 71.0441 59.683 72.7053 59.68 74.4541H59.4078C57.4167 74.4553 55.4303 74.6395 53.4743 75.0046C52.2577 75.2393 51.0905 75.6754 50.0231 76.2937V73.5927C50.0231 73.1171 49.6301 72.7314 49.1453 72.7314H43.8779C43.3931 72.7314 43 73.1171 43 73.5927V90.8193C43 91.295 43.3931 91.6807 43.8779 91.6807H49.1453C49.6301 91.6807 50.0231 91.295 50.0231 90.8193V88.0629C51.1544 88.7535 52.4035 89.2367 53.7105 89.4903C55.3947 89.802 57.1055 89.9584 58.8197 89.958H71.4175C73.034 89.9563 74.6432 89.7473 76.2048 89.3368L93.4 84.3594C95.2724 83.8656 96.3826 81.976 95.8798 80.1389V80.1389ZM78.0712 47.3773C79.9144 45.5684 86.7155 43.4946 90.5027 42.4903C89.4799 46.2022 87.3619 52.8805 85.5217 54.6872C83.5413 56.6286 80.5835 57.6304 78.1226 55.8543L80.7284 53.2981L82.645 54.2385C83.0783 54.4526 83.6069 54.2814 83.8251 53.8558C84.0433 53.4301 83.8688 52.9116 83.435 52.6975L82.041 52.0145L83.8319 50.2506L85.7536 51.1982C86.187 51.4122 86.7155 51.2407 86.9337 50.8155C87.1519 50.3898 86.9774 49.8713 86.5436 49.6572L85.1389 48.97L87.3821 46.7683C87.6101 46.5521 87.7019 46.2317 87.6213 45.9305C87.5411 45.6294 87.3015 45.3943 86.9941 45.3157C86.6872 45.2366 86.361 45.3266 86.1407 45.5503L83.8984 47.7529L83.2022 46.3835C82.9853 45.9579 82.4576 45.7854 82.0243 45.9982C81.5905 46.211 81.4147 46.7288 81.6316 47.154L82.5931 49.0352L80.7979 50.7965L80.1017 49.4288C79.8844 49.0036 79.3572 48.8312 78.9234 49.044C78.4895 49.2568 78.3142 49.7741 78.5311 50.1997L79.4896 52.0801L76.8842 54.6363C75.0701 52.2231 76.0968 49.3195 78.0712 47.3773V47.3773ZM62.8722 59.1541C61.296 59.3564 59.6976 59.0179 58.3464 58.1965C56.0938 56.9209 52.289 51.0102 50.3164 47.6797C54.2407 47.6889 61.3612 47.9699 63.6138 49.2455C66.0932 50.6502 67.8785 53.2775 66.6075 56.142L63.4548 54.2936L63.9151 52.086C63.9992 51.6259 63.6935 51.1839 63.2263 51.0901C62.7595 50.9967 62.3017 51.2857 62.1954 51.7416L61.858 53.3565L59.6633 52.0717L60.1091 49.9327C60.1935 49.4726 59.8879 49.0306 59.4206 48.9368C58.9538 48.8434 58.496 49.1323 58.3893 49.5882L58.0665 51.1389L55.345 49.5399C54.9287 49.2959 54.3895 49.4288 54.1404 49.8372C53.8914 50.2456 54.0273 50.7747 54.4435 51.019L57.1646 52.6151L56.0377 53.5959C55.6742 53.9117 55.6399 54.4568 55.9618 54.8134C56.2833 55.1705 56.8388 55.2037 57.2028 54.8878L58.7451 53.5462L60.9132 54.8185L59.8399 55.753C59.4759 56.0684 59.4421 56.613 59.7636 56.9697C60.0846 57.3267 60.6402 57.3604 61.0037 57.045L62.4963 55.753L65.6735 57.6178C64.9533 58.4379 63.961 58.9821 62.8722 59.1541ZM65.8252 70.1474C66.3662 70.1432 66.9029 70.2421 67.4053 70.4385C67.7109 70.5596 68.0603 70.5028 68.3093 70.2908C68.5588 70.0793 68.666 69.7483 68.5871 69.4341C68.5031 69.104 68.4602 68.765 68.4589 68.4248C68.4581 66.1676 70.2353 64.2935 72.5299 64.1316C74.8245 63.9701 76.8564 65.5754 77.1843 67.8099C77.219 68.0585 77.363 68.2801 77.5778 68.4164C77.793 68.5526 78.0583 68.5901 78.3035 68.5186C78.5277 68.4551 78.7605 68.4235 78.9937 68.4248C80.4481 68.4248 81.6273 69.5818 81.6273 71.0088C81.6282 71.5025 81.482 71.9862 81.2068 72.3996C81.0504 72.6359 81.0216 72.932 81.1292 73.1928C81.2368 73.4535 81.4679 73.6462 81.7478 73.7088C83.7282 74.1702 85.1299 75.9021 85.1389 77.8994C85.1423 78.5433 84.9962 79.1796 84.7115 79.76L80.3984 81.0562C80.1832 79.7104 79.1754 78.6173 77.832 78.2733L73.9728 77.2618L66.4922 75.1085C65.9658 74.9579 65.4274 74.8423 64.8878 74.7434C64.9246 74.6509 64.9448 74.5533 64.9473 74.4541C64.9473 73.9784 65.3404 73.5927 65.8252 73.5927C65.9148 73.5894 66.004 73.6028 66.0884 73.6323C66.5372 73.8068 67.0452 73.5936 67.2261 73.1545C67.407 72.7159 67.1931 72.2158 66.7469 72.0354C66.4537 71.9222 66.1407 71.8659 65.8252 71.8701C64.3708 71.8701 63.1916 73.0271 63.1916 74.4541C63.1916 74.4764 63.2031 74.4953 63.2048 74.5176C62.7393 74.4789 62.2725 74.4541 61.8044 74.4541H61.4358C61.4388 72.0766 63.402 70.1504 65.8252 70.1474V70.1474ZM48.2674 89.958H44.7558V74.4541H48.2674V89.958ZM92.9234 82.6977L75.7307 87.6789C74.3234 88.0465 72.8737 88.2337 71.4175 88.2353H58.8197C57.2165 88.2345 55.6167 88.0865 54.0414 87.7933C52.9127 87.5746 51.8355 87.1524 50.8642 86.548L50.0231 86.0311V78.3393L50.1187 78.2724C51.2178 77.4919 52.4755 76.9535 53.8061 76.6936C55.6527 76.35 57.5281 76.1772 59.4078 76.1767H61.8044C63.2241 76.1763 64.6366 76.3736 66.0001 76.7622L73.5 78.921L77.3776 79.9371C78.3082 80.1755 78.8663 81.1084 78.625 82.0218V82.0336L78.6199 82.0441V82.0517C78.4102 82.8028 77.7154 83.3243 76.9219 83.3256C76.7702 83.3264 76.6189 83.3075 76.4723 83.2688L66.0439 80.5296C65.7378 80.4405 65.4064 80.5212 65.1784 80.7408C64.9508 80.9603 64.8625 81.2837 64.9478 81.5857C65.0331 81.8877 65.2787 82.1202 65.5891 82.193L76.0192 84.933C76.3137 85.0104 76.6172 85.0491 76.9219 85.0483C78.3352 85.0432 79.6083 84.2088 80.154 82.9294L92.0339 79.3634C92.9731 79.1216 93.935 79.6704 94.1858 80.591C94.2248 80.7366 94.2441 80.8867 94.2428 81.0373C94.2372 81.82 93.6958 82.5017 92.9234 82.6977V82.6977Z" fill="#0CA941"/>
<path d="M71.1402 69.6806C71.4099 69.6806 71.6645 69.5586 71.8312 69.3505C71.9975 69.1423 72.0571 68.8702 71.9924 68.6132C71.9774 68.5514 71.9701 68.4883 71.9705 68.4248C71.9705 67.9491 72.3636 67.5634 72.8484 67.5634C73.2758 67.5601 73.641 67.865 73.7062 68.2793C73.7353 68.5068 73.8566 68.7129 74.0431 68.8512C74.2291 68.99 74.4645 69.0489 74.6955 69.0148C75.1748 68.9492 75.51 68.5156 75.4444 68.045C75.2464 66.7046 74.0255 65.7432 72.6491 65.8429C71.2727 65.943 70.2096 67.0705 70.2148 68.4248C70.2135 68.6279 70.2383 68.8306 70.2885 69.0275C70.3862 69.411 70.7373 69.6806 71.1402 69.6806V69.6806Z" fill="#0CA941"/>
<path d="M80.3036 76.036C80.2509 76.2589 80.2912 76.4932 80.4151 76.687C80.539 76.8809 80.7362 77.0189 80.9638 77.0698C81.3517 77.1652 81.6248 77.5063 81.6273 77.8991C81.6273 78.3748 82.0204 78.7605 82.5052 78.7605C82.9901 78.7605 83.3831 78.3748 83.3831 77.8991C83.3788 76.703 82.5404 75.6651 81.3543 75.3883C80.8819 75.2828 80.4117 75.5725 80.3036 76.036Z" fill="#0CA941"/>
<path d="M74.4392 72.3737C73.1815 72.0397 71.8647 72.6639 71.349 73.8381C71.1608 74.2763 71.3704 74.7819 71.8175 74.9665C72.2642 75.1515 72.7794 74.9459 72.968 74.5072C73.1382 74.122 73.5729 73.9197 73.9844 74.0341C74.2099 74.0934 74.4019 74.2385 74.5181 74.437C74.6342 74.6355 74.6655 74.871 74.6042 75.0918C74.4786 75.5515 74.7564 76.0238 75.2249 76.147C75.2995 76.1664 75.3762 76.1765 75.453 76.1765C75.8503 76.1761 76.1976 75.9145 76.3004 75.5381C76.6742 74.1603 75.8422 72.7455 74.4392 72.3737V72.3737Z" fill="#0CA941"/>
<path d="M78.1158 71.0086C78.6006 71.0086 78.9937 71.3942 78.9937 71.8699C78.9937 72.3456 79.3867 72.7312 79.8716 72.7312C80.3564 72.7312 80.7494 72.3456 80.7494 71.8699C80.7494 70.4429 79.5702 69.2859 78.1158 69.2859C77.631 69.2859 77.2379 69.6716 77.2379 70.1472C77.2379 70.6229 77.631 71.0086 78.1158 71.0086Z" fill="#0CA941"/>
</g>
<defs>
<clipPath id="clip0_10307_3">
<rect width="53" height="52" fill="white" transform="translate(43 40)"/>
</clipPath>
</defs>
</svg>
