<svg width="638" height="528" viewBox="0 0 638 528" fill="none" xmlns="http://www.w3.org/2000/svg">
<path d="M303.118 515.039C326.997 506.984 347.5 490.346 390.051 478.183C417.143 470.454 533.935 518.334 609.518 395.766C617.45 382.911 623.715 368.552 627.701 354.68C692.016 131.064 435.49 -51.3845 207.114 17.2828C146.176 35.6293 -7.95893 113.612 6.11623 309.159C15.8387 444.134 142.841 569.184 303.118 515.039Z" fill="white"/>
<mask id="mask0_2_538" style="mask-type:alpha" maskUnits="userSpaceOnUse" x="2" y="0" width="633" height="526">
<path d="M300.118 513.039C323.997 504.984 344.5 488.346 387.051 476.183C414.143 468.454 530.935 516.334 606.518 393.766C614.45 380.911 620.715 366.552 624.701 352.68C689.016 129.064 432.49 -53.3845 204.114 15.2828C143.176 33.6293 -10.9589 111.612 3.11623 307.159C12.8387 442.134 139.841 567.184 300.118 513.039Z" fill="white"/>
</mask>
<g mask="url(#mask0_2_538)">
<path d="M550.617 154.746H481.582C478.82 154.746 476.582 156.984 476.582 159.746V299.078C476.582 301.839 478.82 304.078 481.582 304.078H550.617C553.379 304.078 555.617 301.839 555.617 299.078V159.746C555.617 156.984 553.379 154.746 550.617 154.746Z" fill="#DEF4DE"/>
<path d="M550.617 -0.860229H481.582C478.82 -0.860229 476.582 1.37834 476.582 4.13977V143.472C476.582 146.233 478.82 148.472 481.582 148.472H550.617C553.379 148.472 555.617 146.233 555.617 143.472V4.13977C555.617 1.37835 553.379 -0.860229 550.617 -0.860229Z" fill="#DEF4DE"/>
<path d="M465.308 154.746H396.272C393.511 154.746 391.272 156.984 391.272 159.746V299.078C391.272 301.839 393.511 304.078 396.272 304.078H465.308C468.069 304.078 470.308 301.839 470.308 299.078V159.746C470.308 156.984 468.069 154.746 465.308 154.746Z" fill="#DEF4DE"/>
<path d="M465.308 -0.860229H396.272C393.511 -0.860229 391.272 1.37834 391.272 4.13977V143.472C391.272 146.233 393.511 148.472 396.272 148.472H465.308C468.069 148.472 470.308 146.233 470.308 143.472V4.13977C470.308 1.37835 468.069 -0.860229 465.308 -0.860229Z" fill="#DEF4DE"/>
<path d="M379.998 154.746H310.962C308.201 154.746 305.962 156.984 305.962 159.746V299.078C305.962 301.839 308.201 304.078 310.962 304.078H379.998C382.759 304.078 384.998 301.839 384.998 299.078V159.746C384.998 156.984 382.759 154.746 379.998 154.746Z" fill="#DEF4DE"/>
<path d="M379.998 -0.860229H310.962C308.201 -0.860229 305.962 1.37834 305.962 4.13977V143.472C305.962 146.233 308.201 148.472 310.962 148.472H379.998C382.759 148.472 384.998 146.233 384.998 143.472V4.13977C384.998 1.37835 382.759 -0.860229 379.998 -0.860229Z" fill="#DEF4DE"/>
</g>
<path d="M274.846 248.059C274.032 245.781 274.317 245.252 274.846 243.177C275.985 238.784 284.772 236.831 289.206 228.248C292.054 222.797 301.695 224.546 307.39 219.298C311.458 215.556 306.495 213.684 316.624 207.623C332.042 198.389 329.723 188.626 329.113 188.382C328.096 187.975 328.258 190.904 327.079 192.409C321.587 199.406 285.179 186.795 254.425 207.42C241.041 216.369 231.766 228.776 229.285 244.275C227.495 255.625 231.237 261.361 235.265 260.303C240.024 259.042 236.526 262.256 239.536 266.486C251.943 284.141 277.938 256.52 274.846 248.059Z" fill="#7CA417"/>
<path d="M115.667 277.958C130.677 292.399 141.824 281.09 151.424 269.537C153.743 266.771 160.414 276.656 168.55 266.202C181.283 249.726 164.686 226.824 147.315 175.079C145.2 168.733 125.714 122.968 113.958 103.28C108.181 93.5977 101.754 86.8856 96.2623 84.0787C82.3092 76.8784 72.5461 81.4345 71.5291 75.4953C70.7969 71.1426 74.2953 70.1663 72.1393 69.2306C69.4138 68.0509 62.8237 86.2754 64.1661 104.419C65.2238 118.656 70.3087 123.945 75.7598 139.688C81.0888 155.065 79.9905 160.801 83.611 185.9C90.4452 233.495 93.8622 257.008 115.667 277.958Z" fill="#346E00"/>
<path d="M183.724 446.657C184.944 434.046 186.246 421.435 187.914 408.825C189.581 396.214 191.534 383.685 194.016 371.196C196.497 358.748 199.467 346.341 203.087 334.177C206.708 321.974 211.06 310.014 216.267 298.379C221.474 286.786 227.576 275.558 234.817 265.063C242.058 254.608 250.438 244.886 259.957 236.465C269.476 228.044 280.175 220.925 291.687 215.556C293.152 214.905 294.576 214.254 296.04 213.603L300.393 211.732C303.281 210.471 306.169 209.169 308.976 207.704C311.783 206.24 314.509 204.653 317.072 202.823C319.634 200.992 322.034 198.877 323.987 196.355C322.075 198.877 319.716 201.033 317.194 202.945C314.631 204.816 311.905 206.484 309.139 207.989C306.332 209.494 303.485 210.837 300.596 212.179L296.284 214.132C294.86 214.783 293.437 215.474 292.013 216.166C280.663 221.698 270.168 228.939 260.852 237.441C251.537 245.943 243.401 255.666 236.404 266.161C229.407 276.656 223.549 287.843 218.586 299.437C213.623 311.031 209.515 322.95 206.097 335.113C202.68 347.236 199.914 359.562 197.677 371.969C195.399 384.376 193.649 396.865 192.185 409.435C190.721 421.964 189.622 434.575 188.605 447.186L183.724 446.657Z" fill="#346E00"/>
<path d="M106.798 129.396C98.0929 142.902 84.4652 145.871 84.2212 145.465C83.9364 144.936 96.3437 140.258 103.137 126.752C97.2793 122.969 90.4045 120.447 82.3499 119.796C67.0137 118.575 72.6275 114.996 60.0168 110.765C43.4601 105.192 36.6666 104.785 33.0462 105.924C27.1883 107.795 26.9849 102.792 26.0493 103.727C25.4391 104.337 20.4355 116.216 28.4494 124.433C32.68 128.745 37.7243 126.955 43.4602 133.301C46.5111 136.678 46.267 138.956 48.4637 143.309C53.2233 152.746 64.6136 151.241 66.2001 159.499C75.5971 208.355 93.008 211.366 108.71 211.61C117.375 211.732 115.992 204.287 121.402 205.304C135.518 207.989 135.64 152.421 106.798 129.396Z" fill="#9FBC50"/>
<path d="M183.805 93.069C196.456 102.913 210.328 101.205 210.409 100.757C210.531 100.188 197.27 99.8625 186.368 89.3672C190.639 83.8754 196.294 79.1972 203.657 75.9429C217.691 69.7189 211.223 68.2137 221.759 60.0371C235.549 49.2977 241.814 46.6535 245.597 46.5722C251.74 46.4094 250.276 41.6092 251.496 42.1788C252.269 42.5449 260.893 52.1046 256.093 62.4779C253.53 67.9697 248.16 67.929 244.865 75.8208C243.116 80.0108 244.092 82.0855 243.441 86.9264C242.058 97.3811 230.831 99.7405 232.051 108.039C239.333 157.221 223.915 165.845 209.189 171.255C201.053 174.225 199.873 166.74 195.114 169.506C182.666 176.747 164.197 124.352 183.805 93.069Z" fill="#346E00"/>
<path d="M185.961 59.3049C170.625 47.2231 163.791 35.4666 153.987 34.2869C148.576 33.6361 149.146 35.9141 143.98 31.9682C141.58 30.1376 139.668 27.3307 138.976 27.7375C138.325 28.1443 140.074 30.5851 139.749 33.514C139.261 38.0701 134.135 39.4532 130.881 43.5212C128.481 46.5722 127.993 50.03 127.993 53.6098C137.43 57.7591 153.865 56.254 151.627 57.2303C149.309 58.2473 136.576 60.8508 128.196 60.5253C128.277 75.0073 122.135 79.0345 118.189 95.9166C115.178 108.812 116.765 115.117 117.05 132.894C117.904 186.958 104.439 198.918 116.277 220.722C117.579 223.163 133.403 242.16 147.681 242.282C156.265 242.363 158.787 235.57 170.015 234.96C180.998 234.35 184.293 240.533 195.439 241.509C195.439 241.509 202.965 242.648 217.569 233.048C254.384 208.843 225.624 90.5062 185.961 59.3049Z" fill="#7CA417"/>
<path d="M288.921 148.312C287.904 142.332 284.894 139.932 285.952 134.481C286.318 132.528 287.131 130.576 286.48 130.128C285.626 129.559 282.941 132.366 282.128 133.098C275.334 139.566 259.876 137.247 256.622 136.881C237.136 134.766 211.589 156.57 199.67 170.523C194.138 176.991 172.171 202.741 178.517 230.485C178.761 231.502 180.429 251.516 194.504 253.55C203.453 254.811 207.277 244.56 217.081 247.123C223.508 248.791 226.193 253.265 232.214 253.835C240.187 254.567 247.184 244.804 248.77 242.445C254.466 233.902 251.415 229.793 256.622 214.498C259.062 207.338 261.137 201.358 266.1 194.687C270.656 188.585 274.521 186.185 276.88 183.012C272.243 184.476 266.466 184.191 260.039 182.076C255.645 180.652 251.903 177.561 252.35 177.072C252.716 176.625 257.639 179.798 264.025 179.351C272.69 178.74 276.88 176.015 279.362 173.859C279.117 168.489 276.961 164.055 278.833 162.957C280.338 162.062 282.168 164.747 284.528 164.055C288.108 162.957 290.06 154.983 288.921 148.312Z" fill="#346E00"/>
<path d="M135.966 250.865C120.751 243.095 118.229 244.56 108.832 234.756C105.781 231.583 103.991 226.295 84.4246 218.403C79.9091 216.572 83.0415 213.562 82.3906 212.87C81.3329 211.772 76.8175 215.759 74.7021 220.64C69.8206 232.112 71.6512 241.224 75.1089 248.709C87.8417 256.032 96.2623 251.882 96.8725 253.469C97.0759 254.038 87.1094 256.642 79.2176 256.154C80.8041 258.757 82.3906 261.157 83.611 263.354C87.1094 269.741 86.7026 281.456 90.5672 293.131C106.432 285.484 119.124 287.436 119.124 287.64C119.124 287.68 117.823 287.721 116.765 287.924C103.544 290.487 97.6048 296.467 93.6995 300.454C96.9132 306.474 101.795 312.17 109.565 316.766C111.232 317.743 118.067 322.258 127.301 320.387C136.006 318.638 133.444 308.386 139.952 308.834C169.73 311.03 162.367 264.371 135.966 250.865Z" fill="#7CA417"/>
<path d="M188.402 439.904C198.206 414.926 206.382 389.298 211.345 362.979C213.827 349.839 215.454 336.537 215.901 323.153C216.105 316.482 216.023 309.81 215.616 303.139C215.169 296.467 214.396 289.837 213.176 283.287C212.85 281.66 212.566 280.033 212.199 278.365C211.833 276.697 211.508 275.029 211.182 273.361C210.572 270.026 210.003 266.649 209.637 263.232C208.823 256.439 208.538 249.604 208.823 242.77C209.108 235.936 209.921 229.143 211.386 222.471L211.955 219.99L212.565 217.508C213.013 215.881 213.42 214.254 213.908 212.586C214.844 209.332 215.901 206.077 217.122 202.904C219.522 196.517 222.451 190.375 226.03 184.558C229.61 178.781 233.8 173.371 238.641 168.611C241.041 166.211 243.645 164.014 246.33 161.98L248.404 160.516C249.096 160.028 249.828 159.58 250.52 159.092C251.943 158.197 253.408 157.302 254.872 156.489C260.771 153.153 267.076 150.59 273.585 148.8C267.117 150.753 260.893 153.438 255.116 156.895C253.652 157.75 252.269 158.685 250.845 159.621C250.154 160.109 249.462 160.557 248.77 161.085L246.777 162.591C244.133 164.665 241.651 166.943 239.292 169.343C234.614 174.144 230.587 179.595 227.21 185.371C223.834 191.148 221.068 197.29 218.871 203.636C217.772 206.809 216.796 210.023 215.942 213.237C215.535 214.864 215.128 216.491 214.722 218.118L214.152 220.559L213.664 223C212.403 229.549 211.752 236.221 211.63 242.892C211.549 249.564 211.955 256.235 212.891 262.825C213.338 266.12 213.949 269.415 214.64 272.67C215.006 274.297 215.372 275.924 215.739 277.592C216.145 279.219 216.511 280.928 216.837 282.596C218.22 289.267 219.196 296.061 219.806 302.854C220.417 309.648 220.661 316.482 220.579 323.316C220.457 336.944 219.115 350.571 216.918 363.996C212.484 390.885 204.796 417.123 195.48 442.629L188.402 439.904Z" fill="#7CA417"/>
<path d="M166.679 448.324C165.458 416.35 162.082 384.417 157.038 352.768C151.993 321.119 145.322 289.674 136.454 258.839C134.216 251.15 131.857 243.462 129.294 235.855C126.731 228.247 124.006 220.722 121.077 213.277C118.148 205.833 114.934 198.47 111.436 191.27C109.687 187.69 107.856 184.11 105.903 180.612C103.951 177.113 101.917 173.655 99.8015 170.279C95.4488 163.567 90.6892 157.099 85.0348 151.485C84.3025 150.793 83.611 150.102 82.8787 149.41L80.6414 147.417L78.3226 145.546C77.5497 144.936 76.6954 144.366 75.9225 143.797C75.1089 143.227 74.2547 142.698 73.4004 142.169C72.5461 141.681 71.6918 141.152 70.7969 140.746C69.0476 139.81 67.1764 139.078 65.3458 138.223C63.5152 137.369 61.6846 136.352 60.1388 134.969C58.593 133.627 57.2505 132.04 56.1115 130.372C55.542 129.559 54.9725 128.704 54.403 127.891C53.8335 127.077 53.2233 126.264 52.6131 125.491C51.352 123.945 49.9689 122.48 48.4637 121.219C46.9586 119.918 45.25 118.819 43.5008 117.924C41.7109 117.029 39.8397 116.297 37.9684 115.606C36.0971 114.914 34.1852 114.222 32.4766 113.124C31.6224 112.595 30.8088 111.985 30.0765 111.293C29.3443 110.602 28.7341 109.788 28.1239 108.975C28.7341 109.788 29.385 110.561 30.1172 111.253C30.8494 111.944 31.663 112.514 32.5173 113.043C34.2259 114.06 36.1378 114.751 38.0497 115.402C39.9617 116.053 41.8736 116.704 43.6635 117.599C45.4941 118.494 47.2027 119.592 48.7892 120.853C50.3757 122.155 51.7995 123.579 53.1012 125.125C53.7521 125.897 54.3623 126.711 54.9725 127.525C55.542 128.338 56.1522 129.193 56.7217 129.965C57.8607 131.593 59.2032 133.098 60.7083 134.359C62.2135 135.62 63.922 136.596 65.7526 137.369C67.5832 138.183 69.4544 138.915 71.285 139.81C72.2207 140.217 73.0749 140.746 73.9699 141.234C74.8648 141.763 75.7191 142.291 76.5734 142.82C77.387 143.39 78.2413 143.959 79.0548 144.569L81.4549 146.441L83.7737 148.393C84.5466 149.044 85.2788 149.776 86.0111 150.427C91.8689 156.041 96.8725 162.509 101.388 169.181C103.625 172.557 105.741 176.015 107.775 179.473C109.809 182.971 111.721 186.551 113.551 190.131C117.212 197.331 120.589 204.694 123.721 212.138C126.853 219.583 129.742 227.108 132.467 234.716C135.193 242.323 137.715 249.97 140.115 257.7C149.634 288.535 156.956 320.021 162.692 351.792C168.387 383.562 172.455 415.659 174.286 447.958L166.679 448.324Z" fill="#7CA417"/>
<path d="M183.48 435.022C176.808 403.74 172.333 371.928 169.445 339.995C166.598 308.061 165.377 275.924 166.435 243.869C166.72 235.855 167.126 227.841 167.737 219.868C168.347 211.854 169.16 203.881 170.177 195.948C171.194 188.015 172.537 180.083 174.123 172.232C174.937 168.327 175.832 164.421 176.849 160.557C177.866 156.692 179.005 152.868 180.266 149.044C182.829 141.478 185.88 134.034 189.988 127.199C190.517 126.345 191.005 125.491 191.575 124.677L193.243 122.196L195.033 119.796C195.643 119.023 196.294 118.25 196.945 117.518C197.595 116.785 198.287 116.053 198.979 115.362C199.711 114.67 200.402 113.978 201.175 113.328C202.68 111.985 204.267 110.805 205.853 109.544C207.44 108.283 208.945 106.819 210.084 105.11C211.264 103.402 212.159 101.571 212.85 99.6592C213.216 98.7236 213.542 97.7473 213.908 96.8116C214.274 95.876 214.64 94.9404 215.088 94.0454C215.942 92.2555 216.918 90.5063 218.057 88.8791C219.237 87.2519 220.579 85.7874 222.085 84.445C223.59 83.1433 225.258 81.9636 226.885 80.8652C228.553 79.7262 230.221 78.5871 231.604 77.1227C232.295 76.3904 232.946 75.6175 233.475 74.7633C234.004 73.909 234.411 72.9734 234.777 72.0377C234.411 72.9734 233.963 73.8683 233.394 74.7226C232.824 75.5769 232.214 76.3498 231.482 77.0413C230.058 78.4651 228.39 79.5635 226.681 80.6618C225.014 81.7602 223.305 82.8585 221.759 84.2009C220.213 85.5027 218.83 87.0078 217.61 88.5944C216.389 90.2215 215.372 91.9708 214.477 93.8014C214.03 94.6963 213.623 95.6319 213.257 96.5676C212.891 97.5032 212.525 98.4388 212.159 99.3745C211.427 101.246 210.532 102.995 209.352 104.581C208.213 106.168 206.748 107.51 205.203 108.731C203.616 109.951 201.989 111.131 200.443 112.433C199.67 113.084 198.938 113.775 198.165 114.467C197.433 115.199 196.741 115.89 196.05 116.663C195.399 117.436 194.707 118.168 194.056 118.982L192.185 121.382L190.436 123.864C189.826 124.677 189.337 125.572 188.768 126.386C184.456 133.261 181.202 140.746 178.435 148.353C177.093 152.177 175.873 156.041 174.774 159.906C173.676 163.811 172.699 167.716 171.764 171.662C169.974 179.554 168.509 187.487 167.289 195.46C166.069 203.433 165.092 211.447 164.36 219.502C163.587 227.515 162.977 235.57 162.57 243.625C160.902 275.843 161.472 308.183 163.709 340.361C165.987 372.538 169.893 404.675 175.995 436.446L183.48 435.022Z" fill="#7CA417"/>
<path d="M174.611 447.674C176.076 430.629 176.767 413.462 177.093 396.254C177.418 379.047 177.459 361.839 177.256 344.632C176.889 310.176 175.75 275.761 174.164 241.306C172.577 206.891 170.543 172.476 167.859 138.101C167.167 129.518 166.475 120.934 165.662 112.351L165.011 105.924L164.319 99.4963C164.075 97.381 163.75 95.2656 163.221 93.191C162.733 91.1163 161.919 89.1637 160.984 87.2517C160.536 86.2754 160.089 85.2584 159.682 84.2414C159.316 83.2244 158.95 82.1668 158.665 81.1091C158.095 78.9938 157.729 76.8784 157.363 74.7224C156.672 70.451 156.143 66.1797 155.248 61.9897C154.394 57.7997 153.173 53.6097 151.383 49.7451C149.593 45.8398 147.153 42.2193 144.264 39.0463C147.234 42.1787 149.715 45.7585 151.627 49.6637C153.499 53.569 154.8 57.7183 155.777 61.949C156.712 66.1797 157.363 70.451 158.136 74.6817C158.543 76.7971 158.95 78.9124 159.56 80.9464C159.845 81.9634 160.211 82.9804 160.577 83.9567C160.984 84.933 161.431 85.9093 161.879 86.8856C162.855 88.7976 163.709 90.8722 164.279 92.9876C164.848 95.1029 165.214 97.2589 165.499 99.415L166.313 105.842L167.086 112.27C168.062 120.853 168.916 129.437 169.77 138.02C173.066 172.354 175.71 206.769 177.947 241.184C180.144 275.599 181.934 310.095 182.951 344.591C183.439 361.839 183.764 379.128 183.724 396.417C183.683 413.706 183.317 430.995 182.137 448.365L174.611 447.674Z" fill="#346E00"/>
<path d="M163.302 448.65C162.652 428.473 160.902 408.296 157.729 388.363C154.556 368.43 150.041 348.659 143.735 329.459C140.562 319.858 136.983 310.38 132.833 301.186C128.684 291.952 124.006 283.002 118.636 274.419C113.266 265.876 107.205 257.7 100.208 250.377C98.459 248.547 96.6285 246.798 94.9199 244.926C93.2114 243.055 91.5842 241.102 90.0384 239.068C88.4925 237.034 87.0687 234.96 85.8077 232.763C85.1975 231.665 84.5873 230.526 84.1398 229.346C83.6923 228.166 83.2855 226.946 83.3262 225.644C83.3262 226.905 83.733 228.126 84.2212 229.305C84.7093 230.485 85.3195 231.583 85.9297 232.682C87.2315 234.878 88.6959 236.912 90.2824 238.906C91.8689 240.899 93.5368 242.811 95.286 244.642C97.0352 246.472 98.8658 248.181 100.696 250.011C107.856 257.212 114.121 265.307 119.694 273.809C125.267 282.311 130.148 291.26 134.501 300.495C138.854 309.688 142.637 319.167 146.014 328.767C152.726 347.968 157.689 367.819 161.268 387.834C164.848 407.889 167.004 428.188 168.062 448.528L163.302 448.65Z" fill="#346E00"/>
<path d="M244.865 300.535C238.804 304.766 218.912 316.929 197.148 325.879C173.676 335.52 151.261 343.005 143.288 341.134C139.708 340.32 134.623 338.978 132.833 335.52C129.498 328.97 139.952 317.133 146.217 311.763C149.959 308.549 153.987 306.068 161.757 301.268C166.557 298.298 170.218 296.264 171.398 295.613C179.045 291.342 191.9 281.375 207.603 271.246C217.528 264.859 224.891 259.612 238.072 252.777C248.852 247.204 253.449 245.78 258.086 247.245C266.263 249.848 271.836 260.629 271.307 269.863C270.615 282.514 258.452 291.016 244.865 300.535Z" fill="#F79556"/>
<path d="M188.036 329.215C188.198 316.889 186.815 306.312 183.724 296.874C182.829 294.149 181.893 291.627 180.917 289.348L180.673 288.779L181.201 288.413C183.032 287.152 185.025 285.769 187.1 284.304C193.039 280.155 199.792 275.395 207.236 270.636C209.148 269.415 210.938 268.236 212.688 267.097C220.091 262.256 227.047 257.7 237.746 252.127C246.533 247.57 250.967 245.984 254.669 245.984C255.93 245.984 257.15 246.187 258.371 246.553C267.239 249.401 272.609 260.954 272.121 269.944C271.388 283.002 259.306 291.423 245.313 301.186C240.106 304.807 220.213 317.255 197.433 326.611C194.585 327.791 191.778 328.889 189.053 329.947L187.995 330.354L188.036 329.215Z" fill="#F5641A"/>
<path d="M359.622 292.115C361.046 299.071 362.755 303.912 365.724 312.373C370.484 325.919 370.281 324.455 379.637 345.12C389.685 367.413 392.085 371.725 395.868 377.054C398.39 380.593 400.953 387.02 407.746 391.007C410.797 392.797 414.743 395.726 418.242 394.465C424.913 392.105 425.442 376.85 424.629 368.959C424.14 364.24 422.961 359.806 420.683 351.304C419.259 346.056 418.038 342.191 417.672 340.971C415.15 332.916 409.374 313.756 405.102 296.264C402.377 285.24 400.709 276.656 395.99 263.151C392.125 252.086 389.847 248.059 385.617 246.025C378.172 242.445 367.148 246.309 361.412 253.103C353.52 262.459 356.409 276.453 359.622 292.115Z" fill="#DD6326"/>
<path d="M329.153 121.667C306.047 119.918 288.067 136.108 256.418 165.52C242.384 178.537 232.254 184.273 226.03 194.402C220.173 203.962 208.62 228.614 214.071 255.178C219.806 283.125 244.906 308.59 272.365 310.949C319.472 315.017 354.782 248.872 361.046 234.228C373.006 206.321 377.969 163.486 353.561 130.617C346.32 120.853 333.018 121.952 329.153 121.667Z" fill="#290708"/>
<path d="M390.417 353.541C400.383 352.809 411.082 349.107 420.723 342.964C418.445 334.91 410.838 302.773 404.858 280.196C395.054 243.136 386.512 238.499 363.446 237.97C340.422 237.441 330.089 225.115 300.352 231.38C288.718 233.821 275.212 240.207 261.747 244.316C241.204 250.581 226.803 255.218 215.535 262.459C210.287 265.836 231.685 313.675 241.529 332.632C244.296 337.961 254.018 372.254 233.393 405.041C224.078 425.788 218.057 436.446 227.495 441.084C247.631 450.969 264.88 451.132 318.699 447.023C355.432 444.216 379.515 448.203 370.484 429.002C354.334 394.79 378.254 374.532 390.417 353.541Z" fill="#F5641A"/>
<path d="M329.967 211.895C331.309 216.451 326.306 243.177 325.33 245.537C322.157 253.225 312.434 261.239 302.874 260.954C289.613 260.547 284.365 250.703 284.691 241.103C285.138 228.126 285.626 216.369 283.552 190.66C282.982 183.744 327.364 203.108 329.967 211.895Z" fill="#EC7D40"/>
<path d="M311.783 197.412C306.861 195.623 306.739 193.141 300.23 195.541C295.633 197.25 292.135 201.684 289.572 207.42C291.199 214.986 295.674 223.488 300.596 229.305C303.851 233.17 308.936 239.15 317.56 240.167C320.163 240.492 323.092 240.33 325.94 239.679C327.974 230.892 331.025 215.271 330.008 211.894C327.364 203.108 316.461 199.121 311.783 197.412Z" fill="#D66730"/>
<path d="M272.283 156.082C272.039 144.203 277.856 135.254 279.972 132.081C290.06 117.029 300.922 113.124 304.949 112.188C318.943 108.934 330.943 109.178 342.049 117.599C362.348 132.976 359.134 166.862 357.67 177.317C356.246 187.405 349.859 217.793 333.018 230.729C330.13 232.966 326.469 235.448 320.407 235.244C311.946 234.96 304.095 228.776 301.247 225.725C291.443 215.189 289.125 207.46 285.463 188.178C281.802 168.489 272.527 167.96 272.283 156.082Z" fill="#F79556"/>
<path d="M314.468 217.142C314.265 216.776 314.509 216.328 314.916 216.288C316.746 216.166 321.18 216.003 326.224 216.491C329.682 216.857 332.896 217.752 334.238 218.118C334.604 218.24 334.726 218.647 334.564 218.973C333.628 220.64 330.536 224.953 324.353 224.261C318.821 223.651 315.566 219.013 314.468 217.142Z" fill="#DC2947"/>
<path d="M340.706 173.534C341.195 172.273 342.008 171.215 342.903 170.32C343.839 169.384 344.896 168.652 346.035 168.042C348.395 166.821 351.202 166.781 353.765 167.065C354.415 167.147 355.066 167.188 355.677 167.35L356.612 167.554C356.938 167.635 357.263 167.757 357.629 167.838C358.931 168.327 360.029 169.059 361.006 169.913C362.918 171.622 357.792 170.849 356.816 170.686L356.083 170.605L355.27 170.564C354.741 170.523 354.212 170.564 353.683 170.605C353.154 170.645 352.626 170.767 352.137 170.849C351.609 171.011 351.12 171.093 350.632 171.296C349.656 171.622 348.68 171.947 347.663 172.191L344.49 173.005C343.391 173.289 342.252 173.574 340.951 173.859L340.706 173.534Z" fill="#290708"/>
<path d="M296.284 166.781C298.4 165.194 300.84 164.096 303.444 163.282C306.047 162.509 308.854 162.265 311.661 162.591C312.353 162.631 313.044 162.794 313.776 162.875C314.468 162.997 315.2 163.16 315.892 163.323C317.275 163.73 318.617 164.381 319.716 165.316C321.953 167.147 323.662 169.628 324.028 172.557L323.621 172.842C320.977 171.662 318.983 170.523 316.909 169.547C315.892 169.059 314.916 168.53 313.98 167.96C313.492 167.676 313.004 167.431 312.475 167.147C311.946 166.943 311.417 166.699 310.848 166.537C309.749 166.211 308.61 165.967 307.43 165.886C306.251 165.723 305.03 165.723 303.851 165.764C301.41 165.845 298.928 166.374 296.528 167.187L296.284 166.781Z" fill="#290708"/>
<path d="M305.315 179.961C305.356 180.653 307.471 182.564 313.532 182.32C316.217 182.198 318.902 181.425 318.821 180.083C318.78 178.781 316.949 176.503 314.59 176.218C310.522 175.69 305.234 178.578 305.315 179.961Z" fill="#E6E6E6"/>
<path d="M309.953 178.212C311.336 174.632 317.682 175.852 316.461 180.653C315.16 185.534 307.715 183.948 309.953 178.212Z" fill="#290708"/>
<path d="M319.472 181.059C318.739 180.368 318.048 179.798 317.356 179.473C316.665 179.147 315.932 178.985 315.2 178.985C313.736 178.903 312.109 179.229 310.441 179.513C308.732 179.839 306.942 180.164 304.99 180.246C304.013 180.286 302.996 180.246 301.979 180.002C301.491 179.88 300.962 179.676 300.515 179.351C300.067 179.025 299.701 178.578 299.539 178.13C299.986 178.334 300.434 178.415 300.84 178.415C301.247 178.374 301.654 178.334 302.061 178.212C302.874 178.008 303.647 177.723 304.502 177.439C306.169 176.869 307.919 176.259 309.79 175.934C311.661 175.608 313.776 175.445 315.892 176.218C316.949 176.584 317.926 177.276 318.577 178.171C319.187 179.025 319.472 180.042 319.472 181.059Z" fill="#290708"/>
<path d="M342.496 182.971C342.537 183.622 344.612 185.412 350.307 184.924C352.829 184.72 353.968 183.5 353.846 182.198C353.724 180.937 353.276 179.147 351.039 178.944C347.215 178.618 342.374 181.669 342.496 182.971Z" fill="#E6E6E6"/>
<path d="M347.052 181.385C348.191 178.09 354.009 178.944 353.073 183.378C352.097 187.812 345.263 186.673 347.052 181.385Z" fill="#290708"/>
<path d="M355.31 182.687C354.538 182.32 353.887 181.914 353.236 181.67C352.585 181.425 351.975 181.303 351.446 181.263C350.347 181.222 349.29 181.547 347.988 182.036C346.727 182.483 345.303 183.093 343.676 183.419C342.862 183.581 341.927 183.663 341.032 183.459C340.096 183.256 339.242 182.727 338.876 181.954C339.73 182.076 340.381 181.954 340.991 181.71C341.601 181.466 342.13 181.141 342.74 180.775C343.92 180.083 345.222 179.229 346.768 178.659C347.541 178.374 348.395 178.13 349.331 178.09C350.266 178.008 351.283 178.171 352.178 178.537C353.073 178.944 353.805 179.554 354.334 180.286C354.863 181.059 355.188 181.873 355.31 182.687Z" fill="#290708"/>
<path d="M289.816 196.07C289.247 197.046 287.131 200.545 284.446 200.463C281.558 200.382 279.728 199.812 276.595 192.734C273.626 186.022 273.788 180.001 274.155 178.415C274.399 177.398 275.049 174.347 277.572 173.045C280.785 171.337 284.691 173.615 285.423 174.022C291.932 177.967 293.925 189.195 289.816 196.07Z" fill="#F79556"/>
<path d="M246.736 188.829C258.005 183.297 269.598 178.7 279.565 175.934C321.465 164.421 336.72 136.149 336.72 136.149C336.72 136.149 376.342 180.571 364.911 215.393C360.802 227.922 355.677 233.943 355.432 236.912C356.734 236.912 358.036 236.831 359.419 236.668C359.663 236.628 359.907 236.628 360.151 236.587C364.219 230.444 370.199 215.352 370.199 215.352C375.203 200.952 373.21 188.504 369.264 163.608C367.677 153.56 365.602 137.898 354.822 121.992C345.995 108.975 334.238 108.039 329.723 108.487C327.892 109.016 328.055 109.3 327.73 109.178C303.159 99.3338 279.565 106.615 263.944 142.332C254.14 164.787 233.231 177.886 225.339 193.182C215.698 211.894 215.942 224.383 216.43 226.336C216.593 227.434 222.654 200.667 246.736 188.829Z" fill="#290708"/>
<path d="M216.43 189.602C220.945 189.317 222.817 188.544 222.817 188.544C224.403 187.893 225.136 187.283 226.681 187.243C227.169 187.243 229.448 187.202 230.831 188.91C232.376 190.822 231.604 193.345 231.522 193.629C230.831 195.826 228.837 197.087 226.641 198.104C219.196 201.521 210.491 201.114 205.04 200.545C196.416 199.65 192.185 197.006 190.639 193.589C189.419 190.863 189.663 188.504 192.388 186.632C197.677 183.053 208.05 190.131 216.43 189.602Z" fill="#D66730"/>
<path d="M258.411 331.818L195.277 310.054C193.121 309.322 191.941 306.963 192.714 304.766L221.027 222.715C221.759 220.559 224.119 219.379 226.315 220.152L289.45 241.916C291.606 242.648 292.786 245.007 292.013 247.204L263.7 329.255C262.927 331.411 260.567 332.55 258.411 331.818Z" fill="#FFED00"/>
<path d="M201.867 306.271L194.707 306.8C193.69 292.481 192.917 277.877 192.307 264.981C191.982 258.228 191.656 251.842 191.331 246.35C189.622 217.183 198.124 208.762 202.192 204.735L202.355 204.572C212.321 194.646 224.851 193.914 231.4 194.361C247.794 195.46 268.703 203.636 274.724 206.443C285.626 211.488 291.728 218.688 292.908 227.881C293.966 236.221 291.281 243.543 289.653 247.896C289.491 248.303 289.369 248.709 289.247 249.035L282.494 246.635C282.616 246.269 282.779 245.862 282.941 245.414C284.406 241.428 286.643 235.367 285.789 228.736C284.935 222.064 280.338 216.857 271.714 212.911C264.513 209.576 245.069 202.416 230.912 201.48C225.542 201.114 215.372 201.684 207.399 209.616L207.237 209.779C203.901 213.074 196.985 219.949 198.49 245.903C198.816 251.435 199.141 257.822 199.467 264.615C200.118 277.47 200.85 292.033 201.867 306.271Z" fill="#FFED00"/>
<path d="M261.747 325.96L257.761 320.021C268.704 312.658 279.28 304.888 289.165 296.915C289.776 296.427 290.467 295.857 291.199 295.288C298.4 289.471 310.4 279.707 326.062 269.782C331.065 266.609 337.167 263.029 345.792 260.954C352.748 259.246 360.029 258.839 367.392 259.774L366.538 266.893C360.029 266.08 353.643 266.446 347.5 267.951C339.934 269.782 334.686 272.873 329.926 275.884C314.59 285.565 302.793 295.166 295.715 300.902C294.983 301.471 294.291 302.041 293.681 302.569C283.592 310.624 272.853 318.516 261.747 325.96Z" fill="#FFED00"/>
<path d="M409.699 362.775C409.699 362.775 417.388 370.87 421.862 384.579C422.35 386.085 423.083 388.688 421.903 391.048C421.537 391.78 420.357 393.651 416.411 394.912C412.221 396.255 401.075 397.15 392.939 392.593C383.705 387.427 379.718 378.233 377.033 371.969C373.901 364.85 402.906 355.616 409.699 362.775Z" fill="#DD6326"/>
<path d="M370.24 323.56C364.016 314.244 368.694 297.769 383.624 290.162C387.122 288.372 391.881 284.955 393.468 280.236C393.915 278.853 393.509 277.673 393.875 277.673C394.322 277.714 394.444 280.643 394.485 281.416C394.77 287.518 393.387 292.522 392.817 295.41C390.905 304.97 394.038 317.58 385.332 326.123C379.067 332.266 373.332 328.157 370.24 323.56Z" fill="#346E00"/>
<path d="M356.856 286.175C357.182 286.216 356.449 286.623 356.775 287.721C357.263 289.226 358.524 290.162 359.297 290.976C362.063 293.986 362.673 297.851 362.47 301.796C362.348 304.685 360.111 308.875 358.077 307.41C348.191 300.454 355.026 290.61 355.839 288.901C356.775 286.786 356.409 286.135 356.856 286.175Z" fill="#346E00"/>
<path d="M365.846 338.774C370.484 334.178 364.382 308.346 343.432 295.613C341.276 294.311 337.737 291.789 337.045 292.318C336.72 292.562 338.998 292.969 338.306 295.166C330.74 319.248 356.043 319.248 357.344 334.625C357.711 339.181 363.243 341.337 365.846 338.774Z" fill="#346E00"/>
<path d="M417.55 298.054C416.167 299.356 411.937 298.827 407.95 300.576C404.248 302.203 402.662 305.905 400.994 311.194C398.187 320.306 390.132 334.218 378.905 334.34C360.721 334.503 377.155 313.838 393.427 302.651C400.465 297.81 410.106 297.729 414.459 297.688C417.062 297.647 418.201 297.484 417.55 298.054Z" fill="#7CA417"/>
<path d="M368.735 277.796C370.118 277.145 368.247 282.636 375.203 289.674C390.01 304.726 386.959 335.113 371.46 336.618C365.318 337.229 342.374 312.699 367.107 283.938C369.996 280.562 368.206 278.04 368.735 277.796Z" fill="#7CA417"/>
<path d="M385.251 300.739C385.332 299.681 389.034 310.583 389.481 315.912C390.417 327.465 388.952 333.811 384.437 338.652C379.23 344.266 370.362 346.544 365.074 341.5C360.355 336.984 360.111 329.011 364.179 323.438C367.067 319.452 368.084 319.289 376.057 310.787C381.02 305.498 384.844 305.62 385.251 300.739Z" fill="#9FBC50"/>
<path d="M395.868 336.781C395.746 335.317 394.526 334.218 393.061 334.218H377.196H369.467H353.602C352.137 334.218 350.917 335.317 350.795 336.781L349.046 356.551V359.399C349.046 370.179 357.792 379.901 368.531 379.901H369.426H377.196H378.091C388.871 379.901 397.577 370.179 397.577 359.399V356.551L395.868 336.781Z" fill="#FFED00"/>
<path d="M227.658 198.836C225.38 195.134 223.224 190.659 217.325 186.022C216.023 185.005 215.332 184.558 214.437 183.947C211.955 182.239 206.667 181.629 196.7 180.896C195.358 180.815 193.731 180.327 192.266 181.222C190.721 182.157 191.127 183.459 189.378 185.086C187.629 186.754 186.571 186.103 184.659 187.934C183.52 189.073 182.91 190.253 182.585 190.944C181.69 192.775 181.974 193.385 180.998 195.866C180.307 197.656 180.103 197.412 179.615 198.836C178.883 200.87 179.045 202.009 178.761 204.002C178.354 205.874 164.279 233.292 163.262 235.122C145.607 265.958 134.176 292.887 129.904 325.065C129.579 327.587 128.887 334.869 133.403 338.083C141.132 343.534 150.692 335.072 152.482 333.364C168.103 318.109 170.177 313.105 174.408 296.955C182.625 265.835 186.368 236.221 187.71 231.339C188.483 228.532 189.459 224.952 190.517 222.756C191.087 222.024 191.656 221.454 192.185 221.291C192.592 221.169 193.202 220.437 195.399 221.332C197.351 222.146 200.362 223.976 203.087 222.186C206.179 220.152 204.958 217.711 205.447 217.223C205.935 216.694 206.667 217.345 207.928 216.979C209.392 216.532 210.206 215.108 210.45 214.66C211.06 213.521 211.386 211.935 211.874 211.203C212.891 209.616 214.559 210.959 216.471 209.047C220.01 205.508 216.308 199.162 216.674 198.958C217.325 198.633 222.613 208.192 227.088 208.925C227.495 209.006 228.024 209.169 229.041 208.518C230.139 207.826 230.546 207.338 230.587 206.077C230.668 203.921 229.488 201.806 227.658 198.836Z" fill="#F79556"/>
<path d="M199.182 188.91C200.931 188.748 202.68 188.951 204.389 189.358C206.097 189.765 207.725 190.416 209.27 191.229C210.816 192.043 212.24 193.1 213.542 194.28C214.803 195.5 215.901 196.884 216.715 198.429C215.25 197.453 213.867 196.517 212.484 195.622C211.101 194.728 209.677 193.914 208.253 193.141C206.83 192.368 205.365 191.636 203.86 190.985C202.355 190.293 200.809 189.643 199.182 188.91Z" fill="#D66730"/>
<path d="M194.666 197.494C196.578 197.657 198.45 198.145 200.28 198.755C202.07 199.365 203.86 200.179 205.528 201.114C207.196 202.091 208.823 203.27 210.125 204.776C210.776 205.548 211.345 206.443 211.671 207.42C211.996 208.396 212.118 209.372 212.037 210.349C211.63 209.454 211.264 208.599 210.735 207.908C210.206 207.176 209.596 206.606 208.945 205.996C207.562 204.898 206.016 203.921 204.47 203.026C202.884 202.091 201.257 201.236 199.629 200.341C197.921 199.406 196.294 198.511 194.666 197.494Z" fill="#D66730"/>
<path d="M189.622 207.46C191.249 207.623 192.795 208.03 194.3 208.518C195.805 209.006 197.27 209.616 198.694 210.389C200.118 211.162 201.46 212.017 202.68 213.115C203.291 213.684 203.86 214.295 204.308 214.986C204.755 215.678 205.162 216.451 205.243 217.264C204.185 216.044 202.924 215.271 201.663 214.498C200.362 213.725 199.019 213.034 197.677 212.301C196.334 211.569 194.951 210.837 193.609 210.064C192.266 209.291 190.883 208.477 189.622 207.46Z" fill="#D66730"/>
<path d="M353.521 362.531C355.107 360.619 357.06 361.148 357.141 360.701C357.182 360.416 356.897 360.294 356.612 359.765C356.002 358.626 356.734 356.267 357.711 355.331C358.809 354.273 360.965 353.744 363.121 353.46C363.284 353.419 363.406 353.215 363.324 353.053C363.04 352.361 363.04 351.832 363.04 351.71V351.67C362.999 351.304 362.918 350.287 363.487 349.229C363.731 348.781 363.975 348.171 365.236 347.439C368.45 345.568 377.115 345.771 380.979 345.812C384.315 345.853 392.736 346.747 395.624 347.439C400.384 348.537 401.604 349.473 402.417 350.693C402.417 350.693 402.417 350.734 402.458 350.734C403.679 352.687 403.231 355.453 401.441 356.958C400.994 357.365 400.424 357.731 399.773 358.016C399.611 358.097 399.448 358.138 399.326 358.178C398.675 358.423 398.431 359.358 398.919 359.846C399.407 360.334 399.733 360.863 399.895 361.392C400.424 363.182 400.099 364.809 400.099 364.809C399.814 366.192 399.163 367.209 398.878 367.616C397.983 368.877 397.495 368.633 396.682 369.65C395.583 371.033 396.885 371.806 396.031 374.288C394.77 377.949 391.963 378.356 391.759 379.006C391.231 380.43 392.532 380.471 391.678 382.464C391.109 383.725 389.969 384.539 389.278 384.783C384.396 386.654 374.959 383.969 371.257 382.749C371.257 382.749 362.389 379.454 357.995 374.816C357.385 374.165 356.897 373.637 356.816 372.904C356.694 371.684 357.67 371.115 357.426 370.382C357.1 369.284 355.473 369.772 353.805 367.982C351.568 365.663 353.236 362.897 353.521 362.531Z" fill="#EC7D40"/>
<path d="M358.85 360.823C358.687 360.823 358.646 361.067 358.809 361.148C361.168 361.88 363.528 362.49 365.928 363.019C368.613 363.629 371.298 364.118 373.982 364.565L376.016 364.891L378.05 365.175C378.701 365.257 379.393 365.379 380.044 365.501L382.037 365.826C383.379 366.07 384.722 366.314 386.105 366.518C387.163 366.68 388.261 366.802 389.319 366.965C389.481 367.006 389.563 366.721 389.4 366.68C389.034 366.518 388.668 366.314 388.302 366.192C387.651 365.908 387.04 365.663 386.39 365.419C385.088 364.931 383.827 364.484 382.484 364.036C381.183 363.629 379.8 363.263 378.457 362.979C377.766 362.816 377.115 362.734 376.423 362.612L374.389 362.287C371.664 361.84 368.979 361.514 366.213 361.27C364.829 361.148 363.446 361.067 362.063 360.985C361.372 360.945 360.68 360.945 359.989 360.945C359.663 360.782 359.256 360.782 358.85 360.823Z" fill="#DD6326"/>
<path d="M365.399 353.297C365.236 353.297 365.196 353.582 365.358 353.622C367.433 354.11 369.467 354.517 371.542 354.883C373.901 355.29 376.26 355.656 378.62 355.982L380.41 356.185L382.2 356.388L385.739 356.755C386.918 356.877 388.098 357.039 389.278 357.161C390.173 357.283 391.068 357.365 392.003 357.446C392.166 357.446 392.248 357.202 392.085 357.121C391.8 356.999 391.515 356.877 391.231 356.755C390.661 356.551 390.092 356.307 389.522 356.104C388.383 355.697 387.244 355.371 386.064 355.046C385.779 354.965 385.495 354.924 385.169 354.843C384.885 354.761 384.559 354.721 384.274 354.68C383.664 354.558 383.095 354.476 382.484 354.354C381.874 354.273 381.305 354.151 380.695 354.07L378.905 353.826C376.505 353.541 374.145 353.297 371.704 353.175C370.484 353.134 369.304 353.093 368.084 353.093C367.474 353.093 366.863 353.134 366.253 353.175C366.009 353.256 365.724 353.256 365.399 353.297Z" fill="#DD6326"/>
<path d="M359.338 370.138C359.175 370.138 359.134 370.382 359.297 370.464C359.623 370.586 359.948 370.667 360.273 370.748C360.843 370.911 361.412 371.074 361.982 371.236C363.121 371.562 364.26 371.847 365.358 372.131C367.636 372.701 369.874 373.23 372.152 373.759L373.86 374.125L375.569 374.491C376.138 374.613 376.708 374.735 377.277 374.816L378.132 374.979L378.986 375.142C380.125 375.345 381.305 375.549 382.444 375.711C383.013 375.793 383.623 375.874 384.193 375.955C384.518 375.996 384.885 376.037 385.21 376.077C385.373 376.077 385.454 375.833 385.291 375.793C384.966 375.63 384.681 375.467 384.356 375.345C383.827 375.101 383.298 374.857 382.729 374.613C381.63 374.165 380.532 373.759 379.433 373.352L378.579 373.067L377.725 372.782C377.155 372.62 376.586 372.457 376.057 372.294C375.488 372.131 374.918 371.969 374.349 371.847C373.779 371.684 373.21 371.562 372.64 371.44C370.362 370.911 368.002 370.545 365.643 370.301C364.463 370.179 363.284 370.138 362.104 370.097C361.25 370.057 360.314 370.057 359.338 370.138Z" fill="#DD6326"/>
<path d="M621.477 453.043H15.8387C9.49271 453.043 4.36707 447.918 4.36707 441.572C4.36707 435.226 9.49271 430.1 15.8387 430.1H621.437C627.783 430.1 632.908 435.226 632.908 441.572C632.949 447.877 627.823 453.043 621.477 453.043Z" fill="#282444"/>
<path d="M485.201 351.384C487.397 349.106 488.292 345.811 482.475 336.536C470.8 317.865 444.44 326.407 440.778 336.496C440.005 338.652 442.528 336.333 443.951 338.204C451.518 348.13 479.546 357.283 485.201 351.384Z" fill="#7CA417"/>
<path d="M451.03 139.932C453.267 138.671 451.111 141.193 467.505 143.227C494.435 146.603 515.059 184.923 513.351 213.521C512.985 219.583 511.886 238.214 499.072 246.472C497.486 247.489 491.506 251.719 484.509 250.336C413.849 236.221 435.124 157.18 449.362 145.586C453.186 142.454 448.833 141.152 451.03 139.932Z" fill="#346E00"/>
<path d="M504.117 327.913C494.354 326.326 494.964 303.668 502.774 288.128C502.774 288.128 516.809 257.455 557.041 264.615C559.645 265.063 560.906 264.33 560.58 264.981C558.912 268.358 561.434 271.775 556.716 282.189C553.421 289.552 532.633 332.591 504.117 327.913Z" fill="#7CA417"/>
<path d="M504.279 255.787C510.463 259.489 525.148 244.804 549.881 220.071C549.881 220.071 561.272 208.68 575.713 186.835C581.733 177.723 581.489 174.469 581.489 174.469C578.113 169.669 551.752 180.083 531.779 195.907C522.707 203.067 508.225 214.864 503.506 234.634C502.53 238.58 499.113 252.736 504.279 255.787Z" fill="#7CA417"/>
<path d="M481.58 268.846C476.617 271.856 470.8 264.167 440.534 244.112C424.018 233.17 411.164 225.766 402.906 209.616C398.919 201.806 399.529 199.08 400.424 197.9C403.394 194.076 430.08 195.419 447.735 204.45C455.382 208.355 473.444 217.589 481.214 237.766C485.079 247.855 488.008 264.94 481.58 268.846Z" fill="#7CA417"/>
<path d="M490.692 260.669C488.78 250.255 486.543 239.841 483.94 229.549C481.377 219.257 478.407 209.046 475.071 198.958C471.776 188.869 468.074 178.862 464.088 169.018C460.061 159.173 455.749 149.451 451.111 139.85C456.033 149.288 460.63 158.929 464.901 168.652C469.173 178.415 473.159 188.3 476.78 198.348C480.4 208.396 483.655 218.565 486.543 228.817C489.431 239.109 491.953 249.482 494.232 259.937L490.692 260.669Z" fill="#7CA417"/>
<path d="M492.97 337.513C496.916 330.638 501.025 323.926 505.5 317.377L508.876 312.495L512.415 307.736C512.7 307.329 513.026 306.963 513.31 306.556L514.246 305.376L516.077 303.057C516.687 302.285 517.338 301.512 517.948 300.779L519.86 298.501C525.026 292.521 530.558 286.826 536.498 281.66C542.478 276.494 548.864 271.856 555.617 267.829C548.986 272.1 542.762 276.9 536.986 282.229C531.209 287.558 525.921 293.376 520.999 299.478L519.168 301.796C518.558 302.569 517.948 303.342 517.378 304.115L515.629 306.474L514.775 307.654C514.49 308.061 514.205 308.427 513.921 308.834L510.585 313.675L507.371 318.597C503.181 325.228 499.276 332.021 495.615 338.937L492.97 337.513Z" fill="#346E00"/>
<path d="M489.635 274.256C495.411 265.754 500.862 257.049 506.557 248.424C512.253 239.841 518.151 231.339 524.619 223.284C526.206 221.25 527.874 219.257 529.541 217.305C531.209 215.352 532.918 213.399 534.667 211.487L535.969 210.064L537.311 208.68C538.206 207.745 539.142 206.85 540.037 205.914C541.908 204.124 543.779 202.334 545.691 200.626C549.556 197.209 553.542 193.954 557.651 190.822C561.76 187.73 565.99 184.761 570.343 182.035C566.031 184.883 561.922 187.934 557.854 191.148C553.827 194.361 549.922 197.697 546.179 201.195C538.613 208.152 531.982 216.003 525.758 224.179C519.534 232.356 513.88 240.939 508.429 249.645C502.937 258.35 497.73 267.218 492.116 275.883L489.635 274.256Z" fill="#346E00"/>
<path d="M488.821 284.629C487.397 279.87 485.363 275.232 483.004 270.758C480.645 266.283 478 261.971 475.153 257.781C469.417 249.401 462.908 241.509 455.871 234.186C448.792 226.864 441.185 220.071 432.927 214.009C424.71 207.989 415.923 202.66 406.526 198.592C416.005 202.416 424.954 207.541 433.375 213.359C441.795 219.216 449.647 225.888 456.928 233.088C464.21 240.288 471.003 248.099 476.983 256.438C479.994 260.628 482.801 264.94 485.323 269.456C487.845 273.971 490.042 278.69 491.709 283.694L488.821 284.629Z" fill="#346E00"/>
<path d="M494.191 358.422C492.93 356.714 491.465 355.127 489.879 353.622C488.292 352.117 486.584 350.693 484.835 349.391C481.295 346.706 477.512 344.347 473.607 342.272C469.661 340.198 465.552 338.408 461.322 336.984C457.091 335.601 452.657 334.625 448.182 334.299C452.698 334.34 457.172 335.072 461.525 336.252C465.878 337.391 470.149 338.977 474.258 340.889C478.366 342.801 482.353 344.998 486.136 347.52C488.048 348.781 489.879 350.164 491.628 351.629C493.377 353.093 495.086 354.72 496.591 356.551L494.191 358.422Z" fill="#346E00"/>
<path d="M413.767 259.245C413.848 255.869 453.837 244.438 482.923 290.325C489.838 301.267 489.065 319.817 485.241 318.271C470.068 312.129 433.985 299.274 417.876 262.296C416.005 258.025 413.726 261.035 413.767 259.245Z" fill="#9FBC50"/>
<path d="M495.208 247.204C495.086 250.133 494.842 252.981 494.638 255.869L493.947 264.412C493.703 267.259 493.459 270.107 493.255 272.954C493.011 275.802 492.726 278.609 492.36 281.456C491.099 296.345 493.052 312.861 493.499 315.709C493.743 317.132 493.947 318.556 494.15 319.98C494.353 321.404 494.516 322.868 494.638 324.292C494.923 327.18 495.167 330.069 495.411 332.957C495.859 338.733 496.184 344.51 496.225 350.246C496.265 356.022 496.143 361.799 495.859 367.575C495.777 368.999 495.696 370.463 495.615 371.887C495.533 373.311 495.411 374.776 495.289 376.199C495.167 377.623 495.004 379.088 494.882 380.511C494.72 381.935 494.557 383.4 494.313 384.823H493.825C493.459 381.935 493.214 379.047 492.93 376.199C492.686 373.311 492.442 370.464 492.238 367.575C491.831 361.839 491.465 356.104 491.18 350.368C490.896 344.632 490.733 338.896 490.611 333.16C490.53 330.272 490.489 327.424 490.367 324.577L490.245 320.305C490.204 318.882 490.163 317.417 490.163 315.993C490.123 313.105 490.123 310.217 490.082 307.329C490.041 304.44 489.919 301.552 489.797 298.664C489.675 295.776 489.472 292.887 489.269 289.999C489.024 287.111 488.78 284.182 488.699 281.294C488.455 275.477 489.147 269.659 490.163 263.923C491.221 258.188 492.645 252.533 494.842 247.123L495.208 247.204Z" fill="#7CA417"/>
<path d="M491.547 331.492C490.408 327.628 488.78 323.845 486.909 320.183C485.038 316.522 482.923 312.942 480.645 309.485C476.129 302.528 470.963 295.979 465.39 289.836C462.583 286.745 459.694 283.775 456.644 280.928C453.593 278.08 450.42 275.354 447.165 272.832C440.575 267.747 433.497 263.232 425.808 259.896C433.578 262.988 440.819 267.3 447.613 272.263C450.989 274.744 454.284 277.348 457.416 280.155C460.549 282.921 463.6 285.85 466.529 288.86C472.346 294.921 477.756 301.389 482.556 308.305C484.957 311.763 487.235 315.343 489.269 319.044C491.303 322.746 493.133 326.611 494.476 330.719L491.547 331.492Z" fill="#7CA417"/>
<path d="M525.107 359.683H462.989C461.2 359.683 459.735 361.148 459.735 362.938V370.992C459.735 372.782 461.2 374.247 462.989 374.247H464.373L467.871 425.218C467.871 427.944 470.068 430.14 472.793 430.14H515.426C518.151 430.14 520.348 427.944 520.348 425.218L523.846 374.247H525.229C527.019 374.247 528.484 372.782 528.484 370.992V362.938C528.402 361.148 526.938 359.683 525.107 359.683Z" fill="#D78E42"/>
<path d="M523.073 384.051L523.765 374.206H464.535L523.073 384.051Z" fill="#3E1A4A"/>
<path d="M66.0781 364.077C66.0781 364.443 63.3932 369.04 64.9797 368.837C68.1527 368.43 68.0307 360.904 72.7495 353.419C75.353 349.31 76.5734 348.782 81.2516 343.981C88.9807 336.09 89.0621 333.486 98.215 318.109C98.215 318.109 102.852 310.502 108.995 306.231C111.639 304.4 112.168 304.97 112.412 304.522C112.494 304.319 112.575 300.576 86.0925 319.004C66.078 332.917 65.7933 354.192 66.0781 364.077Z" fill="#9FBC50"/>
<path d="M65.0204 368.023C67.6645 369.447 72.3834 364.199 81.7804 355.738C81.7804 355.738 90.1197 348.212 100.412 341.744C103.503 339.791 107.856 337.269 112.046 338.327C112.982 338.571 114.894 339.222 115.097 338.856C115.3 338.449 113.266 337.432 113.104 337.432C93.2927 334.503 78.2819 347.968 74.7021 351.019C69.2917 355.575 62.3762 361.351 63.7593 366.07C63.8406 366.518 64.1254 367.535 65.0204 368.023Z" fill="#346E00"/>
<path d="M59.7319 373.149C61.7659 375.101 67.339 371.603 77.9564 366.355C77.9564 366.355 87.3941 361.718 98.2556 358.504C101.51 357.528 106.107 356.389 109.565 358.382C110.337 358.829 111.924 359.928 112.168 359.643C112.453 359.318 110.907 357.894 110.744 357.853C93.6588 350.205 76.736 358.463 72.7087 360.294C66.6475 363.019 58.9997 366.477 58.9997 371.033C59.0811 371.522 59.0811 372.498 59.7319 373.149Z" fill="#7CA417"/>
<path d="M78.6073 336.333C85.4415 320.346 82.6346 320.184 87.3128 313.227C90.1603 308.997 97.5233 299.6 99.3133 295.532C99.9641 294.067 100.9 291.586 101.795 288.738C101.835 288.535 102.039 288.169 101.957 288.128C101.754 288.006 100.9 290.447 98.5403 293.294C93.8622 298.786 88.4925 302.081 83.4889 305.457C74.0105 311.763 68.9662 320.143 66.9729 323.397C64.6949 327.18 56.7217 340.442 61.8066 349.554C62.3354 350.49 64.1254 353.663 66.6882 353.785C67.8272 353.826 71.285 353.419 78.6073 336.333Z" fill="#346E00"/>
<path d="M55.6233 321.282C54.3622 321.079 53.0605 320.265 51.5147 318.109C46.5517 311.112 46.0229 297.525 50.2129 286.42C54.4843 275.07 60.3828 272.426 62.0914 264.615C62.0914 264.615 63.3118 258.961 66.5661 255.3C66.6068 255.259 66.7695 255.096 67.0136 254.852C67.9086 253.916 68.4781 253.306 68.6001 253.388C68.8442 253.51 67.3391 255.422 66.8102 256.927C65.1424 261.564 67.9899 266.934 68.8442 268.805C73.1156 277.958 74.1326 296.02 68.6001 308.427C65.9559 314.326 60.4235 322.055 55.6233 321.282Z" fill="#346E00"/>
<path d="M60.7897 308.631C60.6676 301.064 65.6305 300.413 74.3767 283.938C77.1836 278.65 82.5939 264.941 87.3535 264.493C87.8009 264.453 87.5975 265.063 87.0687 265.185C81.699 266.568 81.6583 283.409 81.6583 283.409C81.6176 301.39 71.2036 320.509 66.2001 320.265C63.4338 320.062 60.871 313.919 60.7897 308.631Z" fill="#346E00"/>
<path d="M53.3453 374.572C50.7011 375.996 45.9823 370.748 36.5853 362.287C36.5853 362.287 28.2459 354.761 17.954 348.293C14.8623 346.341 10.5096 343.818 6.31959 344.876C5.38396 345.12 3.47201 345.771 3.26861 345.405C3.06522 344.998 5.0992 343.981 5.26191 343.981C25.0729 341.052 40.0837 354.517 43.6635 357.568C49.0739 362.124 55.9894 367.901 54.6063 372.62C54.525 373.108 54.2402 374.125 53.3453 374.572Z" fill="#7CA417"/>
<path d="M36.87 342.883C30.0358 326.896 32.8427 326.733 28.1646 319.777C25.317 315.546 17.954 306.149 16.1641 302.081C15.5132 300.617 14.5775 298.135 13.6826 295.288C13.6419 295.084 13.4385 294.718 13.5199 294.678C13.7233 294.556 14.5775 296.996 16.937 299.844C21.6151 305.336 26.9849 308.631 31.9885 312.007C41.4668 318.312 46.5111 326.692 48.5044 329.947C50.7825 333.73 58.7557 346.992 53.6707 356.104C53.1419 357.04 51.352 360.213 48.7892 360.335C47.6501 360.375 44.1924 359.968 36.87 342.883Z" fill="#7CA417"/>
<path d="M47.3246 315.18C47.4467 307.614 42.4838 306.963 33.7377 290.488C30.9308 285.199 25.5204 271.49 20.7609 271.043C20.3134 271.002 20.5168 271.612 21.0456 271.734C26.4153 273.117 26.456 289.959 26.456 289.959C26.4967 307.939 36.9107 327.059 41.9142 326.814C44.6805 326.652 47.2433 320.468 47.3246 315.18Z" fill="#346E00"/>
<path d="M60.2201 347.968C53.508 345.405 51.9622 328.726 56.9251 316.156C59.6506 309.241 63.7999 304.888 66.4441 302.162C75.4343 292.887 86.906 288.413 87.4348 289.226C87.5976 289.47 87.2721 288.738 85.6043 291.748C83.6516 295.247 80.56 309.973 75.7191 327.547C71.9766 341.093 70.146 345.608 65.8339 347.48C64.8169 347.846 62.4982 348.822 60.2201 347.968Z" fill="#7CA417"/>
<path d="M32.9648 272.507C33.3716 272.182 35.3242 274.012 36.0158 274.663C46.7145 284.589 52.369 295.898 52.369 295.898C59.61 310.339 59.8134 320.509 59.6913 324.292C59.5693 328.238 58.593 331.289 56.3963 332.835C53.1826 335.113 49.0739 333.445 45.8602 331.452C36.9514 325.919 33.2902 310.787 34.8767 298.786C35.6903 292.522 36.3412 279.016 34.3479 275.07C34.0632 274.5 32.558 272.833 32.9648 272.507Z" fill="#7CA417"/>
<path d="M66.5255 308.346C65.9966 308.02 64.044 310.42 63.3525 311.275C52.613 324.333 47.8535 338.123 47.8535 338.123C41.7923 355.819 43.094 367.494 43.8262 371.847C44.5585 376.362 46.145 379.698 48.9519 381.162C52.9792 383.278 57.4539 380.715 60.8303 377.949C70.2273 370.26 72.0579 352.32 68.4374 338.774C66.5255 331.696 63.7186 316.36 65.3865 311.478C65.5899 310.827 67.0543 308.671 66.5255 308.346Z" fill="#9FBC50"/>
<path d="M51.5147 377.176C51.5147 377.583 54.4843 382.871 52.6537 382.627C49.0739 382.098 49.318 373.515 44.111 364.891C41.2227 360.131 39.8803 359.521 34.6326 353.988C25.9679 344.835 25.9679 341.866 15.8386 324.17C15.8386 324.17 10.713 315.383 3.83813 310.42C0.868514 308.264 0.217642 308.915 0.0142435 308.427C-0.107795 308.183 -0.107792 303.952 29.6697 325.472C52.1656 341.703 52.0435 365.948 51.5147 377.176Z" fill="#9FBC50"/>
<path d="M84.7906 368.308H30.2799C28.6934 368.308 27.3916 369.61 27.3916 371.196V378.234C27.3916 379.82 28.6934 381.122 30.2799 381.122H31.4596L34.5105 425.869C34.5105 428.229 36.4225 430.182 38.8226 430.182H76.2072C78.5666 430.182 80.5192 428.27 80.5192 425.869L83.5702 381.122H84.7499C86.3364 381.122 87.6382 379.82 87.6382 378.234V371.196C87.6382 369.61 86.3771 368.308 84.7906 368.308Z" fill="#D78E42"/>
<path d="M83.0007 389.705L83.5702 381.041H31.6223L83.0007 389.705Z" fill="#3E1A4A"/>
<path d="M552.647 397.272C551.386 391.943 549.515 385.271 547.725 350.775C547.562 347.398 547.196 341.296 550.939 335.886C551.63 334.869 555.332 329.54 562.289 328.442C563.55 328.238 568.716 327.587 573.109 330.557C578.357 334.096 580.106 340.686 580.188 346.341C580.554 370.301 575.062 390.356 573.109 398.167C571.319 405.164 554.275 404.35 552.647 397.272Z" fill="#9FBC50"/>
<path d="M577.381 362.694C579.781 360.741 582.344 362.612 583.686 360.375C584.988 358.219 584.093 355.738 584.418 352.605C584.703 349.92 585.517 348.456 587.266 347.398C589.015 346.341 594.466 346.178 595.443 352.605C595.687 354.395 595.89 359.317 593.327 364.321C590.968 368.877 584.012 375.101 577.299 372.457C574.004 371.115 574.167 365.297 577.381 362.694Z" fill="#9FBC50"/>
<path d="M551.427 351.141C549.271 349.31 547.644 354.436 543.454 350.083C542.6 349.229 541.339 346.951 542.396 341.744C543.251 337.554 541.827 332.754 536.538 332.876C533.447 332.957 531.453 335.316 530.681 338.367C528.158 348.741 533.121 354.314 533.528 354.883C537.108 359.928 544.593 365.704 549.149 363.223C553.014 361.107 553.99 353.338 551.427 351.141Z" fill="#9FBC50"/>
<path d="M556.756 396.539C555.495 394.221 552.322 343.453 558.465 332.55C559.034 331.533 560.783 329.459 563.387 329.011C566.926 328.442 569.896 331.371 570.75 332.225C575.916 337.31 575.428 345.771 575.184 350.653C573.435 386.207 572.214 395.238 570.262 397.597C567.618 400.892 558.709 400.201 556.756 396.539Z" fill="#7CA417"/>
<path d="M561.678 396.54C561.434 395.604 561.231 384.702 561.678 365.826C561.882 358.097 561.882 347.358 562.288 338.652C562.492 334.462 562.736 329.296 565.828 329.906C569.041 330.557 570.262 352.321 570.262 352.321C570.506 386.736 567.495 396.214 566.723 397.272C565.99 398.451 562.004 397.923 561.678 396.54Z" fill="#346E00"/>
<path d="M549.719 354.192C551.264 355.209 550.817 360.497 547.685 361.433C546.139 361.88 543.983 361.148 542.315 359.928C536.823 356.022 534.789 350.409 534.545 349.676C531.087 338.408 535.725 333.201 537.718 333.486C539.061 333.689 539.752 336.293 540.078 337.432C541.135 341.459 539.833 342.761 540.362 346.625C540.403 347.032 541.095 352.646 544.349 353.663C546.83 354.436 548.132 353.134 549.719 354.192Z" fill="#7CA417"/>
<path d="M540.566 355.372C536.823 351.995 534.586 343.574 536.742 335.723C537.067 334.543 538.694 334.503 538.125 336.822C535.847 345.568 537.799 351.71 542.681 355.005C545.04 356.592 546.179 356.185 547.4 355.86C548.579 355.534 549.393 357.934 547.603 358.3C545.813 358.626 542.64 357.243 540.566 355.372Z" fill="#346E00"/>
<path d="M578.805 363.711C580.92 361.677 582.303 364.565 584.622 362.043C589.3 356.795 585.029 352.077 587.103 349.432C587.185 349.31 588.12 348.049 589.625 347.968C591.293 347.846 592.554 349.188 592.798 349.514C594.751 352.158 593.775 358.382 592.514 361.84C590.602 367.006 585.679 369.325 584.052 370.057C582.181 370.952 579.252 371.481 577.91 370.26C576.527 369.04 576.933 365.501 578.805 363.711Z" fill="#7CA417"/>
<path d="M581.123 365.135C588.69 367.209 591.537 355.534 589.503 350.978C588.934 349.717 590.357 348.863 590.764 350.734C592.229 357.812 589.503 366.111 582.791 368.226C578.764 369.528 579.008 364.565 581.123 365.135Z" fill="#346E00"/>
<path d="M581.205 389.583H545.406C544.349 389.583 543.535 390.437 543.535 391.454V396.092C543.535 397.15 544.389 397.963 545.406 397.963H546.179L548.173 427.334C548.173 428.88 549.434 430.141 550.98 430.141H575.509C577.055 430.141 578.316 428.88 578.316 427.334L580.31 397.963H581.083C582.14 397.963 582.954 397.109 582.954 396.092V391.454C583.076 390.397 582.262 389.583 581.205 389.583Z" fill="#D78E42"/>
<path d="M580.025 403.618L580.432 397.922H546.301L580.025 403.618Z" fill="#3E1A4A"/>
</svg>
