<svg width="126" height="25" viewBox="0 0 126 25" fill="none" xmlns="http://www.w3.org/2000/svg">
<path d="M11.0176 3.35356C11.317 2.43225 12.6204 2.43225 12.9198 3.35357L14.3988 7.90574C14.5327 8.31776 14.9167 8.59672 15.3499 8.59672H20.1363C21.1051 8.59672 21.5078 9.83634 20.7241 10.4057L16.8518 13.2191C16.5013 13.4738 16.3547 13.9252 16.4885 14.3372L17.9676 18.8894C18.267 19.8107 17.2125 20.5768 16.4288 20.0074L12.5565 17.194C12.206 16.9393 11.7314 16.9393 11.3809 17.194L7.5086 20.0074C6.72488 20.5768 5.6704 19.8107 5.96975 18.8894L7.44885 14.3372C7.58272 13.9252 7.43606 13.4738 7.08557 13.2191L3.21326 10.4057C2.42955 9.83634 2.83232 8.59672 3.80105 8.59672H8.58749C9.02072 8.59672 9.40467 8.31776 9.53855 7.90574L11.0176 3.35356Z" fill="#FFD700"/>
<path d="M36.4247 3.35356C36.7241 2.43225 38.0275 2.43225 38.3269 3.35357L39.8059 7.90574C39.9398 8.31776 40.3238 8.59672 40.757 8.59672H45.5434C46.5122 8.59672 46.9149 9.83634 46.1312 10.4057L42.2589 13.2191C41.9084 13.4738 41.7618 13.9252 41.8956 14.3372L43.3747 18.8894C43.6741 19.8107 42.6196 20.5768 41.8359 20.0074L37.9636 17.194C37.6131 16.9393 37.1385 16.9393 36.788 17.194L32.9157 20.0074C32.132 20.5768 31.0775 19.8107 31.3769 18.8894L32.8559 14.3372C32.9898 13.9252 32.8432 13.4738 32.4927 13.2191L28.6204 10.4057C27.8367 9.83634 28.2394 8.59672 29.2082 8.59672H33.9946C34.4278 8.59672 34.8118 8.31776 34.9457 7.90574L36.4247 3.35356Z" fill="#FFD700"/>
<path d="M61.8318 3.35356C62.1312 2.43225 63.4346 2.43225 63.734 3.35357L65.2131 7.90574C65.3469 8.31776 65.7309 8.59672 66.1641 8.59672H70.9506C71.9193 8.59672 72.322 9.83634 71.5383 10.4057L67.666 13.2191C67.3155 13.4738 67.1689 13.9252 67.3028 14.3372L68.7818 18.8894C69.0812 19.8107 68.0267 20.5768 67.243 20.0074L63.3707 17.194C63.0202 16.9393 62.5456 16.9393 62.1951 17.194L58.3228 20.0074C57.5391 20.5768 56.4846 19.8107 56.784 18.8894L58.2631 14.3372C58.3969 13.9252 58.2503 13.4738 57.8998 13.2191L54.0275 10.4057C53.2438 9.83634 53.6465 8.59672 54.6153 8.59672H59.4017C59.8349 8.59672 60.2189 8.31776 60.3528 7.90574L61.8318 3.35356Z" fill="#FFD700"/>
<path d="M87.239 3.35356C87.5383 2.43225 88.8417 2.43225 89.1411 3.35357L90.6202 7.90574C90.754 8.31776 91.138 8.59672 91.5712 8.59672H96.3577C97.3264 8.59672 97.7292 9.83634 96.9454 10.4057L93.0731 13.2191C92.7226 13.4738 92.576 13.9252 92.7099 14.3372L94.1889 18.8894C94.4883 19.8107 93.4338 20.5768 92.6501 20.0074L88.7778 17.194C88.4273 16.9393 87.9527 16.9393 87.6022 17.194L83.7299 20.0074C82.9462 20.5768 81.8917 19.8107 82.1911 18.8894L83.6702 14.3372C83.804 13.9252 83.6574 13.4738 83.3069 13.2191L79.4346 10.4057C78.6509 9.83634 79.0536 8.59672 80.0224 8.59672H84.8088C85.242 8.59672 85.626 8.31776 85.7599 7.90574L87.239 3.35356Z" fill="#FFD700"/>
<path d="M112.646 3.35356C112.945 2.43225 114.249 2.43225 114.548 3.35357L116.027 7.90574C116.161 8.31776 116.545 8.59672 116.978 8.59672H121.765C122.733 8.59672 123.136 9.83634 122.353 10.4057L118.48 13.2191C118.13 13.4738 117.983 13.9252 118.117 14.3372L119.596 18.8894C119.895 19.8107 118.841 20.5768 118.057 20.0074L114.185 17.194C113.834 16.9393 113.36 16.9393 113.009 17.194L109.137 20.0074C108.353 20.5768 107.299 19.8107 107.598 18.8894L109.077 14.3372C109.211 13.9252 109.064 13.4738 108.714 13.2191L104.842 10.4057C104.058 9.83634 104.461 8.59672 105.429 8.59672H110.216C110.649 8.59672 111.033 8.31776 111.167 7.90574L112.646 3.35356Z" fill="#FFD700"/>
</svg>
